<?xml version="1.0" standalone="no"?>
<!DOCTYPE svg PUBLIC "-//W3C//DTD SVG 1.1//EN" "http://www.w3.org/Graphics/SVG/1.1/DTD/svg11.dtd" >
<svg xmlns="http://www.w3.org/2000/svg">
<metadata>
Copyright (c) 2015 by Fontsmith Ltd. All rights reserved. This font may not be altered in any way without prior permission of Fontsmith Ltd.
</metadata>
<defs>
<font id="INGMeGrWeb-Bold" horiz-adv-x="583" >
  <font-face 
    font-family="ING Me Gr Web"
    font-weight="700"
    font-stretch="normal"
    units-per-em="1000"
    panose-1="2 0 8 3 4 0 0 2 0 4"
    ascent="750"
    descent="-250"
    x-height="528"
    cap-height="720"
    bbox="-84.8 -252 1279 978"
    underline-thickness="92"
    underline-position="-8"
    unicode-range="U+000D-FB04"
  />
<missing-glyph horiz-adv-x="694" 
d="M90 720h514v-720h-514v720zM522 52l-174 262l-176 -262h350zM316 360l-174 262v-524zM553 622l-175 -262l175 -262v524zM522 669h-350l176 -263z" />
    <glyph glyph-name="fi" unicode="fi" horiz-adv-x="628" 
d="M95 550q0 110 62.5 168t173.5 58q48 0 90 -9.5t80 -27.5q9 -5 10 -10.5t-2 -14.5l-19 -52q-3 -9 -8.5 -10.5t-13.5 1.5q-35 12 -63 18t-59 6q-68 0 -99.5 -34t-31.5 -98v-17h134q16 0 16 -17v-61q0 -17 -16 -17h-134v-417q0 -16 -17 -16h-86q-17 0 -17 16v417h-63
q-16 0 -16 17v61q0 17 16 17h63v22zM451 0q-17 0 -17 16v496q0 16 17 16h86q17 0 17 -16v-496q0 -16 -17 -16h-86z" />
    <glyph glyph-name="fl" unicode="fl" horiz-adv-x="642" 
d="M434 498q0 57 -0.5 97t-1.5 69q-37 13 -91 13q-68 0 -98 -30q-15 -15 -21.5 -37.5t-6.5 -51.5v-30h134q16 0 16 -17v-61q0 -17 -16 -17h-134v-417q0 -16 -17 -16h-86q-17 0 -17 16v417h-63q-16 0 -16 17v61q0 17 16 17h63v30q0 51 15 89.5t42 64.5q66 64 193 64
q55 0 104.5 -12.5t81.5 -31.5q14 -8 16.5 -17t3.5 -23q2 -42 2.5 -103t0.5 -129v-327q0 -22 7 -32t24 -10h10q9 0 11 -3.5t2 -13.5v-47q0 -16 -11 -21q-8 -4 -19.5 -7t-26.5 -3q-26 0 -47.5 7.5t-38.5 25.5q-31 34 -31 120v349z" />
    <glyph glyph-name="f_f" unicode="ff" horiz-adv-x="738" 
d="M16 511q0 17 16 17h63v28q0 105 55.5 158.5t151.5 53.5q30 0 56.5 -4.5t43.5 -12.5q18 -7 14 -26l-13 -52q-4 -16 -25 -12q-15 3 -31 5.5t-33 2.5q-48 0 -73.5 -27.5t-25.5 -87.5v-26h239v36q0 105 55.5 158.5t151.5 53.5q30 0 56.5 -4.5t43.5 -12.5q18 -7 14 -26
l-13 -52q-4 -16 -25 -12q-15 3 -31 5.5t-33 2.5q-48 0 -73.5 -27.5t-25.5 -87.5v-34h134q16 0 16 -17v-61q0 -17 -16 -17h-134v-417q0 -16 -17 -16h-86q-17 0 -17 16v417h-239v-417q0 -16 -17 -16h-86q-17 0 -17 16v417h-63q-16 0 -16 17v61z" />
    <glyph glyph-name="f_f_i" unicode="ffi" horiz-adv-x="987" 
d="M454 550q0 110 62.5 168t173.5 58q20 0 50.5 -3.5t59.5 -10.5t49.5 -16t20.5 -21q0 -3 -2 -11l-19 -52q-4 -11 -12 -11q-2 0 -10 2q-35 12 -63 18t-59 6q-68 0 -99.5 -34t-31.5 -98v-17h134q16 0 16 -17v-61q0 -17 -16 -17h-134v-417q0 -16 -17 -16h-86q-17 0 -17 16v417
h-239v-417q0 -16 -17 -16h-86q-17 0 -17 16v417h-63q-16 0 -16 17v61q0 17 16 17h63v28q0 105 55.5 158.5t151.5 53.5q21 0 41.5 -2.5t37 -7t26.5 -11t10 -15.5q0 -2 -0.5 -3.5t-0.5 -3.5l-13 -52q-3 -13 -16 -13q-17 0 -35.5 4.5t-37.5 4.5q-48 0 -73.5 -27.5t-25.5 -87.5
v-26h239v22zM810 0q-17 0 -17 16v496q0 16 17 16h86q17 0 17 -16v-496q0 -16 -17 -16h-86z" />
    <glyph glyph-name="f_f_l" unicode="ffl" horiz-adv-x="1001" 
d="M793 498q0 57 -0.5 97t-1.5 69q-37 13 -91 13q-68 0 -98 -30q-15 -15 -21.5 -37.5t-6.5 -51.5v-30h134q16 0 16 -17v-61q0 -17 -16 -17h-134v-417q0 -16 -17 -16h-86q-17 0 -17 16v417h-239v-417q0 -16 -17 -16h-86q-17 0 -17 16v417h-63q-16 0 -16 17v61q0 17 16 17h63
v28q0 105 55.5 158.5t151.5 53.5q30 0 56.5 -4.5t43.5 -12.5q18 -7 14 -26l-13 -52q-4 -16 -25 -12q-15 3 -31 5.5t-33 2.5q-48 0 -73.5 -27.5t-25.5 -87.5v-26h239v30q0 51 15 89.5t42 64.5q66 64 193 64q55 0 104.5 -12.5t81.5 -31.5q14 -8 16.5 -17t3.5 -23
q2 -42 2.5 -103t0.5 -129v-327q0 -22 7 -32t24 -10h10q9 0 11 -3.5t2 -13.5v-47q0 -16 -11 -21q-8 -4 -19.5 -7t-26.5 -3q-26 0 -47.5 7.5t-38.5 25.5q-31 34 -31 120v349z" />
    <glyph glyph-name=".notdef" horiz-adv-x="694" 
d="M90 720h514v-720h-514v720zM522 52l-174 262l-176 -262h350zM316 360l-174 262v-524zM553 622l-175 -262l175 -262v524zM522 669h-350l176 -263z" />
    <glyph glyph-name=".null" horiz-adv-x="0" 
 />
    <glyph glyph-name=".null" horiz-adv-x="0" 
 />
    <glyph glyph-name="nonmarkingreturn" unicode="&#xd;" horiz-adv-x="240" 
 />
    <glyph glyph-name="nonbreakingspace" unicode="&#xa0;" horiz-adv-x="240" 
 />
    <glyph glyph-name="space" unicode=" " horiz-adv-x="240" 
 />
    <glyph glyph-name="A" unicode="A" horiz-adv-x="655" 
d="M452 175h-259l-50 -156q-7 -19 -27 -19h-84q-21 0 -14 22l237 680q4 10 9.5 14t18.5 4h82q13 0 19 -4t9 -14l244 -682q3 -9 -1 -14.5t-13 -5.5h-92q-20 0 -27 19zM226 274h193l-11 33q-26 79 -47.5 147.5t-37.5 119.5q-8 -25 -17.5 -56.5t-21 -66t-23.5 -71t-24 -72.5z
" />
    <glyph glyph-name="B" unicode="B" horiz-adv-x="594" 
d="M96 0q-20 0 -20 19v682q0 19 20 19h151q68 0 120 -11.5t87 -38.5q29 -22 45 -55.5t16 -79.5q0 -48 -22.5 -87t-70.5 -65q61 -23 95.5 -64t34.5 -107q0 -58 -21.5 -98.5t-59 -65.5t-88.5 -36.5t-111 -11.5h-176zM269 101q30 0 57.5 4t48.5 16t34 33.5t13 55.5
q0 61 -38.5 86.5t-108.5 25.5h-72v-221h66zM255 419q65 0 98 26.5t33 76.5q0 25 -7 42t-20 28q-19 17 -46.5 21.5t-59.5 4.5h-50v-199h52z" />
    <glyph glyph-name="C" unicode="C" horiz-adv-x="581" 
d="M340 -10q-74 0 -130 25.5t-94 73t-57 114t-19 149.5q0 81 19.5 150t58 119.5t97 79.5t136.5 29q113 0 188 -55q16 -12 8 -29l-30 -52q-12 -20 -29 -10q-32 20 -62 29.5t-65 9.5q-86 0 -138 -66.5t-52 -199.5q0 -56 10.5 -103.5t33 -82t58.5 -54t87 -19.5q33 0 67 8.5
t64 23.5q20 10 27 -6l26 -55q9 -18 -8 -29q-38 -23 -91 -36.5t-105 -13.5z" />
    <glyph glyph-name="D" unicode="D" horiz-adv-x="665" 
d="M96 0q-20 0 -20 19v682q0 19 20 19h164q98 0 164 -21t111 -68q42 -43 66 -110t24 -158t-25 -164t-79 -124q-45 -43 -108.5 -59t-147.5 -16h-169zM203 618v-516h61q47 0 90 10.5t74 39.5q34 32 50.5 85.5t16.5 123.5q0 64 -13 112t-37 77q-28 34 -71 51t-107 17h-64z" />
    <glyph glyph-name="E" unicode="E" horiz-adv-x="558" 
d="M96 0q-20 0 -20 19v682q0 19 20 19h386q20 0 20 -19v-65q0 -19 -20 -19h-279v-202h236q20 0 20 -18v-65q0 -19 -20 -19h-236v-210h283q20 0 20 -19v-65q0 -19 -20 -19h-390z" />
    <glyph glyph-name="F" unicode="F" horiz-adv-x="519" 
d="M203 19q0 -19 -20 -19h-87q-20 0 -20 19v682q0 19 20 19h377q20 0 20 -19v-65q0 -19 -20 -19h-270v-202h227q20 0 20 -18v-65q0 -19 -20 -19h-227v-294z" />
    <glyph glyph-name="G" unicode="G" horiz-adv-x="660" 
d="M468 295h-135q-20 0 -20 19v65q0 18 20 18h241q20 0 20 -18v-311q0 -16 -5 -22.5t-20 -14.5q-20 -9 -44.5 -16.5t-51.5 -13t-55.5 -8.5t-54.5 -3q-80 0 -135.5 20.5t-93.5 58.5q-48 48 -71 120.5t-23 167.5q0 85 21.5 153.5t63 117.5t101.5 75.5t137 26.5q125 0 206 -61
q17 -13 7 -30l-28 -52q-11 -21 -29 -10q-34 22 -69.5 34t-78.5 12q-101 0 -150.5 -68.5t-49.5 -194.5q0 -61 11.5 -109.5t35.5 -83t61.5 -53t89.5 -18.5q56 0 99 16v183z" />
    <glyph glyph-name="H" unicode="H" horiz-adv-x="681" 
d="M96 0q-20 0 -20 19v682q0 19 20 19h87q20 0 20 -19v-286h275v286q0 19 20 19h87q20 0 20 -19v-682q0 -19 -20 -19h-87q-20 0 -20 19v294h-275v-294q0 -19 -20 -19h-87z" />
    <glyph glyph-name="I" unicode="I" horiz-adv-x="285" 
d="M99 0q-20 0 -20 19v682q0 19 20 19h87q20 0 20 -19v-682q0 -19 -20 -19h-87z" />
    <glyph glyph-name="J" unicode="J" horiz-adv-x="476" 
d="M190 -10q-20 0 -41.5 3t-42.5 8t-39.5 11t-30.5 13q-8 4 -10.5 10.5t1.5 18.5l18 58q6 17 27 9q26 -11 53.5 -17.5t50.5 -6.5q31 0 50.5 10t31 27.5t15.5 42t4 53.5v387h-161q-20 0 -20 19v65q0 19 20 19h268q20 0 20 -19v-469q0 -118 -49.5 -180t-164.5 -62z" />
    <glyph glyph-name="K" unicode="K" horiz-adv-x="609" 
d="M96 0q-20 0 -20 19v682q0 19 20 19h87q20 0 20 -19v-284h28q17 0 25 4.5t17 17.5l184 263q8 11 14 14.5t18 3.5h82q12 0 15 -7.5t-4 -16.5l-227 -322l239 -352q7 -10 3 -16t-13 -6h-96q-14 0 -21 4t-15 16l-178 267q-10 15 -18 19.5t-26 4.5h-27v-292q0 -19 -20 -19h-87z
" />
    <glyph glyph-name="L" unicode="L" horiz-adv-x="513" 
d="M203 103h260q20 0 20 -19v-65q0 -19 -20 -19h-367q-20 0 -20 19v682q0 19 20 19h87q20 0 20 -19v-598z" />
    <glyph glyph-name="M" unicode="M" horiz-adv-x="820" 
d="M383 119q-17 0 -24 4t-12 16l-62 151q-11 26 -23 56t-23 60t-21.5 58t-17.5 50v-60t-0.5 -72.5t-1.5 -79t-2 -78.5l-7 -202q-1 -22 -21 -22h-74q-14 0 -19 5t-4 18l30 675q1 22 24 22h81q14 0 20.5 -4t11.5 -15l92 -227q29 -70 49 -123.5t34 -92.5q7 20 16 45t19.5 52.5
t22 57t22.5 57.5l93 231q5 11 12 15t19 4h79q23 0 24 -22l29 -675q1 -23 -23 -23h-76q-23 0 -23 22l-7 261q-2 76 -3 130.5t-1 104.5q-15 -46 -37.5 -108t-45.5 -119l-62 -152q-5 -12 -12 -16t-24 -4h-52z" />
    <glyph glyph-name="N" unicode="N" horiz-adv-x="700" 
d="M304 325q-23 36 -40.5 64t-31 51t-24 42t-19.5 37q1 -21 2 -49t2 -58.5t1 -61.5v-57v-274q0 -19 -20 -19h-78q-20 0 -20 19v682q0 19 20 19h69q15 0 22 -4t14 -14l194 -307q22 -36 39 -62.5t30.5 -49t24.5 -42t21 -40.5q-1 21 -2 49t-1.5 58t-0.5 60.5v57.5v275
q0 19 20 19h78q20 0 20 -19v-682q0 -19 -20 -19h-69q-15 0 -22 4t-13 14z" />
    <glyph glyph-name="O" unicode="O" horiz-adv-x="699" 
d="M659 370q0 -87 -21 -157t-61.5 -119.5t-100.5 -76.5t-137 -27q-66 0 -121 21t-94.5 65.5t-61.5 112.5t-22 161q0 87 21 157t61.5 119.5t100.5 76.5t137 27q66 0 121 -21t94.5 -65.5t61.5 -112.5t22 -161zM528 366q0 133 -45 195t-126 62q-90 0 -138 -69t-48 -200
q0 -133 45 -195t126 -62q90 0 138 69t48 200z" />
    <glyph glyph-name="P" unicode="P" horiz-adv-x="560" 
d="M96 0q-20 0 -20 19v682q0 19 20 19h143q85 0 144.5 -16t95.5 -53q53 -53 53 -154q0 -51 -16 -94.5t-47.5 -75t-80 -49.5t-112.5 -18q-20 0 -38 0.5t-35 2.5v-244q0 -19 -20 -19h-87zM203 618v-254q15 -2 32 -2.5t34 -0.5q70 0 102.5 36t32.5 99q0 34 -9.5 56.5
t-26.5 36.5q-20 17 -49.5 23t-64.5 6h-51z" />
    <glyph glyph-name="Q" unicode="Q" horiz-adv-x="699" 
d="M659 370q0 -109 -33 -191t-96 -130q21 -27 44.5 -50.5t46.5 -44.5q18 -18 0 -34l-51 -45q-19 -19 -38 -1q-11 9 -24.5 23.5t-28.5 31t-31 34.5t-30 36q-36 -9 -79 -9q-66 0 -121 21t-94.5 65.5t-61.5 112.5t-22 161q0 87 21 157t61.5 119.5t100.5 76.5t137 27
q66 0 121 -21t94.5 -65.5t61.5 -112.5t22 -161zM528 366q0 133 -45 195t-126 62q-90 0 -138 -69t-48 -200q0 -133 45 -195t126 -62q90 0 138 69t48 200z" />
    <glyph glyph-name="R" unicode="R" horiz-adv-x="600" 
d="M295 259q-9 17 -17.5 20.5t-26.5 3.5h-48v-264q0 -19 -20 -19h-87q-20 0 -20 19v682q0 19 20 19h164q79 0 135.5 -16.5t90.5 -52.5q48 -50 48 -141q0 -72 -33.5 -123.5t-98.5 -81.5l167 -279q8 -11 5 -18.5t-16 -7.5h-91q-14 0 -19.5 2.5t-13.5 14.5zM203 618v-235h64
q70 0 104.5 32.5t34.5 92.5q0 28 -7 46.5t-20 31.5q-20 20 -50.5 26t-66.5 6h-59z" />
    <glyph glyph-name="S" unicode="S" horiz-adv-x="539" 
d="M99 148q35 -24 73.5 -38t73.5 -14q54 0 91 24.5t37 71.5q0 25 -11 43.5t-29 33.5t-40.5 27t-46.5 24q-32 16 -64 33.5t-58 41t-42.5 55.5t-16.5 76q0 49 18 87t48.5 64t71 39.5t85.5 13.5q57 0 100.5 -14t77.5 -37q16 -11 6 -31l-28 -50q-10 -20 -29 -7q-32 17 -59.5 26
t-60.5 9q-51 0 -77.5 -25t-26.5 -62q0 -21 10.5 -37.5t27.5 -30t39.5 -25.5t46.5 -24q44 -22 78 -43.5t57.5 -47t35.5 -57t12 -71.5q0 -47 -16 -86t-46.5 -67.5t-76 -44t-104.5 -15.5q-64 0 -121 19t-90 46q-15 12 -5 31l30 56q10 19 29 6z" />
    <glyph glyph-name="T" unicode="T" horiz-adv-x="533" 
d="M330 617v-598q0 -19 -20 -19h-87q-20 0 -20 19v598h-167q-20 0 -20 19v65q0 19 20 19h461q20 0 20 -19v-65q0 -19 -20 -19h-167z" />
    <glyph glyph-name="U" unicode="U" horiz-adv-x="690" 
d="M618 286q0 -147 -66.5 -221.5t-210.5 -74.5q-140 0 -204.5 68t-64.5 208v435q0 19 20 19h87q20 0 20 -19v-432q0 -89 34 -131t112 -42q75 0 111.5 44t36.5 129v432q0 19 20 19h85q20 0 20 -19v-415z" />
    <glyph glyph-name="V" unicode="V" horiz-adv-x="633" 
d="M232 429q28 -93 50 -169.5t39 -136.5q17 60 38.5 134t50.5 170l81 274q5 19 27 19h83q21 0 14 -22l-221 -680q-4 -10 -9.5 -14t-18.5 -4h-92q-13 0 -19 4t-9 14l-228 682q-3 9 1 14.5t13 5.5h91q22 0 27 -19z" />
    <glyph glyph-name="W" unicode="W" horiz-adv-x="968" 
d="M638 376q7 -29 13.5 -61t12.5 -64.5t11.5 -63.5t10.5 -58q8 55 21.5 120.5t27.5 125.5l77 326q3 11 8.5 15t18.5 4h80q21 0 15 -22l-177 -676q-4 -13 -10 -17.5t-20 -4.5h-95q-13 0 -19 4.5t-9 16.5l-71 294q-14 58 -26.5 118.5t-20.5 114.5q-8 -54 -19.5 -113
t-25.5 -116l-70 -298q-3 -13 -9.5 -17t-18.5 -4h-93q-14 0 -20.5 4.5t-9.5 16.5l-186 677q-6 22 15 22h90q11 0 17.5 -4t9.5 -15l81 -326q14 -59 27.5 -120t23.5 -117q8 50 20 114t26 123l75 325q3 13 8.5 16.5t19.5 3.5h86q14 0 19.5 -3.5t8.5 -16.5z" />
    <glyph glyph-name="X" unicode="X" horiz-adv-x="601" 
d="M142 223q29 49 53 86.5t42 64.5q-15 25 -41.5 68.5t-56.5 94.5l-96 162q-5 8 -1.5 14.5t13.5 6.5h91q13 0 20 -3t13 -14l69 -119q17 -29 35 -61.5t29 -55.5q11 21 28.5 54.5t33.5 62.5l66 119q5 10 12 13.5t21 3.5h87q10 0 12.5 -6t-2.5 -14l-128 -214
q-18 -29 -36.5 -59.5t-35.5 -56.5q14 -22 36.5 -58.5t47.5 -78.5l125 -211q5 -9 2 -15.5t-13 -6.5h-93q-14 0 -21 4t-13 14l-86 151q-15 26 -32 56t-29 52l-57 -105l-85 -154q-5 -10 -12.5 -14t-21.5 -4h-85q-11 0 -14 6t3 16z" />
    <glyph glyph-name="Y" unicode="Y" horiz-adv-x="571" 
d="M241 0q-20 0 -20 19v261l-208 420q-5 9 -1 14.5t14 5.5h87q15 0 22.5 -4t12.5 -15l61 -132q9 -20 21 -44.5t23.5 -49t21.5 -46t15 -34.5q6 14 14.5 34t19 43.5t21.5 48.5t22 48l61 133q5 11 12 14.5t21 3.5h84q10 0 14 -5.5t-1 -14.5l-210 -420v-261q0 -19 -20 -19h-87z
" />
    <glyph glyph-name="Z" unicode="Z" horiz-adv-x="565" 
d="M60 0q-20 0 -20 19v46q0 16 3 27.5t14 28.5l309 496h-289q-20 0 -20 19v65q0 19 20 19h418q20 0 20 -19v-46q0 -15 -3.5 -26.5t-12.5 -25.5l-312 -500h318q20 0 20 -19v-65q0 -19 -20 -19h-445z" />
    <glyph glyph-name="a" unicode="a" horiz-adv-x="578" 
d="M415 15q-4 8 -8.5 23t-6.5 28q-24 -35 -62.5 -55.5t-83.5 -20.5q-52 0 -92 19.5t-67 54.5t-41 83.5t-14 106.5q0 67 18 120t48.5 89.5t71.5 55.5t87 19q42 0 78 -18t55 -44l3 34q1 11 6 14.5t16 3.5h66q19 0 19 -16q0 -10 -0.5 -30.5t-0.5 -46.5t-0.5 -55.5t-0.5 -57.5
v-95q0 -44 2.5 -81t5 -64.5t5 -44.5t2.5 -21q0 -16 -17 -16h-67q-16 0 -22 15zM386 379q-19 26 -45 40.5t-56 14.5q-57 0 -89 -45t-32 -130q0 -34 6 -64.5t19.5 -53t35.5 -35.5t53 -13q22 0 40.5 9t31.5 23q20 21 28 54.5t8 66.5v133z" />
    <glyph glyph-name="b" unicode="b" horiz-adv-x="569" 
d="M260 92q77 0 111 48.5t34 131.5q0 77 -27 119t-87 42q-24 0 -47.5 -8t-37.5 -22q-12 -12 -16 -32.5t-4 -56.5v-210q16 -6 35.5 -9t38.5 -3zM186 487q24 23 60 37t78 14q48 0 86.5 -19t64.5 -53.5t40 -83t14 -108.5q0 -140 -67 -212t-201 -72q-26 0 -52.5 3t-50 7.5
t-43 11t-32.5 13.5q-11 5 -14 11.5t-3 18.5v695q0 16 17 16h86q17 0 17 -16v-263z" />
    <glyph glyph-name="c" unicode="c" horiz-adv-x="496" 
d="M285 -10q-60 0 -106 19t-77 54.5t-46.5 85t-15.5 110.5q0 64 18 116t52 88t81 55.5t106 19.5q48 0 90.5 -13.5t74.5 -37.5q9 -7 9 -14t-5 -17l-25 -49q-5 -11 -13 -11.5t-16 4.5q-26 15 -53 24t-58 9q-29 0 -54 -10t-43.5 -31t-29 -52.5t-10.5 -74.5q0 -37 8 -68.5
t25 -54t42.5 -35t61.5 -12.5q29 0 57.5 8t53.5 19q19 10 27 -9l20 -47q9 -22 -5 -30q-32 -20 -76.5 -33t-92.5 -13z" />
    <glyph glyph-name="d" unicode="d" horiz-adv-x="586" 
d="M484 -3q-28 0 -52.5 12.5t-36.5 41.5q-23 -28 -63 -44.5t-78 -16.5q-52 0 -92 19.5t-67 54.5t-41 83.5t-14 106.5q0 67 18 120t49 89.5t72 55.5t87 19q35 0 67 -12t53 -32v256q0 16 17 16h86q17 0 17 -16v-619q0 -19 6.5 -27.5t24.5 -10.5q15 -1 15 -17v-49
q0 -18 -17 -23q-19 -7 -51 -7zM386 387q-20 23 -46 35t-54 12q-57 0 -89.5 -45t-32.5 -130q0 -34 6.5 -64.5t20.5 -53t36 -35.5t53 -13q23 0 44 7t35 21q15 15 21 39.5t6 67.5v159z" />
    <glyph glyph-name="e" unicode="e" horiz-adv-x="554" 
d="M293 -10q-65 0 -112.5 20t-78.5 55.5t-46.5 84.5t-15.5 106q0 64 18 116t50.5 89t77.5 57t100 20q56 0 98 -20t70.5 -56t43 -85.5t14.5 -107.5q0 -29 -5 -39t-16 -10h-326q8 -63 43 -94.5t102 -31.5q31 0 66 8.5t66 22.5q18 8 26 -10l20 -49q4 -11 2.5 -17.5t-11.5 -11.5
q-37 -21 -84.5 -34t-101.5 -13zM286 435q-52 0 -82 -35t-38 -90h225q-1 25 -8 47.5t-20.5 39.5t-32.5 27.5t-44 10.5z" />
    <glyph glyph-name="f" unicode="f" horiz-adv-x="377" 
d="M14 511q0 17 16 17h63v36q0 105 55.5 158.5t151.5 53.5q30 0 56.5 -4.5t43.5 -12.5q18 -7 14 -26l-13 -52q-4 -16 -25 -12q-15 3 -31 5.5t-33 2.5q-48 0 -73.5 -27.5t-25.5 -87.5v-34h134q16 0 16 -17v-61q0 -17 -16 -17h-134v-417q0 -16 -17 -16h-86q-17 0 -17 16v417
h-63q-16 0 -16 17v61z" />
    <glyph glyph-name="g" unicode="g" horiz-adv-x="575" 
d="M360 -115q27 31 27 107v57q-25 -27 -59.5 -41t-72.5 -14q-52 0 -92 19t-67.5 53.5t-41.5 83t-14 106.5q0 67 18 119.5t49 88.5t72 55t87 19q40 0 74.5 -17t54.5 -40q0 8 1 16t3 14q2 9 6.5 13t17.5 4h54q19 0 22 -14q3 -12 4.5 -38t2 -57.5t1 -65t0.5 -62.5v-290
q0 -130 -57 -190q-60 -63 -186 -63q-35 0 -72 5t-69 14q-17 4 -13 24l12 58q2 11 7 14t16 1q31 -6 58 -9.5t51 -3.5q42 0 68 9.5t38 24.5zM279 97q23 0 44.5 7t35.5 21q15 15 21.5 40.5t6.5 66.5v147q-19 26 -45 40.5t-56 14.5q-57 0 -89.5 -44t-32.5 -129q0 -34 6.5 -64
t20 -52t35.5 -35t53 -13z" />
    <glyph glyph-name="h" unicode="h" horiz-adv-x="584" 
d="M85 0q-17 0 -17 16v734q0 16 17 16h86q17 0 17 -16v-269q26 26 63.5 41.5t80.5 15.5q45 0 80.5 -14t58.5 -40q26 -28 37 -66.5t11 -97.5v-304q0 -16 -18 -16h-85q-17 0 -17 16v265q0 27 -1 46.5t-3.5 33.5t-7 24t-11.5 18q-22 26 -77 26q-21 0 -43.5 -6t-37.5 -17
q-14 -9 -20 -22.5t-8 -36.5q-2 -19 -2 -48.5v-63.5v-219q0 -16 -17 -16h-86z" />
    <glyph glyph-name="i" unicode="i" horiz-adv-x="264" 
d="M89 0q-17 0 -17 16v496q0 16 17 16h86q17 0 17 -16v-496q0 -16 -17 -16h-86zM81 627q-18 0 -18 17v101q0 17 18 17h101q19 0 19 -17v-101q0 -17 -19 -17h-101z" />
    <glyph glyph-name="j" unicode="j" horiz-adv-x="274" 
d="M17 -233q-25 0 -49 4t-40 11t-12 25l10 50q2 10 7 13.5t18 1.5q12 -2 27.5 -3.5t23.5 -1.5q45 0 62.5 26t17.5 91v528q0 16 17 16h86q17 0 17 -16v-506q0 -69 -12.5 -114.5t-36.5 -73.5q-24 -27 -59 -39t-77 -12zM91 627q-18 0 -18 17v101q0 17 18 17h101q19 0 19 -17
v-101q0 -17 -19 -17h-101z" />
    <glyph glyph-name="k" unicode="k" horiz-adv-x="517" 
d="M85 0q-17 0 -17 16v734q0 16 17 16h86q17 0 17 -16v-434h22q13 0 19.5 3.5t14.5 14.5l121 178q6 10 10.5 13t17.5 3h76q10 0 13 -6.5t-2 -14.5l-153 -223l172 -264q5 -8 1.5 -14t-11.5 -6h-87q-14 0 -20 4.5t-12 13.5l-118 184q-8 11 -13 14t-18 3h-33v-203
q0 -16 -17 -16h-86z" />
    <glyph glyph-name="l" unicode="l" horiz-adv-x="278" 
d="M187 -4q-26 0 -47.5 7.5t-38.5 25.5q-31 34 -31 120v349q0 72 -1 118.5t-2.5 75t-2.5 41.5t-1 18q0 15 18 15h80q18 0 21 -16q2 -10 3.5 -37t2.5 -65.5t1.5 -87t0.5 -100.5v-327q0 -22 7 -32t24 -10h10q9 0 11 -3.5t2 -13.5v-47q0 -16 -11 -21q-8 -4 -19.5 -7t-26.5 -3z
" />
    <glyph glyph-name="m" unicode="m" horiz-adv-x="897" 
d="M183 472q26 29 63.5 47.5t82.5 18.5q49 0 91 -21t62 -60q30 39 74 60t93 21q43 0 77 -14t57 -40q26 -28 37.5 -66.5t11.5 -97.5v-304q0 -16 -18 -16h-85q-17 0 -17 16v265q0 27 -1 46.5t-3.5 33.5t-7 24t-11.5 18q-11 14 -30.5 20t-42.5 6q-18 0 -39 -5.5t-36 -16.5
t-21 -23.5t-8 -35.5q-2 -19 -1.5 -48.5t0.5 -63.5v-220q0 -16 -17 -16h-86q-17 0 -17 16v265q0 27 -1 46.5t-3.5 33.5t-7 24t-11.5 18q-11 14 -30.5 20t-42.5 6q-18 0 -39 -5.5t-36 -16.5q-14 -9 -20 -22.5t-8 -36.5q-2 -19 -2 -48.5v-63.5v-220q0 -16 -17 -16h-86
q-17 0 -17 16v313q0 31 -1 61.5t-1.5 55.5t-1.5 42.5t-1 23.5q0 16 17 16h77q10 0 13.5 -3.5t5.5 -11.5q3 -17 5 -41z" />
    <glyph glyph-name="n" unicode="n" horiz-adv-x="585" 
d="M178 513q2 -7 2.5 -17.5t1.5 -21.5q25 28 65 46t87 18q45 0 80 -14t59 -40q26 -28 37 -66.5t11 -97.5v-304q0 -16 -17 -16h-86q-17 0 -17 16v265q0 27 -1 46.5t-3.5 33.5t-7 24t-11.5 18q-22 26 -77 26q-21 0 -43.5 -6t-37.5 -17q-14 -10 -20 -23t-8 -36q-2 -19 -2 -48.5
v-63.5v-219q0 -16 -17 -16h-86q-17 0 -17 16v313q0 31 -1 61.5t-1.5 55.5t-1.5 42.5t-1 23.5q0 16 17 16h76q17 0 20 -15z" />
    <glyph glyph-name="o" unicode="o" horiz-adv-x="570" 
d="M276 -10q-114 0 -175 69t-61 194q0 139 66.5 212t187.5 73q114 0 175 -69t61 -194q0 -139 -66.5 -212t-187.5 -73zM279 94q60 0 93.5 43.5t33.5 130.5q0 36 -6 66t-20 52.5t-36 35t-53 12.5q-60 0 -93.5 -43.5t-33.5 -130.5q0 -36 6 -66t20 -52.5t35.5 -35t53.5 -12.5z
" />
    <glyph glyph-name="p" unicode="p" horiz-adv-x="574" 
d="M87 -242q-17 0 -17 17v554q0 31 -1 61.5t-1.5 55.5t-1.5 42.5t-1 23.5q0 16 17 16h77q10 0 13.5 -3.5t5.5 -11.5q2 -11 4 -37q25 28 62 45t83 17q47 0 85.5 -18.5t65.5 -53t41.5 -83.5t14.5 -110q0 -63 -15.5 -115t-45 -89.5t-71.5 -58t-95 -20.5q-36 0 -65 8.5t-52 22.5
v-246q0 -17 -17 -17h-86zM284 94q61 0 93.5 47t32.5 131q0 78 -29 120t-88 42q-25 0 -49.5 -9t-37.5 -25q-10 -13 -13 -31t-3 -57v-184q15 -15 41 -24.5t53 -9.5z" />
    <glyph glyph-name="q" unicode="q" horiz-adv-x="570" 
d="M382 43q-25 -27 -61 -40t-74 -13q-50 0 -88.5 19t-64.5 54t-40 83.5t-14 107.5q0 64 19.5 116.5t54.5 90t85 57.5t110 20q47 0 95 -11t79 -28q11 -6 15 -14t4 -23v-401q0 -40 1 -81t3.5 -78.5t5 -69t5.5 -53.5q3 -21 -20 -21h-74q-13 0 -18.5 4.5t-7.5 14.5
q-3 13 -5.5 38.5t-5 60t-3.5 77t-1 90.5zM277 94q23 0 43 7t34 21q15 15 21.5 40.5t6.5 66.5v196q-17 6 -36 9t-37 3q-63 0 -100 -39q-21 -22 -33 -57t-12 -84q0 -76 25.5 -119.5t87.5 -43.5z" />
    <glyph glyph-name="r" unicode="r" horiz-adv-x="380" 
d="M87 0q-17 0 -17 16v313q0 31 -1 61.5t-1.5 55.5t-1.5 42.5t-1 23.5q0 16 17 16h77q10 0 13.5 -3.5t5.5 -11.5q3 -19 5 -48t3 -50q26 54 62.5 88t84.5 34q16 0 22.5 -4.5t6.5 -16.5v-68q0 -18 -17 -19q-38 -4 -71 -24.5t-52 -51.5q-9 -15 -15.5 -32t-10 -38.5t-5 -50.5
t-1.5 -69v-147q0 -16 -17 -16h-86z" />
    <glyph glyph-name="s" unicode="s" horiz-adv-x="470" 
d="M68 120q10 20 28 9q28 -17 60.5 -28.5t70.5 -11.5q40 0 65 17.5t25 44.5t-25 41t-82 29q-30 8 -59 19t-51.5 29t-36 44t-13.5 65q0 38 15 68t41.5 50.5t63 31t79.5 10.5q50 0 89.5 -13t68.5 -34q16 -13 5 -30l-28 -44q-7 -11 -13.5 -11.5t-15.5 4.5q-29 16 -54.5 23
t-51.5 7q-33 0 -59 -12t-26 -43q0 -15 8.5 -25t23 -17.5t32.5 -13.5t37 -11q28 -8 57.5 -19t53.5 -28t39 -43.5t15 -65.5q0 -41 -15.5 -73t-42.5 -54t-63.5 -33.5t-77.5 -11.5q-62 0 -109.5 16t-74.5 38q-14 11 -5 30z" />
    <glyph glyph-name="t" unicode="t" horiz-adv-x="409" 
d="M214 528h123q16 0 16 -17v-61q0 -17 -16 -17h-123v-257q0 -25 3.5 -41.5t12.5 -26.5q14 -17 49 -17q14 0 32.5 3.5t31.5 7.5q19 5 24 -12l14 -49q3 -11 0 -17t-13 -11q-18 -9 -49.5 -16t-63.5 -7q-77 0 -116 36q-45 42 -45 142v265h-68q-16 0 -16 17v61q0 17 16 17h68
v139q0 16 17 16h86q17 0 17 -16v-139z" />
    <glyph glyph-name="u" unicode="u" 
d="M400 54q-24 -28 -64 -46t-88 -18q-44 0 -79 14t-58 40q-25 28 -36 66.5t-11 97.5v304q0 16 17 16h86q17 0 17 -16v-265q0 -27 1 -46.5t3 -33.5t6.5 -24t10.5 -18q23 -26 76 -26q21 0 43.5 6t37.5 17q14 9 20 22.5t8 36.5q2 19 2 48.5v63.5v219q0 16 18 16h85q17 0 17 -16
v-313q0 -32 1 -62t2 -55t2 -42.5t1 -23.5q0 -16 -18 -16h-77q-10 0 -13.5 3.5t-5.5 12.5l-4 38v0z" />
    <glyph glyph-name="v" unicode="v" horiz-adv-x="513" 
d="M380 512q4 16 23 16h79q18 0 14 -19q-14 -63 -34.5 -131t-44.5 -133t-49 -123.5t-47 -101.5q-5 -12 -13 -16t-22 -4h-67q-13 0 -20 3.5t-12 14.5l-177 491q-4 9 0 14t13 5h87q11 0 17 -3t9 -12l75 -222q30 -87 52 -165q16 40 32.5 89.5t32.5 101.5t29.5 102.5t22.5 92.5z
" />
    <glyph glyph-name="w" unicode="w" horiz-adv-x="787" 
d="M511 323q15 -56 28 -111.5t21 -91.5q29 91 53 194t40 199q2 8 6 11.5t15 3.5h77q17 0 13 -19q-23 -125 -58.5 -252t-78.5 -237q-5 -11 -10.5 -15.5t-18.5 -4.5h-83q-24 0 -29 20l-50 183q-13 48 -23.5 96.5t-17.5 90.5q-6 -41 -18 -92t-25 -96l-51 -182q-5 -20 -29 -20
h-86q-13 0 -19 4.5t-10 15.5l-141 489q-6 19 13 19h83q11 0 16.5 -2t8.5 -13l55 -208q6 -21 12 -46.5l12 -51t11 -49t8 -39.5q3 16 8 38.5t10.5 47.5t11.5 50.5t12 46.5l56 207q3 11 8 15t18 4h77q13 0 18 -4t8 -15z" />
    <glyph glyph-name="x" unicode="x" horiz-adv-x="511" 
d="M33 0q-11 0 -13.5 6.5t2.5 14.5l96 144l73 107l-73 110l-83 126q-5 8 -2.5 14t13.5 6h92q12 0 18.5 -3.5t11.5 -11.5l40 -64q17 -26 30 -47.5t22 -37.5l48 84l38 65q5 8 11 11.5t19 3.5h84q11 0 13.5 -6t-2.5 -14l-91 -139q-17 -26 -33 -49.5t-30 -43.5l65 -96l107 -160
q5 -8 2.5 -14t-13.5 -6h-89q-21 0 -31 15l-53 83l-55 89l-53 -90l-50 -82q-10 -15 -30 -15h-84z" />
    <glyph glyph-name="y" unicode="y" horiz-adv-x="580" 
d="M512 1q0 -130 -57 -190q-60 -63 -186 -63q-35 0 -72 5t-69 14q-17 4 -13 24l12 58q2 11 7 14t16 1q31 -6 58 -9.5t51 -3.5q42 0 68 9.5t38 24.5q27 31 27 107v54q-25 -25 -61 -40.5t-84 -15.5q-44 0 -79 15t-57 40q-26 28 -36.5 68.5t-10.5 94.5v304q0 16 17 16h86
q17 0 17 -16v-264q0 -55 4 -81t17 -41q12 -14 31.5 -20.5t42.5 -6.5q22 0 45 5.5t37 16.5q14 10 20 23t8 31q2 20 2.5 45.5t0.5 66.5v225q0 16 18 16h85q17 0 17 -16v-511z" />
    <glyph glyph-name="z" unicode="z" horiz-adv-x="447" 
d="M267 433h-216q-16 0 -16 18v60q0 17 16 17h349q17 0 17 -17v-28q0 -25 -15 -47l-227 -341h231q17 0 17 -18v-60q0 -17 -17 -17h-366q-16 0 -16 17v28q0 25 15 47z" />
    <glyph glyph-name="ampersand" unicode="&#x26;" horiz-adv-x="705" 
d="M539 386q1 9 5 14t16 5h65q14 0 17.5 -6t2.5 -15q-5 -54 -20.5 -106.5t-41.5 -100.5l100 -92q15 -14 1 -28l-50 -52q-15 -15 -30 -2l-89 81q-43 -43 -100.5 -68.5t-128.5 -25.5q-61 0 -109 16t-81 45t-50.5 68t-17.5 86q0 69 41.5 117.5t107.5 77.5q-32 35 -48.5 71.5
t-16.5 78.5q0 45 18 78.5t47 56t65.5 34t73.5 11.5q39 0 73.5 -11.5t61 -33.5t41.5 -52.5t15 -67.5q0 -53 -31.5 -103t-110.5 -85l140 -128q14 32 22.5 66.5t11.5 70.5zM294 93q44 0 80.5 16t65.5 45l-199 183q-41 -20 -64 -53t-23 -73q0 -52 38.5 -85t101.5 -33zM232 551
q0 -27 15.5 -52.5t50.5 -59.5q30 14 48.5 29.5t29 30.5t14 30t3.5 27q0 31 -20.5 52.5t-58.5 21.5q-33 0 -57.5 -21t-24.5 -58z" />
    <glyph glyph-name="at" unicode="@" horiz-adv-x="827" 
d="M399 -10q-79 0 -145.5 22.5t-115 66t-75.5 105.5t-27 142q0 93 33 167.5t89.5 127t130.5 81t156 28.5q78 0 142 -21.5t109.5 -61t71 -96.5t25.5 -128q0 -46 -13.5 -93t-40 -84.5t-66 -61t-90.5 -23.5q-45 0 -71.5 15.5t-38.5 40.5q-16 -23 -46 -39.5t-67 -16.5
q-66 0 -101.5 44.5t-35.5 114.5q0 50 15 92t40.5 72.5t59.5 47.5t72 17q32 0 55 -11.5t43 -30.5l9 19q5 8 8.5 10t12.5 2h50q17 0 14 -17l-40 -212q-2 -10 -3 -18.5t-1 -16.5q0 -17 11.5 -27t30.5 -10q22 0 41 15t32 40t20.5 58.5t7.5 69.5q0 106 -68.5 165.5t-188.5 59.5
q-75 0 -133 -24.5t-98 -66.5t-61 -99t-21 -122q0 -126 75.5 -195t207.5 -69q47 0 94 7.5t88 19.5q11 4 13 -6l11 -45q2 -8 0 -11.5t-7 -5.5q-45 -18 -102.5 -28t-111.5 -10zM488 439q-11 14 -30 24t-38 10q-24 0 -41.5 -15t-29 -37t-17 -48t-5.5 -48q0 -42 15.5 -63.5
t42.5 -21.5q19 0 33.5 9.5t25.5 25.5q10 15 17 35t12 49z" />
    <glyph glyph-name="exclam" unicode="!" horiz-adv-x="300" 
d="M203 250q0 -13 -15 -13h-74q-15 0 -15 13l-16 452q0 18 19 18h96q19 0 19 -18zM97 0q-20 0 -20 19v104q0 19 20 19h105q21 0 21 -19v-104q0 -19 -21 -19h-105z" />
    <glyph glyph-name="exclamdown" unicode="&#xa1;" horiz-adv-x="300" 
d="M96.9941 277.983q0 12.999 14.999 12.999h73.9951q14.999 0 14.999 -12.999l15.999 -451.973q0 -17.999 -18.998 -17.999h-95.9941q-18.999 0 -18.999 17.999zM202.987 527.968q19.999 0 19.999 -18.999v-103.993q0 -18.999 -19.999 -18.999h-104.993
q-20.999 0 -20.999 18.999v103.993q0 18.999 20.999 18.999h104.993z" />
    <glyph glyph-name="question" unicode="?" horiz-adv-x="447" 
d="M235 253q0 -16 -17 -16h-78q-17 0 -17 16v24q0 31 6.5 54t19 41.5t29.5 33.5t38 30q18 12 32 23.5t24 24t15.5 27.5t5.5 35q0 41 -25 60t-70 19q-30 0 -61.5 -8t-59.5 -21q-17 -9 -24 5l-27 58q-4 8 -3.5 15.5t12.5 13.5q37 18 80.5 30t94.5 12q45 0 83 -11t66 -32.5
t44 -54.5t16 -77q0 -36 -10 -64t-26.5 -50t-38 -40t-44.5 -34q-32 -22 -48.5 -41t-16.5 -49v-24zM125 0q-20 0 -20 19v108q0 19 20 19h109q21 0 21 -19v-108q0 -19 -21 -19h-109z" />
    <glyph glyph-name="questiondown" unicode="&#xbf;" horiz-adv-x="447" 
d="M211.987 274.983q0 15.999 16.999 15.999h77.9951q16.999 0 16.999 -15.999v-23.999q0 -30.998 -6.5 -53.9961q-6.49902 -22.999 -18.999 -41.498q-12.499 -18.499 -29.498 -33.498t-37.9971 -29.998q-17.999 -11.999 -31.998 -23.498q-14 -11.5 -23.999 -23.999
t-15.499 -27.498t-5.5 -34.998q0 -40.9971 24.999 -59.9961q24.998 -18.999 69.9951 -18.999q29.999 0 61.4971 8q31.498 7.99902 59.4961 20.998q16.999 9 23.998 -4.99902l26.999 -57.9971q3.99902 -7.99902 3.49902 -15.499q-0.499023 -7.49902 -12.499 -13.499
q-36.9971 -17.999 -80.4951 -29.998q-43.4971 -11.999 -94.4941 -11.999q-44.9971 0 -82.9951 10.999q-37.9971 10.999 -65.9961 32.498q-27.998 21.499 -43.9971 54.4961q-15.999 32.998 -15.999 76.9961q0 35.9971 10 63.9961q9.99902 27.998 26.498 49.9971
q16.499 21.998 37.998 39.9971q21.498 17.999 44.4971 33.998q31.998 21.999 48.4971 40.9971q16.499 18.999 16.499 48.9971v23.999zM321.98 527.968q19.999 0 19.999 -18.999v-107.993q0 -18.999 -19.999 -18.999h-108.993q-20.999 0 -20.999 18.999v107.993
q0 18.999 20.999 18.999h108.993z" />
    <glyph glyph-name="asterisk" unicode="*" horiz-adv-x="413" 
d="M263 531l80 -89q4 -5 5 -9t-7 -10l-52 -40q-5 -5 -10 -4.5t-10 8.5l-65 101l-61 -101q-8 -14 -20 -4l-52 40q-8 6 -7 10t5 9l76 89l-111 28q-16 4 -10 19l21 60q3 8 6 10.5t11 -0.5l106 -45l-10 114q-1 8 3 10.5t10 2.5h66q6 0 10 -2.5t3 -10.5l-10 -114l111 45
q8 3 11 0.5t6 -10.5l21 -60q3 -8 1 -12.5t-11 -6.5z" />
    <glyph glyph-name="period" unicode="." horiz-adv-x="240" 
d="M67 0q-20 0 -20 19v104q0 19 20 19h105q21 0 21 -19v-104q0 -19 -21 -19h-105z" />
    <glyph glyph-name="comma" unicode="," horiz-adv-x="240" 
d="M76 -169q-19 0 -16 18l31 152l-25 12q-11 5 -15 11.5t-4 21.5v77q0 19 20 19h105q21 0 21 -19v-53q0 -35 -5 -57.5t-16 -51.5l-41 -112q-5 -11 -9 -14.5t-15 -3.5h-31z" />
    <glyph glyph-name="colon" unicode=":" horiz-adv-x="240" 
d="M67 0q-20 0 -20 19v104q0 19 20 19h105q21 0 21 -19v-104q0 -19 -21 -19h-105zM67 365q-20 0 -20 19v104q0 19 20 19h105q21 0 21 -19v-104q0 -19 -21 -19h-105z" />
    <glyph glyph-name="semicolon" unicode=";" horiz-adv-x="240" 
d="M67 365q-20 0 -20 19v104q0 19 20 19h105q21 0 21 -19v-104q0 -19 -21 -19h-105zM76 -169q-19 0 -16 18l31 152l-25 12q-11 5 -15 11.5t-4 21.5v77q0 19 20 19h105q21 0 21 -19v-53q0 -35 -5 -57.5t-16 -51.5l-41 -112q-5 -11 -9 -14.5t-15 -3.5h-31z" />
    <glyph glyph-name="ellipsis" unicode="&#x2026;" horiz-adv-x="720" 
d="M67 0q-20 0 -20 19v104q0 19 20 19h105q21 0 21 -19v-104q0 -19 -21 -19h-105zM307 0q-20 0 -20 19v104q0 19 20 19h105q21 0 21 -19v-104q0 -19 -21 -19h-105zM547 0q-20 0 -20 19v104q0 19 20 19h105q21 0 21 -19v-104q0 -19 -21 -19h-105z" />
    <glyph glyph-name="periodcentered" unicode="&#xb7;" horiz-adv-x="240" 
d="M67 291q-20 0 -20 19v104q0 19 20 19h105q21 0 21 -19v-104q0 -19 -21 -19h-105z" />
    <glyph glyph-name="uni22C5" unicode="&#x22c5;" horiz-adv-x="240" 
d="M67 291q-20 0 -20 19v104q0 19 20 19h105q21 0 21 -19v-104q0 -19 -21 -19h-105z" />
    <glyph glyph-name="bullet" unicode="&#x2022;" horiz-adv-x="370" 
d="M96 241q-36 0 -36 33v175q0 34 36 34h176q38 0 38 -34v-175q0 -33 -38 -33h-176z" />
    <glyph glyph-name="slash" unicode="/" horiz-adv-x="353" 
d="M129 9q-4 -15 -20 -15h-86q-16 0 -12 16l213 702q4 15 20 15h86q16 0 12 -16z" />
    <glyph glyph-name="parenleft" unicode="(" horiz-adv-x="338" 
d="M66 311q0 75 13.5 142t36 125t51 105t58.5 80q12 14 27 4l48 -29q19 -11 5 -31q-48 -75 -78.5 -174t-30.5 -222t30.5 -222t78.5 -174q14 -20 -5 -31l-49 -29q-15 -10 -27 4q-30 33 -58 80t-50.5 104.5t-36 125t-13.5 142.5z" />
    <glyph glyph-name="brokenbar" unicode="&#xa6;" horiz-adv-x="272" 
d="M97 365q-17 0 -17 16v369q0 16 17 16h78q17 0 17 -16v-369q0 -16 -17 -16h-78zM97 -242q-17 0 -17 16v369q0 16 17 16h78q17 0 17 -16v-369q0 -16 -17 -16h-78z" />
    <glyph glyph-name="parenright" unicode=")" horiz-adv-x="338" 
d="M272 311q0 -75 -13.5 -142.5t-36 -125t-50.5 -104.5t-58 -80q-12 -14 -27 -4l-49 29q-19 11 -5 31q48 75 78.5 174t30.5 222t-30.5 222t-78.5 174q-14 20 5 31l48 29q15 10 27 -4q30 -33 58.5 -80t51 -105t36 -125t13.5 -142z" />
    <glyph glyph-name="bracketleft" unicode="[" horiz-adv-x="334" 
d="M78 740q0 13 13 13h212q13 0 13 -13v-62q0 -13 -13 -13h-111v-709h111q13 0 13 -13v-62q0 -13 -13 -13h-212q-13 0 -13 13v859z" />
    <glyph glyph-name="backslash" unicode="\" horiz-adv-x="353" 
d="M11 711q-4 16 12 16h86q16 0 20 -15l213 -702q4 -16 -12 -16h-86q-16 0 -20 15z" />
    <glyph glyph-name="bracketright" unicode="]" horiz-adv-x="334" 
d="M256 -119q0 -13 -13 -13h-212q-13 0 -13 13v62q0 13 13 13h111v709h-111q-13 0 -13 13v62q0 13 13 13h212q13 0 13 -13v-859z" />
    <glyph glyph-name="braceleft" unicode="{" horiz-adv-x="323" 
d="M24 347q0 11 13 13q61 11 61 84v135q0 85 39.5 129.5t125.5 44.5h31q13 0 13 -13v-62q0 -13 -13 -13h-20q-35 0 -48.5 -21t-13.5 -56v-131q0 -24 -3.5 -46.5t-11.5 -41.5t-21.5 -34t-34.5 -22q21 -8 34.5 -22.5t21.5 -33.5t11.5 -41.5t3.5 -46.5v-131q0 -35 13.5 -56
t48.5 -21h20q13 0 13 -13v-62q0 -13 -13 -13h-31q-86 0 -125.5 44.5t-39.5 129.5v135q0 73 -61 84q-13 2 -13 13v68z" />
    <glyph glyph-name="bar" unicode="|" horiz-adv-x="272" 
d="M97 -242q-17 0 -17 16v976q0 16 17 16h78q17 0 17 -16v-976q0 -16 -17 -16h-78z" />
    <glyph glyph-name="braceright" unicode="}" horiz-adv-x="323" 
d="M299 279q0 -11 -13 -13q-61 -11 -61 -84v-135q0 -85 -39.5 -129.5t-125.5 -44.5h-31q-13 0 -13 13v62q0 13 13 13h20q35 0 48.5 21t13.5 56v131q0 24 3.5 46.5t11.5 41.5t21.5 33.5t34.5 22.5q-21 7 -34.5 22t-21.5 34t-11.5 41.5t-3.5 46.5v131q0 35 -13.5 56t-48.5 21
h-20q-13 0 -13 13v62q0 13 13 13h31q86 0 125.5 -44.5t39.5 -129.5v-135q0 -73 61 -84q13 -2 13 -13v-68z" />
    <glyph glyph-name="hyphen" unicode="-" horiz-adv-x="387" 
d="M349 261q0 -17 -16 -17h-279q-16 0 -16 17v65q0 17 16 17h279q16 0 16 -17v-65z" />
    <glyph glyph-name="uni00AD" unicode="&#xad;" horiz-adv-x="387" 
d="M349 261q0 -17 -16 -17h-279q-16 0 -16 17v65q0 17 16 17h279q16 0 16 -17v-65z" />
    <glyph glyph-name="endash" unicode="&#x2013;" horiz-adv-x="500" 
d="M486 255q0 -17 -16 -17h-440q-16 0 -16 17v57q0 17 16 17h440q16 0 16 -17v-57z" />
    <glyph glyph-name="emdash" unicode="&#x2014;" horiz-adv-x="1000" 
d="M986 255q0 -17 -16 -17h-940q-16 0 -16 17v57q0 17 16 17h940q16 0 16 -17v-57z" />
    <glyph glyph-name="underscore" unicode="_" horiz-adv-x="502" 
d="M512 -194q0 -17 -16 -17h-490q-16 0 -16 17v57q0 17 16 17h490q16 0 16 -17v-57z" />
    <glyph glyph-name="dagger" unicode="&#x2020;" horiz-adv-x="478" 
d="M460 411q0 -17 -16 -17h-149v-515q0 -16 -17 -16h-78q-17 0 -17 16v515h-149q-16 0 -16 17v65q0 17 16 17h149v211q0 16 17 16h78q17 0 17 -16v-211h149q16 0 16 -17v-65z" />
    <glyph glyph-name="daggerdbl" unicode="&#x2021;" horiz-adv-x="478" 
d="M460 418q0 -17 -16 -17h-149v-219h149q16 0 16 -17v-65q0 -17 -16 -17h-149v-204q0 -16 -17 -16h-78q-17 0 -17 16v204h-149q-16 0 -16 17v65q0 17 16 17h149v219h-149q-16 0 -16 17v65q0 17 16 17h149v204q0 16 17 16h78q17 0 17 -16v-204h149q16 0 16 -17v-65z" />
    <glyph glyph-name="section" unicode="&#xa7;" horiz-adv-x="525" 
d="M481 351q0 -48 -21 -82t-54 -54q16 -17 25.5 -40t9.5 -55q0 -38 -15 -68t-41.5 -50.5t-63 -31t-79.5 -10.5q-50 0 -89.5 13t-68.5 34q-16 13 -5 30l28 44q7 11 13.5 11.5t15.5 -4.5q29 -16 54.5 -23t51.5 -7q33 0 58 12t25 43q0 15 -8.5 25t-22.5 17.5t-31.5 13
t-36.5 10.5q-43 12 -76.5 25.5t-57 31.5t-36 42.5t-12.5 60.5q0 47 20.5 81t53.5 54q-16 17 -25 40.5t-9 55.5q0 38 15 68t41.5 50.5t63 31t79.5 10.5q50 0 89.5 -13t68.5 -34q16 -13 5 -30l-28 -44q-7 -11 -13.5 -11.5t-15.5 4.5q-29 16 -54.5 23t-51.5 7q-33 0 -58 -12
t-25 -43q0 -15 8.5 -25t22.5 -17.5t31.5 -13t36.5 -10.5q43 -12 76.5 -25.5t57 -31.5t36 -42.5t12.5 -60.5zM160 356q0 -31 32 -47t89 -31q11 -3 21 -6t21 -7q19 11 30.5 29.5t11.5 39.5q0 31 -32 47t-89 31q-11 2 -21.5 5t-20.5 7q-19 -11 -30.5 -29t-11.5 -39z" />
    <glyph glyph-name="paragraph" unicode="&#xb6;" horiz-adv-x="613" 
d="M409 632h-71v-753q0 -16 -17 -16h-67q-17 0 -17 16v423q-46 2 -83 18t-63.5 43t-40.5 63.5t-14 79.5q0 48 15.5 87.5t45.5 67.5t74 43.5t101 15.5h301q16 0 16 -17v-54q0 -17 -16 -17h-63v-753q0 -16 -17 -16h-67q-17 0 -17 16v753z" />
    <glyph glyph-name="registered" unicode="&#xae;" horiz-adv-x="803" 
d="M402 -10q-76 0 -142.5 27.5t-115.5 76.5t-77.5 117t-28.5 149t28.5 149t77.5 117t115.5 76.5t142.5 27.5t142.5 -27.5t115.5 -76.5t77 -117t28 -149t-28 -149t-77 -117t-115.5 -76.5t-142.5 -27.5zM403 63q58 0 108.5 22t88 61.5t59 94t21.5 119.5t-21.5 119.5t-59 94
t-88 61.5t-108.5 22t-109 -22t-88.5 -61.5t-59 -94t-21.5 -119.5t21.5 -119.5t59 -94t88 -61.5t109.5 -22zM386 378q37 0 55.5 16.5t18.5 46.5q0 35 -23 45t-55 10h-34v-118h38zM278 159q-11 0 -11 10v386q0 8 8 8h108q80 0 119 -30.5t39 -88.5q0 -83 -74 -118l84 -148
q11 -19 -7 -19h-53q-9 0 -13 2t-8 9l-80 144h-41v-145q0 -10 -11 -10h-60z" />
    <glyph glyph-name="copyright" unicode="&#xa9;" horiz-adv-x="803" 
d="M402 -10q-76 0 -142.5 27.5t-115.5 76.5t-77.5 117t-28.5 149t28.5 149t77.5 117t115.5 76.5t142.5 27.5t142.5 -27.5t115.5 -76.5t77 -117t28 -149t-28 -149t-77 -117t-115.5 -76.5t-142.5 -27.5zM409 152q-42 0 -75 14.5t-55.5 41.5t-34 65t-11.5 84q0 45 11.5 84
t34.5 67.5t57.5 45t79.5 16.5q61 0 106 -30q6 -5 7.5 -9t-2.5 -11l-18 -33q-4 -7 -7.5 -8t-11.5 3q-18 9 -33 13.5t-35 4.5q-48 0 -76 -35t-28 -106q0 -60 23.5 -97.5t80.5 -37.5q18 0 36.5 4.5t35.5 11.5q6 2 10.5 2t6.5 -7l14 -37q4 -11 -6 -17q-21 -13 -50.5 -21
t-59.5 -8zM401 63q58 0 108.5 22t88 61.5t59 94t21.5 119.5t-21.5 119.5t-59 94t-88 61.5t-108.5 22t-109 -22t-88.5 -61.5t-59 -94t-21.5 -119.5t21.5 -119.5t59 -94t88 -61.5t109.5 -22z" />
    <glyph glyph-name="trademark" unicode="&#x2122;" horiz-adv-x="860" 
d="M219 332q0 -15 -14 -15h-63q-14 0 -14 15v312h-97q-15 0 -15 14v48q0 14 15 14h285q15 0 15 -14v-48q0 -14 -15 -14h-97v-312zM800 331q0 -7 -2.5 -10.5t-11.5 -3.5h-59q-15 0 -15 15l-5 146q-1 30 -1.5 59.5t0.5 54.5q-8 -23 -19.5 -52t-23.5 -58l-35 -86q-3 -8 -7 -11
t-13 -3h-52q-9 0 -13 3t-7 11l-36 82q-13 29 -24 58t-19 51q1 -25 0.5 -56t-2.5 -62l-6 -137q0 -15 -15 -15h-57q-9 0 -11.5 3.5t-2.5 10.5l19 372q1 11 5.5 14t11.5 3h71q11 0 15 -3.5t8 -11.5l59 -140q11 -25 19 -45.5t13 -37.5q5 17 12.5 38.5t17.5 44.5l58 140
q4 8 8 11.5t15 3.5h71q7 0 11.5 -3t5.5 -14z" />
    <glyph glyph-name="quotedblleft" unicode="&#x201c;" horiz-adv-x="444" 
d="M368 720q19 0 16 -18l-31 -152l25 -12q11 -5 15 -11.5t4 -21.5v-77q0 -19 -20 -19h-105q-21 0 -21 19v53q0 35 5 57.5t16 51.5l41 112q5 11 9 14.5t15 3.5h31zM168 720q19 0 16 -18l-31 -152l25 -12q11 -5 15 -11.5t4 -21.5v-77q0 -19 -20 -19h-105q-21 0 -21 19v53
q0 35 5 57.5t16 51.5l41 112q5 11 9 14.5t15 3.5h31z" />
    <glyph glyph-name="quotedblright" unicode="&#x201d;" horiz-adv-x="444" 
d="M76 409q-19 0 -16 18l31 152l-25 12q-11 5 -15 11.5t-4 21.5v77q0 19 20 19h105q21 0 21 -19v-53q0 -35 -5 -57.5t-16 -51.5l-41 -112q-5 -11 -9 -14.5t-15 -3.5h-31zM276 409q-19 0 -16 18l31 152l-25 12q-11 5 -15 11.5t-4 21.5v77q0 19 20 19h105q21 0 21 -19v-53
q0 -35 -5 -57.5t-16 -51.5l-41 -112q-5 -11 -9 -14.5t-15 -3.5h-31z" />
    <glyph glyph-name="quoteleft" unicode="&#x2018;" horiz-adv-x="244" 
d="M168 720q19 0 16 -18l-31 -152l25 -12q11 -5 15 -11.5t4 -21.5v-77q0 -19 -20 -19h-105q-21 0 -21 19v53q0 35 5 57.5t16 51.5l41 112q5 11 9 14.5t15 3.5h31z" />
    <glyph glyph-name="quoteright" unicode="&#x2019;" horiz-adv-x="244" 
d="M76 409q-19 0 -16 18l31 152l-25 12q-11 5 -15 11.5t-4 21.5v77q0 19 20 19h105q21 0 21 -19v-53q0 -35 -5 -57.5t-16 -51.5l-41 -112q-5 -11 -9 -14.5t-15 -3.5h-31z" />
    <glyph glyph-name="guillemotleft" unicode="&#xab;" horiz-adv-x="531" 
d="M54 270q-5 7 -7.5 13.5t-2.5 17.5v5q0 11 2.5 17t7.5 13l124 181q9 13 15 14t18 -5l44 -23q10 -5 12 -12t-6 -19l-104 -169l104 -169q8 -12 6 -19t-12 -12l-44 -23q-12 -6 -18 -5t-15 14zM270 270q-5 7 -7.5 13.5t-2.5 17.5v5q0 11 2.5 17t7.5 13l124 181q9 13 15 14
t18 -5l44 -23q10 -5 12 -12t-6 -19l-104 -169l104 -169q8 -12 6 -19t-12 -12l-44 -23q-12 -6 -18 -5t-15 14z" />
    <glyph glyph-name="guillemotright" unicode="&#xbb;" horiz-adv-x="531" 
d="M353 89q-9 -13 -15 -14t-18 5l-44 23q-10 5 -12 12t6 19l104 169l-104 169q-8 12 -6 19t12 12l44 23q12 6 18 5t15 -14l124 -181q5 -7 7.5 -13t2.5 -17v-5q0 -11 -2.5 -17.5t-7.5 -13.5zM137 89q-9 -13 -15 -14t-18 5l-44 23q-10 5 -12 12t6 19l104 169l-104 169
q-8 12 -6 19t12 12l44 23q12 6 18 5t15 -14l124 -181q5 -7 7.5 -13t2.5 -17v-5q0 -11 -2.5 -17.5t-7.5 -13.5z" />
    <glyph glyph-name="guilsinglleft" unicode="&#x2039;" horiz-adv-x="315" 
d="M54 270q-5 7 -7.5 13.5t-2.5 17.5v5q0 11 2.5 17t7.5 13l124 181q9 13 15 14t18 -5l44 -23q10 -5 12 -12t-6 -19l-104 -169l104 -169q8 -12 6 -19t-12 -12l-44 -23q-12 -6 -18 -5t-15 14z" />
    <glyph glyph-name="guilsinglright" unicode="&#x203a;" horiz-adv-x="315" 
d="M137 89q-9 -13 -15 -14t-18 5l-44 23q-10 5 -12 12t6 19l104 169l-104 169q-8 12 -6 19t12 12l44 23q12 6 18 5t15 -14l124 -181q5 -7 7.5 -13t2.5 -17v-5q0 -11 -2.5 -17.5t-7.5 -13.5z" />
    <glyph glyph-name="quotesinglbase" unicode="&#x201a;" horiz-adv-x="244" 
d="M76 -230q-19 0 -16 18l31 152l-25 12q-11 5 -15 11.5t-4 21.5v77q0 19 20 19h105q21 0 21 -19v-53q0 -35 -5 -57.5t-16 -51.5l-41 -112q-5 -11 -9 -14.5t-15 -3.5h-31z" />
    <glyph glyph-name="quotedblbase" unicode="&#x201e;" horiz-adv-x="444" 
d="M76 -230q-19 0 -16 18l31 152l-25 12q-11 5 -15 11.5t-4 21.5v77q0 19 20 19h105q21 0 21 -19v-53q0 -35 -5 -57.5t-16 -51.5l-41 -112q-5 -11 -9 -14.5t-15 -3.5h-31zM276 -230q-19 0 -16 18l31 152l-25 12q-11 5 -15 11.5t-4 21.5v77q0 19 20 19h105q21 0 21 -19v-53
q0 -35 -5 -57.5t-16 -51.5l-41 -112q-5 -11 -9 -14.5t-15 -3.5h-31z" />
    <glyph glyph-name="arrowleft" unicode="&#x2190;" horiz-adv-x="677" 
d="M617 344q16 0 16 -17v-65q0 -17 -16 -17h-416l103 -105q9 -9 8.5 -13t-7.5 -11l-39 -40q-7 -8 -12.5 -7t-12.5 8l-177 186q-11 11 -13.5 15.5t-2.5 10.5v11q0 6 2.5 10.5t13.5 15.5l177 186q7 7 12.5 8t12.5 -7l39 -40q7 -7 7.5 -11t-8.5 -13l-103 -105h416z" />
    <glyph glyph-name="arrowup" unicode="&#x2191;" horiz-adv-x="677" 
d="M289 438l-105 -103q-9 -9 -13 -8.5t-11 7.5l-40 39q-8 7 -7 12.5t8 12.5l186 177q11 11 15.5 13.5t10.5 2.5h11q6 0 10.5 -2.5t15.5 -13.5l186 -177q7 -7 8 -12.5t-7 -12.5l-40 -39q-7 -7 -11 -7.5t-13 8.5l-105 103v-422q0 -16 -17 -16h-65q-17 0 -17 16v422z" />
    <glyph glyph-name="arrowright" unicode="&#x2192;" horiz-adv-x="677" 
d="M60 245q-16 0 -16 17v65q0 17 16 17h416l-103 105q-9 9 -8.5 13t7.5 11l39 40q7 8 12.5 7t12.5 -8l177 -186q11 -11 13.5 -15.5t2.5 -10.5v-11q0 -6 -2.5 -10.5t-13.5 -15.5l-177 -186q-7 -7 -12.5 -8t-12.5 7l-39 40q-7 7 -7.5 11t8.5 13l103 105h-416z" />
    <glyph glyph-name="arrowdown" unicode="&#x2193;" horiz-adv-x="677" 
d="M289 575q0 16 17 16h65q17 0 17 -16v-422l105 103q9 9 13 8.5t11 -7.5l40 -39q8 -7 7 -12.5t-8 -12.5l-186 -177q-11 -11 -15.5 -13.5t-10.5 -2.5h-11q-6 0 -10.5 2.5t-15.5 13.5l-186 177q-7 7 -8 12.5t7 12.5l40 39q7 7 11 7.5t13 -8.5l105 -103v422z" />
    <glyph glyph-name="uni266A" unicode="&#x266a;" horiz-adv-x="690" 
d="M216 -10q-56 0 -86 24t-30 56t29.5 56t82.5 24q24 0 50 -7t46 -20v588q0 9 11 9h31q12 0 12 -9v-25q24 -18 51 -29t53 -21q25 -9 47.5 -18t39.5 -22t27 -31t10 -46q0 -31 -20 -60.5t-57 -50.5q-7 -4 -11 2l-13 19q-4 7 2 11q32 22 32 50q0 16 -8.5 27t-22 19t-31.5 14
t-37 13q-17 5 -32.5 13t-29.5 20v-472q0 -64 -37.5 -99t-108.5 -35z" />
    <glyph glyph-name="grave" unicode="`" horiz-adv-x="350" 
d="M209 591q-8 0 -12.5 2.5t-9.5 7.5l-117 150q-5 7 -2.5 11t10.5 4h89q8 0 12 -2.5t8 -8.5l94 -151q7 -13 -6 -13h-66z" />
    <glyph glyph-name="acute" unicode="&#xb4;" horiz-adv-x="350" 
d="M75 591q-13 0 -6 13l94 151q4 6 8 8.5t12 2.5h89q8 0 10.5 -4t-2.5 -11l-117 -150q-5 -5 -9.5 -7.5t-12.5 -2.5h-66z" />
    <glyph glyph-name="dieresis" unicode="&#xa8;" horiz-adv-x="350" 
d="M20 612q-17 0 -17 16v86q0 16 17 16h87q18 0 18 -16v-86q0 -16 -18 -16h-87zM241 612q-17 0 -17 16v86q0 16 17 16h87q18 0 18 -16v-86q0 -16 -18 -16h-87z" />
    <glyph glyph-name="circumflex" unicode="&#x2c6;" horiz-adv-x="350" 
d="M332 641q5 -5 6 -10t-6 -12l-33 -33q-10 -10 -20 -1l-104 91l-105 -91q-10 -9 -20 1l-33 33q-7 7 -6 11.5t6 9.5l91 97q8 8 14.5 11.5t17.5 3.5h70q11 0 17.5 -3.5t14.5 -11.5z" />
    <glyph glyph-name="tilde" unicode="&#x2dc;" horiz-adv-x="350" 
d="M340 677q-20 -25 -47 -43t-60 -18q-19 0 -34.5 6t-29 12.5t-26.5 12.5t-27 6q-15 0 -29 -8.5t-28 -22.5q-3 -3 -6.5 -4t-8.5 4l-36 39q-8 8 1 19q20 25 47 43t60 18q19 0 34.5 -6t29 -12.5t26.5 -12.5t27 -6q15 0 29 8.5t28 22.5q3 3 6.5 4t8.5 -4l36 -39q8 -8 -1 -19z
" />
    <glyph glyph-name="macron" unicode="&#xaf;" horiz-adv-x="350" 
d="M323 649q0 -17 -16 -17h-264q-16 0 -16 17v54q0 17 16 17h264q16 0 16 -17v-54z" />
    <glyph glyph-name="breve" unicode="&#x2d8;" horiz-adv-x="350" 
d="M175 602q-67 0 -107.5 34.5t-44.5 100.5q0 8 3.5 10.5t11.5 2.5h58q12 0 14 -12q9 -59 65 -59t65 59q1 12 14 12h58q8 0 11.5 -2.5t3.5 -10.5q-4 -66 -44.5 -100.5t-107.5 -34.5z" />
    <glyph glyph-name="dotaccent" unicode="&#x2d9;" horiz-adv-x="350" 
d="M131 610q-17 0 -17 16v86q0 16 17 16h87q18 0 18 -16v-86q0 -16 -18 -16h-87z" />
    <glyph glyph-name="ring" unicode="&#x2da;" horiz-adv-x="350" 
d="M175 586q-22 0 -41.5 8t-34 22t-23 33t-8.5 40t8.5 40t23 32.5t34 21.5t41.5 8t41 -8t33.5 -21.5t23 -32t8.5 -40.5t-8.5 -40.5t-23 -32.5t-33.5 -22t-41 -8zM175 648q17 0 28 12t11 29t-11 28.5t-28 11.5t-29 -11t-12 -29t12 -29.5t29 -11.5z" />
    <glyph glyph-name="cedilla" unicode="&#xb8;" horiz-adv-x="350" 
d="M155 -233q-22 0 -42.5 4t-34.5 9q-11 4 -7 15l11 42q2 8 4.5 9.5t10.5 -0.5q11 -3 24.5 -4.5t24.5 -1.5q41 0 41 30q0 16 -10.5 23t-35.5 7q-23 0 -48 -3q-8 0 -9.5 3t-0.5 11l14 101q1 5 2.5 7t7.5 2h60q7 0 8.5 -2.5t0.5 -10.5l-4 -46h2q45 0 75 -21.5t30 -68.5
q0 -20 -7.5 -39t-22.5 -33.5t-38.5 -23.5t-55.5 -9z" />
    <glyph glyph-name="hungarumlaut" unicode="&#x2dd;" horiz-adv-x="350" 
d="M-8 595q-5 0 -8 2.5t2 10.5l81 147q7 11 21 11h80q17 0 8 -14l-105 -147q-4 -6 -7.5 -8t-11.5 -2h-60zM180 595q-5 0 -8 2.5t2 10.5l81 147q7 11 21 11h80q17 0 8 -14l-105 -147q-4 -6 -7.5 -8t-11.5 -2h-60z" />
    <glyph glyph-name="ogonek" unicode="&#x2db;" horiz-adv-x="350" 
d="M188 -230q-55 0 -87.5 29.5t-32.5 78.5q0 41 27 77t66 56q8 5 17 6.5t25 1.5h38q14 0 14 -7q0 -4 -3 -5q-53 -32 -72 -61t-19 -57q0 -20 12.5 -29t32.5 -9q9 0 20.5 2.5t20.5 6.5q6 2 8 2q6 0 9 -9l14 -40q2 -6 2 -9q0 -8 -12 -15q-17 -9 -38.5 -14t-41.5 -5z" />
    <glyph glyph-name="caron" unicode="&#x2c7;" horiz-adv-x="350" 
d="M242 605q-8 -8 -14.5 -11.5t-17.5 -3.5h-70q-11 0 -17.5 3.5t-14.5 11.5l-91 97q-5 5 -6 9.5t6 11.5l33 33q6 6 10.5 6t9.5 -5l105 -91l104 91q5 5 9.5 5t10.5 -6l33 -33q7 -7 6 -12t-6 -10z" />
    <glyph glyph-name="grave.cap" horiz-adv-x="350" 
d="M209 780q-8 0 -12.5 2.5t-9.5 7.5l-117 150q-5 7 -2.5 11t10.5 4h89q8 0 12 -2.5t8 -8.5l94 -151q7 -13 -6 -13h-66z" />
    <glyph glyph-name="acute.cap" horiz-adv-x="350" 
d="M75 780q-13 0 -6 13l94 151q4 6 8 8.5t12 2.5h89q8 0 10.5 -4t-2.5 -11l-117 -150q-5 -5 -9.5 -7.5t-12.5 -2.5h-66z" />
    <glyph glyph-name="dieresis.cap" horiz-adv-x="350" 
d="M20 791q-17 0 -17 16v86q0 16 17 16h87q18 0 18 -16v-86q0 -16 -18 -16h-87zM241 791q-17 0 -17 16v86q0 16 17 16h87q18 0 18 -16v-86q0 -16 -18 -16h-87z" />
    <glyph glyph-name="circumflex.cap" horiz-adv-x="350" 
d="M332 826q5 -5 6 -10t-6 -12l-33 -33q-10 -10 -20 -1l-104 91l-105 -91q-10 -9 -20 1l-33 33q-7 7 -6 11.5t6 9.5l91 97q8 8 14.5 11.5t17.5 3.5h70q11 0 17.5 -3.5t14.5 -11.5z" />
    <glyph glyph-name="tilde.cap" horiz-adv-x="350" 
d="M340 858q-20 -25 -47 -43t-60 -18q-19 0 -34.5 6t-29 12.5t-26.5 12.5t-27 6q-15 0 -29 -8.5t-28 -22.5q-3 -3 -6.5 -4t-8.5 4l-36 39q-8 8 1 19q20 25 47 43t60 18q19 0 34.5 -6t29 -12.5t26.5 -12.5t27 -6q15 0 29 8.5t28 22.5q3 3 6.5 4t8.5 -4l36 -39q8 -8 -1 -19z
" />
    <glyph glyph-name="macron.cap" horiz-adv-x="350" 
d="M323 835q0 -17 -16 -17h-264q-16 0 -16 17v54q0 17 16 17h264q16 0 16 -17v-54z" />
    <glyph glyph-name="breve.cap" horiz-adv-x="350" 
d="M175 778q-67 0 -107.5 34.5t-44.5 100.5q0 8 3.5 10.5t11.5 2.5h58q12 0 14 -12q9 -59 65 -59t65 59q1 12 14 12h58q8 0 11.5 -2.5t3.5 -10.5q-4 -66 -44.5 -100.5t-107.5 -34.5z" />
    <glyph glyph-name="dotaccent.cap" horiz-adv-x="350" 
d="M131 807q-17 0 -17 16v86q0 16 17 16h87q18 0 18 -16v-86q0 -16 -18 -16h-87z" />
    <glyph glyph-name="ring.cap" horiz-adv-x="350" 
d="M175 773q-22 0 -41.5 8t-34 22t-23 33t-8.5 40t8.5 40t23 32.5t34 21.5t41.5 8t41 -8t33.5 -21.5t23 -32t8.5 -40.5t-8.5 -40.5t-23 -32.5t-33.5 -22t-41 -8zM175 835q17 0 28 12t11 29t-11 28.5t-28 11.5t-29 -11t-12 -29t12 -29.5t29 -11.5z" />
    <glyph glyph-name="hungarumlaut.cap" horiz-adv-x="350" 
d="M-8 783q-5 0 -8 2.5t2 10.5l81 147q7 11 21 11h80q17 0 8 -14l-105 -147q-4 -6 -7.5 -8t-11.5 -2h-60zM180 783q-5 0 -8 2.5t2 10.5l81 147q7 11 21 11h80q17 0 8 -14l-105 -147q-4 -6 -7.5 -8t-11.5 -2h-60z" />
    <glyph glyph-name="caron.cap" horiz-adv-x="350" 
d="M242 797q-8 -8 -14.5 -11.5t-17.5 -3.5h-70q-11 0 -17.5 3.5t-14.5 11.5l-91 97q-5 5 -6 9.5t6 11.5l33 33q6 6 10.5 6t9.5 -5l105 -91l104 91q5 5 9.5 5t10.5 -6l33 -33q7 -7 6 -12t-6 -10z" />
    <glyph glyph-name="zero" unicode="0" 
d="M284 -10q-114 0 -179 88.5t-65 267.5q0 188 68 286t192 98q114 0 179 -88t65 -268q0 -187 -67.5 -285.5t-192.5 -98.5zM288 92q66 0 98 71.5t32 204.5q0 260 -122 260q-66 0 -98 -71t-32 -204q0 -261 122 -261z" />
    <glyph glyph-name="one" unicode="1" 
d="M359 720q15 0 15 -15v-608h128q15 0 15 -15v-67q0 -15 -15 -15h-390q-15 0 -15 15v67q0 15 15 15h139v493l-128 -67q-17 -9 -25 7l-28 56q-8 17 9 26l175 92q18 9 30.5 12.5t33.5 3.5h41z" />
    <glyph glyph-name="two" unicode="2" 
d="M481 104q15 0 15 -15v-74q0 -15 -15 -15h-409q-11 0 -14.5 3.5t-3.5 12.5v48q0 57 22.5 104t56.5 87t73 75t73 68t56.5 66t22.5 70q0 48 -29 71.5t-76 23.5q-40 0 -76.5 -14t-68.5 -34q-15 -9 -24 5l-31 51q-5 9 -2.5 14.5t12.5 13.5q38 29 90.5 47t106.5 18
q116 0 174 -60q23 -25 36 -58.5t13 -76.5q0 -45 -22 -85.5t-54.5 -77t-71.5 -71t-72.5 -67t-57.5 -65t-27 -65.5h303z" />
    <glyph glyph-name="three" unicode="3" 
d="M465 720q17 0 17 -16v-33q0 -14 -2 -25t-7 -21.5t-13 -22t-20 -25.5l-137 -165q45 -4 83 -18t65.5 -38.5t43 -59.5t15.5 -81q0 -56 -19.5 -98t-53.5 -70.5t-80.5 -42.5t-100.5 -14q-62 0 -116 16t-88 40q-7 5 -8.5 10.5t2.5 13.5l27 57q7 15 22 8q36 -19 74 -31.5
t83 -12.5q57 0 94.5 30t37.5 87q0 35 -12 57t-33.5 35t-51 17.5t-64.5 4.5h-41q-9 0 -12 3t-3 11v40q0 17 3 25.5t12 19.5l161 195h-249q-15 0 -15 15v74q0 15 15 15h371z" />
    <glyph glyph-name="four" unicode="4" 
d="M235 704q5 10 10 13t16 3h85q19 0 12 -17l-189 -432h167v158q0 15 15 15h92q15 0 15 -15v-158h73q15 0 15 -15v-73q0 -15 -15 -15h-73v-153q0 -15 -15 -15h-92q-15 0 -15 15v153h-280q-15 0 -15 15v41q0 18 1 28.5t8 25.5z" />
    <glyph glyph-name="five" unicode="5" 
d="M202 437q22 6 44.5 8.5t48.5 2.5q101 0 158 -60q26 -28 41.5 -67t15.5 -89q0 -59 -20 -104t-55.5 -75.5t-84.5 -46.5t-107 -16q-54 0 -102.5 13t-81.5 33q-13 8 -6 24l27 57q7 15 22 8q32 -16 68 -25t78 -9q35 0 60.5 10.5t42.5 29t25.5 43t8.5 52.5q0 68 -35.5 98
t-98.5 30q-35 0 -69 -5.5t-76 -16.5q-18 -5 -18 12v361q0 15 15 15h364q15 0 15 -15v-74q0 -15 -15 -15h-265v-179v0z" />
    <glyph glyph-name="six" unicode="6" 
d="M300 -10q-66 0 -112 24t-74.5 66.5t-41 100t-12.5 125.5q0 89 18 166.5t53.5 134.5t89.5 90t126 33q41 0 75.5 -11t62.5 -28q8 -5 9.5 -10t-4.5 -18l-24 -48q-7 -15 -24 -6q-47 22 -91 22q-40 0 -68.5 -16t-47 -44t-29 -66t-15.5 -81q28 18 65.5 29.5t73.5 11.5
q49 0 87.5 -17t65 -47t40.5 -71.5t14 -90.5q0 -51 -16.5 -96.5t-47 -79t-74.5 -53.5t-99 -20zM304 90q26 0 46.5 11.5t34.5 30.5t21.5 44.5t7.5 54.5q0 57 -26.5 96t-84.5 39q-29 0 -61 -8.5t-57 -22.5v-29q0 -46 6.5 -85.5t20.5 -68.5t36.5 -45.5t55.5 -16.5z" />
    <glyph glyph-name="seven" unicode="7" 
d="M504 720q15 0 15 -15v-47q0 -14 -3.5 -27.5t-11.5 -33.5l-239 -580q-4 -8 -9.5 -12.5t-17.5 -4.5h-90q-22 0 -13 19l259 597h-307q-15 0 -15 15v74q0 15 15 15h417z" />
    <glyph glyph-name="eight" unicode="8" 
d="M282 -11q-47 0 -90 12t-75.5 36.5t-52 61.5t-19.5 86q0 66 36 113t92 73q-42 23 -69 64t-27 102q0 44 17.5 79.5t48 60.5t71 38.5t86.5 13.5q44 0 83 -12t68 -35t46 -56t17 -75q0 -54 -31 -95.5t-77 -67.5q26 -13 50 -30t42 -40t29 -52.5t11 -66.5q0 -51 -20.5 -90.5
t-55 -66t-81.5 -40t-99 -13.5zM289 90q26 0 48.5 7t39.5 20.5t27 32.5t10 42q0 27 -13.5 46.5t-35 35t-48 27.5t-52.5 24q-43 -23 -70 -56.5t-27 -75.5q0 -25 9.5 -44t26 -32t38.5 -20t47 -7zM311 431q16 9 31 21t27 26.5t19 31t7 35.5q0 38 -28.5 62.5t-70.5 24.5
q-20 0 -38 -6.5t-31.5 -18.5t-21 -27.5t-7.5 -33.5q0 -22 9.5 -39t25 -31t36 -25t42.5 -20z" />
    <glyph glyph-name="nine" unicode="9" 
d="M396 312q-22 -18 -60.5 -29.5t-74.5 -11.5q-53 0 -93 17t-67.5 47t-41.5 70t-14 86q0 50 16 93.5t46 76t73 51t97 18.5q70 0 117 -25.5t76 -69t41.5 -100.5t12.5 -121q0 -84 -15.5 -161t-49.5 -135.5t-88 -93t-130 -34.5q-48 0 -89 10.5t-68 29.5q-8 5 -9.5 10.5
t4.5 18.5l24 48q7 15 24 6q23 -11 52 -17.5t51 -6.5q45 0 75.5 16.5t49.5 45.5t28.5 70t12.5 91zM400 422q0 45 -6.5 83t-21 65.5t-37 43.5t-54.5 16q-27 0 -48 -10.5t-35 -28t-21.5 -40.5t-7.5 -49q0 -27 6.5 -51t21 -42.5t37.5 -29t55 -10.5q27 0 57.5 9t53.5 20v24z" />
    <glyph glyph-name="dollar" unicode="$" 
d="M321 815q17 0 17 -16v-77q43 -2 83.5 -16t65.5 -31q10 -7 11 -13.5t-5 -17.5l-28 -49q-6 -10 -12 -11t-17 4q-26 13 -50 21t-48 11v-201q42 -21 77.5 -42.5t60.5 -46.5t39 -55.5t14 -69.5q0 -77 -50 -133t-141 -72v-81q0 -16 -17 -16h-37q-17 0 -17 16v79
q-66 2 -116.5 21.5t-76.5 41.5q-13 11 -4 30l25 51q11 22 32 10q32 -21 68.5 -35t71.5 -16v219q-32 16 -66 34.5t-63 43.5t-47.5 57.5t-18.5 76.5q0 41 15 74.5t41 57.5t61.5 38.5t77.5 18.5v78q0 16 17 16h37zM409 194q0 35 -21 56.5t-50 36.5v-180q29 8 50 29t21 58z
M267 617q-30 -6 -51 -24.5t-21 -53.5q0 -27 19 -47.5t53 -37.5v163z" />
    <glyph glyph-name="cent" unicode="&#xa2;" 
d="M354 633q17 0 17 -16v-92q35 -5 67 -17t56 -30q9 -7 9 -14t-5 -17l-25 -48q-5 -11 -12.5 -11.5t-15.5 4.5q-35 22 -74 29v-325q20 3 38.5 9.5t35.5 14.5q9 5 15 3.5t11 -12.5l20 -46q10 -22 -5 -29q-23 -14 -52.5 -25.5t-62.5 -16.5v-93q0 -16 -17 -16h-37q-17 0 -17 16
v90q-54 3 -95 23.5t-69 55t-42 81.5t-14 103q0 59 15.5 107t44 83t69 56t91.5 26v91q0 16 17 16h37zM202 260q0 -63 23.5 -107t74.5 -56v323q-43 -11 -70.5 -50.5t-27.5 -109.5z" />
    <glyph glyph-name="Euro" unicode="&#x20ac;" 
d="M444 259q0 -17 -16 -17h-185q14 -65 53 -104.5t113 -39.5q33 0 62 7.5t54 16.5q11 4 17 3t10 -9l26 -55q5 -11 3 -17.5t-11 -11.5q-37 -20 -83 -31t-98 -11q-114 0 -184 67t-92 185h-65q-16 0 -16 17v48q0 17 16 17h56v28v19.5t1 19.5h-51q-16 0 -16 17v48q0 17 16 17h62
q12 57 36 104.5t59.5 81t82.5 52.5t106 19q58 0 99.5 -13t71.5 -35q16 -12 8 -29l-28 -51q-12 -20 -29 -10q-30 17 -53.5 25t-58.5 8q-131 0 -167 -152h191q16 0 16 -17v-48q0 -17 -16 -17h-201q-1 -8 -1 -17v-17v-33h196q16 0 16 -17v-48z" />
    <glyph glyph-name="florin" unicode="&#x192;" 
d="M504 372q0 -17 -16 -17h-132l-31 -233q-7 -54 -22.5 -97t-41 -73t-62.5 -46t-88 -16q-47 0 -90 17q-8 3 -10 8t1 16l16 55q3 11 8.5 13t13.5 0q17 -4 30 -6t24 -2q50 0 71.5 31t30.5 99l31 234h-81q-16 0 -16 17v60q0 17 16 17h93l8 54q6 49 21.5 90.5t41.5 72t63.5 47.5
t89.5 17q47 0 90 -17q8 -3 10 -8t-1 -16l-16 -55q-3 -11 -8.5 -13t-13.5 0q-17 4 -30 6t-24 2q-50 0 -73 -32t-31 -94l-8 -54h120q16 0 16 -17v-60z" />
    <glyph glyph-name="sterling" unicode="&#xa3;" 
d="M159 421v64q0 55 14 100.5t42 77.5t70 49.5t99 17.5q36 0 76 -9.5t69 -25.5q9 -5 11 -10.5t-3 -17.5l-21 -51q-5 -11 -9.5 -12.5t-14.5 3.5q-23 10 -48.5 16t-52.5 6q-60 0 -85 -36t-25 -98v-74h170q16 0 16 -17v-59q0 -17 -16 -17h-170v-58q0 -68 -15.5 -106.5
t-44.5 -61.5h293q16 0 16 -17v-68q0 -17 -16 -17h-421q-16 0 -16 17v58q0 9 2.5 14.5t13.5 12.5q38 25 52 62.5t14 96.5v67h-67q-16 0 -16 17v59q0 17 16 17h67z" />
    <glyph glyph-name="yen" unicode="&#xa5;" 
d="M496 147q0 -17 -16 -17h-127v-111q0 -19 -20 -19h-87q-20 0 -20 19v111h-127q-16 0 -16 17v48q0 17 16 17h127v57h-127q-16 0 -16 17v48q0 17 16 17h93l-164 349q-5 9 -1 14.5t14 5.5h85q15 0 22.5 -4t12.5 -15l61 -132q10 -22 21 -46t20.5 -47t18 -42.5t13.5 -32.5
q10 27 28.5 71t42.5 97l61 133q5 11 12 14.5t21 3.5h82q10 0 14 -5.5t-1 -14.5l-168 -349h93q16 0 16 -17v-48q0 -17 -16 -17h-127v-57h127q16 0 16 -17v-48z" />
    <glyph glyph-name="uni20B9" unicode="&#x20b9;" 
d="M441 447q-6 -37 -25 -68t-46.5 -53t-62.5 -34.5t-74 -13.5l259 -257q8 -8 4.5 -14.5t-14.5 -6.5h-97q-15 0 -23 2.5t-16 10.5l-246 234q-14 13 -18.5 23t-4.5 29v45q0 19 19 19h83q54 0 93 21t48 63h-224q-19 0 -13 19l19 60q3 9 7.5 12t14.5 3h196q-3 19 -9.5 31.5
t-16.5 23.5q-14 14 -35 19.5t-49 5.5h-131q-21 0 -15 19l22 65q3 10 8 12.5t16 2.5h404q21 0 15 -19l-22 -65q-3 -10 -8 -12.5t-16 -2.5h-91q16 -13 28.5 -34t18.5 -46h89q21 0 15 -19l-22 -60q-3 -10 -8 -12.5t-16 -2.5h-56z" />
    <glyph glyph-name="uni20AE" unicode="&#x20ae;" 
d="M355 617v-124l111 50q12 5 12 -5v-58q0 -8 -1.5 -13t-8.5 -8l-113 -52v-84l111 50q12 7 12 -5v-57q0 -8 -1.5 -13t-8.5 -8l-113 -52v-219q0 -19 -20 -19h-87q-20 0 -20 19v161l-113 -51q-12 -5 -12 5v59q0 16 10 21l115 52v83l-113 -51q-12 -5 -12 5v60q0 8 1.5 13t8.5 8
l115 52v181h-167q-20 0 -20 19v65q0 19 20 19h461q20 0 20 -19v-65q0 -19 -20 -19h-167z" />
    <glyph glyph-name="uni20B1" unicode="&#x20b1;" 
d="M88 0q-20 0 -20 19v372h-45q-16 0 -16 17v34q0 17 16 17h45v54h-45q-16 0 -16 17v34q0 17 16 17h45v120q0 19 20 19h143q69 0 129 -12.5t102 -50.5q32 -31 49 -76h52q16 0 16 -17v-34q0 -17 -16 -17h-40q1 -6 1 -13.5v-12.5q0 -8 -0.5 -15.5t-1.5 -12.5h41q16 0 16 -17
v-34q0 -17 -16 -17h-57q-6 -15 -13.5 -29.5t-17.5 -26.5q-32 -41 -83 -63t-124 -22h-73v-231q0 -19 -20 -19h-87zM399 487v14t-1 12h-203v-54h202q1 5 1.5 12t0.5 16zM267 340q43 0 69.5 11.5t41.5 39.5h-183v-51h72zM195 629v-48h185q-15 26 -49.5 37t-78.5 11h-57z" />
    <glyph glyph-name="won" unicode="&#x20a9;" horiz-adv-x="968" 
d="M624 441h128l62 260q3 11 8.5 15t18.5 4h80q21 0 15 -22l-67 -257h67q16 0 16 -17v-34q0 -17 -16 -17h-85l-15 -57h100q16 0 16 -17v-34q0 -17 -16 -17h-118l-59 -226q-4 -13 -10 -17.5t-20 -4.5h-95q-13 0 -19 4.5t-9 16.5l-55 227h-125l-53 -227q-3 -13 -9.5 -17
t-18.5 -4h-93q-14 0 -20.5 4.5t-9.5 16.5l-63 227h-115q-16 0 -16 17v34q0 17 16 17h97l-16 57h-81q-16 0 -16 17v34q0 17 16 17h63l-71 257q-6 22 15 22h90q11 0 17.5 -4t9.5 -15l64 -260h129l60 259q3 13 8.5 16.5t19.5 3.5h86q14 0 19.5 -3.5t8.5 -16.5zM723 316
q4 14 7 28.5t6 28.5h-96q3 -14 6.5 -28t6.5 -29h70zM345 373h-96q4 -14 7.5 -28.5t6.5 -28.5h70zM442 316h92l-13 57h-66l-12 -54zM688 125q4 27 9 59t12 64h-42q6 -32 11 -64.5t10 -58.5zM319 248h-41q6 -29 11.5 -58.5t10.5 -55.5zM488 554q-4 -26 -9 -55.5t-10 -57.5h38
q-6 28 -10.5 57.5t-8.5 55.5z" />
    <glyph glyph-name="lira" unicode="&#x20a4;" 
d="M280 237q-4 -52 -19 -83.5t-40 -51.5h293q16 0 16 -17v-68q0 -17 -16 -17h-421q-16 0 -16 17v58q0 9 2.5 14.5t13.5 12.5q34 22 48.5 54.5t16.5 80.5h-71q-16 0 -16 17v48q0 17 16 17h72v68h-72q-16 0 -16 17v46q0 17 16 17h72v18q0 55 14 100.5t42 77.5t70 49.5t99 17.5
q36 0 76 -9.5t69 -25.5q9 -5 11 -10.5t-3 -17.5l-21 -51q-5 -11 -9.5 -12.5t-14.5 3.5q-23 10 -48.5 16t-52.5 6q-60 0 -85 -36t-25 -98v-28h172q16 0 16 -17v-46q0 -17 -16 -17h-172v-68h172q16 0 16 -17v-48q0 -17 -16 -17h-173z" />
    <glyph glyph-name="uni20B4" unicode="&#x20b4;" 
d="M415 387q-21 -18 -45 -34.5t-47 -33.5h206q16 0 16 -17v-48q0 -17 -16 -17h-288q-16 -29 -16 -58q0 -37 25 -60t75 -23q35 0 66 8.5t60 24.5q9 5 16.5 4.5t12.5 -10.5l22 -59q7 -19 -8 -27q-39 -22 -85.5 -34.5t-101.5 -12.5q-54 0 -93 13.5t-64.5 37.5t-37.5 56.5
t-12 70.5q0 37 12 69h-58q-16 0 -16 17v48q0 17 16 17h111q18 19 39 35.5t42 32.5h-192q-16 0 -16 17v46q0 17 16 17h286q13 17 20 35t7 40q0 37 -26.5 60.5t-77.5 23.5q-33 0 -67 -8.5t-62 -25.5q-20 -12 -29 7l-22 51q-9 21 8 31q33 19 83 34t110 15q45 0 84 -11.5
t67 -33.5t44 -55.5t16 -76.5q0 -48 -20 -86h54q16 0 16 -17v-46q0 -17 -16 -17h-114z" />
    <glyph glyph-name="dong" unicode="&#x20ab;" 
d="M344 578h-138q-8 0 -11 3t-3 12v41q0 8 3 10.5t11 2.5h138v59q0 14 15 14h91q15 0 15 -14v-59h37q8 0 11 -2.5t3 -10.5v-41q0 -9 -3 -12t-11 -3h-37v-359q0 -12 7.5 -15.5t18.5 -3.5q13 0 13 -15v-55q0 -7 -3 -9.5t-10 -5.5q-13 -5 -29.5 -7t-30.5 -2q-25 0 -45.5 10.5
t-29.5 32.5q-19 -23 -49 -37t-66 -14q-39 0 -73 15t-59 42.5t-39.5 67.5t-14.5 90q0 53 15 95t40.5 70.5t60.5 43.5t74 15q24 0 51.5 -7t47.5 -22v70zM344 412q-13 14 -34 21t-41 7q-37 0 -64.5 -30.5t-27.5 -97.5q0 -54 23.5 -86.5t65.5 -32.5q33 0 55.5 19t22.5 61v139z
M84 0q-16 0 -16 17v35q0 17 16 17h405q16 0 16 -17v-35q0 -17 -16 -17h-405z" />
    <glyph glyph-name="uni20BA" unicode="&#x20ba;" 
d="M269 423v-71l148 74q12 7 12 -5v-57q0 -8 -1.5 -13t-8.5 -8l-150 -76v-159q73 13 115.5 51t62.5 91q6 14 20 8l70 -26q13 -4 7 -20q-20 -52 -54 -91.5t-78 -66.5t-96.5 -40.5t-109.5 -13.5h-39q-25 0 -25 26v177l-86 -43q-12 -5 -12 5v59q0 16 10 21l88 44v70l-86 -43
q-12 -5 -12 5v60q0 16 10 21l88 44v255q0 19 20 19h87q20 0 20 -19v-192l148 74q12 5 12 -5v-58q0 -8 -1.5 -13t-8.5 -8z" />
    <glyph glyph-name="uni0E3F" unicode="&#xe3f;" 
d="M331 714q74 -11 119 -44q29 -22 45 -55.5t16 -79.5q0 -48 -22.5 -87t-70.5 -65q61 -23 95.5 -64t34.5 -107q0 -50 -16 -87t-45 -62.5t-68.5 -40t-87.5 -19.5v-84q0 -16 -17 -16h-37q-17 0 -17 16v81h-168q-20 0 -20 19v682q0 19 20 19h168v79q0 16 17 16h37q17 0 17 -16
v-85zM418 210q0 46 -22.5 71.5t-64.5 34.5v-209q37 8 62 31t25 72zM260 101v221h-61v-221h61zM260 419v199h-61v-199h61zM355 592q-11 10 -24 14v-172q51 26 51 88q0 25 -7 42t-20 28z" />
    <glyph glyph-name="numbersign" unicode="#" 
d="M310 73q-10 0 -12.5 4t-0.5 12l27 132h-124l-29 -134q-2 -8 -5.5 -11t-14.5 -3h-61q-10 0 -12.5 4t-0.5 12l28 132h-54q-16 0 -16 17v51q0 17 16 17h73l23 111h-54q-16 0 -16 17v51q0 17 16 17h71l28 131q2 8 5.5 11t14.5 3h60q10 0 12.5 -4t0.5 -12l-27 -129h125l29 131
q2 8 5.5 11t14.5 3h60q10 0 12.5 -4t0.5 -12l-28 -129h54q16 0 16 -17v-51q0 -17 -16 -17h-71l-24 -111h54q16 0 16 -17v-51q0 -17 -16 -17h-72l-28 -134q-2 -8 -5.5 -11t-14.5 -3h-60zM240 417l-23 -111h125l23 111h-125z" />
    <glyph glyph-name="percent" unicode="%" horiz-adv-x="939" 
d="M219 319q-37 0 -68 12t-53.5 37t-35 62t-12.5 87q0 105 48 159t129 54q37 0 68 -12t53.5 -37t35 -62t12.5 -87q0 -105 -48 -159t-129 -54zM220 400q37 0 55.5 33t18.5 95q0 63 -18 92t-50 29q-36 0 -55 -32.5t-19 -95.5q0 -121 68 -121zM712 -10q-37 0 -68 12t-53.5 37
t-35 62t-12.5 87q0 105 48 159t129 54q37 0 68 -12t53.5 -37t35 -62t12.5 -87q0 -105 -48 -159t-129 -54zM713 71q37 0 55.5 33t18.5 95q0 63 -18 92t-50 29q-36 0 -55 -32.5t-19 -95.5q0 -121 68 -121zM364 9q-4 -8 -7.5 -11.5t-12.5 -3.5h-75q-8 0 -12 4t0 12l322 702
q4 8 7.5 11.5t12.5 3.5h75q8 0 12 -4t0 -12z" />
    <glyph glyph-name="perthousand" unicode="&#x2030;" horiz-adv-x="1329" 
d="M219 319q-37 0 -68 12t-53.5 37t-35 62t-12.5 87q0 105 48 159t129 54q37 0 68 -12t53.5 -37t35 -62t12.5 -87q0 -105 -48 -159t-129 -54zM220 400q37 0 55.5 33t18.5 95q0 63 -18 92t-50 29q-36 0 -55 -32.5t-19 -95.5q0 -121 68 -121zM712 -10q-37 0 -68 12t-53.5 37
t-35 62t-12.5 87q0 105 48 159t129 54q37 0 68 -12t53.5 -37t35 -62t12.5 -87q0 -105 -48 -159t-129 -54zM713 71q37 0 55.5 33t18.5 95q0 63 -18 92t-50 29q-36 0 -55 -32.5t-19 -95.5q0 -121 68 -121zM364 9q-4 -8 -7.5 -11.5t-12.5 -3.5h-75q-8 0 -12 4t0 12l322 702
q4 8 7.5 11.5t12.5 3.5h75q8 0 12 -4t0 -12zM1102 -10q-37 0 -68 12t-53.5 37t-35 62t-12.5 87q0 105 48 159t129 54q37 0 68 -12t53.5 -37t35 -62t12.5 -87q0 -105 -48 -159t-129 -54zM1103 71q37 0 55.5 33t18.5 95q0 63 -18 92t-50 29q-36 0 -55 -32.5t-19 -95.5
q0 -121 68 -121z" />
    <glyph glyph-name="plus" unicode="+" horiz-adv-x="582" 
d="M339 402h186q16 0 16 -17v-63q0 -17 -16 -17h-186v-189q0 -16 -17 -16h-63q-17 0 -17 16v189h-185q-16 0 -16 17v63q0 17 16 17h185v188q0 16 17 16h63q17 0 17 -16v-188z" />
    <glyph glyph-name="minus" unicode="&#x2212;" horiz-adv-x="582" 
d="M57 305q-16 0 -16 17v63q0 17 16 17h468q16 0 16 -17v-63q0 -17 -16 -17h-468z" />
    <glyph glyph-name="multiply" unicode="&#xd7;" horiz-adv-x="582" 
d="M290 422l132 131q12 12 23 -1l45 -44q11 -13 0 -23l-131 -132l134 -134q10 -10 -1 -23l-45 -45q-12 -12 -23 0l-134 133l-131 -130q-10 -12 -23 0l-44 45q-13 11 -1 23l131 131l-133 133q-12 11 0 23l45 45q13 11 23 1z" />
    <glyph glyph-name="less" unicode="&#x3c;" horiz-adv-x="582" 
d="M55 376q0 11 3 16t10 9l402 234q16 10 24 -5l28 -55q10 -19 -5 -27l-339 -193l339 -193q15 -8 5 -27l-28 -55q-8 -15 -24 -5l-402 234q-7 4 -10 9t-3 16v42z" />
    <glyph glyph-name="divide" unicode="&#xf7;" horiz-adv-x="582" 
d="M57 305q-16 0 -16 17v63q0 17 16 17h468q16 0 16 -17v-63q0 -17 -16 -17h-468zM242 71q-20 0 -20 19v96q0 19 20 19h97q21 0 21 -19v-96q0 -19 -21 -19h-97zM242 502q-20 0 -20 19v96q0 19 20 19h97q21 0 21 -19v-96q0 -19 -21 -19h-97z" />
    <glyph glyph-name="equal" unicode="=" horiz-adv-x="582" 
d="M57 418q-16 0 -16 17v63q0 17 16 17h468q16 0 16 -17v-63q0 -17 -16 -17h-468zM57 192q-16 0 -16 17v63q0 17 16 17h468q16 0 16 -17v-63q0 -17 -16 -17h-468z" />
    <glyph glyph-name="logicalnot" unicode="&#xac;" horiz-adv-x="582" 
d="M541 208q0 -16 -17 -16h-63q-17 0 -17 16v210h-387q-16 0 -16 17v63q0 17 16 17h468q16 0 16 -17v-290z" />
    <glyph glyph-name="greater" unicode="&#x3e;" horiz-adv-x="582" 
d="M527 334q0 -11 -3 -16t-10 -9l-402 -234q-16 -10 -24 5l-28 55q-10 19 5 27l339 193l-339 193q-15 8 -5 27l28 55q8 15 24 5l402 -234q7 -4 10 -9t3 -16v-42z" />
    <glyph glyph-name="notequal" unicode="&#x2260;" horiz-adv-x="582" 
d="M161 192h-104q-16 0 -16 17v63q0 17 16 17h154l66 129h-220q-16 0 -16 17v63q0 17 16 17h270l51 98q3 6 6.5 8.5t11.5 2.5h74q5 0 7 -3.5t-1 -9.5l-50 -96h99q16 0 16 -17v-63q0 -17 -16 -17h-149l-66 -129h215q16 0 16 -17v-63q0 -17 -16 -17h-265l-50 -97
q-3 -6 -6.5 -8.5t-11.5 -2.5h-74q-5 0 -7 3.5t1 9.5z" />
    <glyph glyph-name="approxequal" unicode="&#x2248;" horiz-adv-x="582" 
d="M397 469q48 0 65 56q2 8 6 11t14 1l46 -11q11 -3 13 -7.5t0 -11.5q-12 -57 -51.5 -91.5t-95.5 -34.5q-39 0 -67 12t-51.5 26t-45 26t-46.5 12q-48 0 -65 -56q-2 -8 -6 -11t-14 -1l-46 11q-11 3 -13 7.5t0 11.5q12 57 51.5 91.5t95.5 34.5q37 0 65 -12t52 -26t46 -26
t47 -12zM397 243q48 0 65 56q2 8 6 11t14 1l46 -11q11 -3 13 -7.5t0 -11.5q-12 -57 -51.5 -91.5t-95.5 -34.5q-39 0 -67 12t-51.5 26t-45 26t-46.5 12q-48 0 -65 -56q-2 -8 -6 -11t-14 -1l-46 11q-11 3 -13 7.5t0 11.5q12 57 51.5 91.5t95.5 34.5q37 0 65 -12t52 -26t46 -26
t47 -12z" />
    <glyph glyph-name="plusminus" unicode="&#xb1;" horiz-adv-x="582" 
d="M339 501h186q16 0 16 -17v-63q0 -17 -16 -17h-186v-189q0 -16 -17 -16h-63q-17 0 -17 16v189h-185q-16 0 -16 17v63q0 17 16 17h185v188q0 16 17 16h63q17 0 17 -16v-188zM57 0q-16 0 -16 17v63q0 17 16 17h468q16 0 16 -17v-63q0 -17 -16 -17h-468z" />
    <glyph glyph-name="lessequal" unicode="&#x2264;" horiz-adv-x="582" 
d="M57 0q-16 0 -16 17v63q0 17 16 17h468q16 0 16 -17v-63q0 -17 -16 -17h-468zM54 465q0 11 3 16t10 9l402 234q16 10 24 -5l28 -55q10 -19 -5 -27l-339 -193l339 -193q15 -8 5 -27l-28 -55q-8 -15 -24 -5l-402 234q-7 4 -10 9t-3 16v42z" />
    <glyph glyph-name="greaterequal" unicode="&#x2265;" horiz-adv-x="582" 
d="M57 0q-16 0 -16 17v63q0 17 16 17h468q16 0 16 -17v-63q0 -17 -16 -17h-468zM528 423q0 -11 -3 -16t-10 -9l-402 -234q-16 -10 -24 5l-28 55q-10 19 5 27l339 193l-339 193q-15 8 -5 27l28 55q8 15 24 5l402 -234q7 -4 10 -9t3 -16v-42z" />
    <glyph glyph-name="asciicircum" unicode="^" horiz-adv-x="582" 
d="M525 339q3 -7 1 -13t-12 -6h-77q-10 0 -14 2t-8 10l-123 271l-124 -271q-4 -8 -8 -10t-14 -2h-77q-10 0 -12.5 6t1.5 13l177 370q4 8 7.5 11.5t14.5 3.5h71q11 0 14.5 -3.5t7.5 -11.5z" />
    <glyph glyph-name="asciitilde" unicode="~" 
d="M398 385q48 0 65 56q2 8 6 11t14 1l46 -11q11 -3 13 -7.5t0 -11.5q-12 -57 -51.5 -91.5t-95.5 -34.5q-39 0 -67 12t-51.5 26t-45 26t-46.5 12q-48 0 -65 -56q-2 -8 -6 -11t-14 -1l-46 11q-11 3 -13 7.5t0 11.5q12 57 51.5 91.5t95.5 34.5q37 0 65 -12t52 -26t46 -26
t47 -12z" />
    <glyph glyph-name="lozenge" unicode="&#x25ca;" horiz-adv-x="600" 
d="M574 353q0 -14 -1.5 -21t-8.5 -17l-218 -305q-8 -10 -21 -10h-50q-7 0 -11.5 2t-9.5 8l-218 305q-7 10 -8.5 17t-1.5 21v14q0 14 1.5 21t8.5 17l218 305q5 6 9.5 8t11.5 2h50q13 0 21 -10l218 -305q7 -10 8.5 -17t1.5 -21v-14zM300 591l-165 -231l165 -231l165 231z" />
    <glyph glyph-name="degree" unicode="&#xb0;" horiz-adv-x="353" 
d="M173 446q-62 0 -101.5 35t-39.5 104q0 66 41 105.5t107 39.5q63 0 102.5 -35t39.5 -104q0 -66 -41 -105.5t-108 -39.5zM174 513q32 0 51 20t19 57q0 35 -17 54t-49 19t-51 -20.5t-19 -55.5t17 -54.5t49 -19.5z" />
    <glyph glyph-name="quotesingle" unicode="'" horiz-adv-x="235" 
d="M89 441q-11 0 -14.5 4.5t-3.5 12.5l-11 245q0 8 3.5 12.5t14.5 4.5h79q11 0 14.5 -4.5t3.5 -12.5l-12 -245q-1 -8 -4 -12.5t-14 -4.5h-56z" />
    <glyph glyph-name="quotedbl" unicode="&#x22;" horiz-adv-x="423" 
d="M89 441q-11 0 -14.5 4.5t-3.5 12.5l-11 245q0 8 3.5 12.5t14.5 4.5h79q11 0 14.5 -4.5t3.5 -12.5l-12 -245q-1 -8 -4 -12.5t-14 -4.5h-56zM277 441q-11 0 -14.5 4.5t-3.5 12.5l-11 245q0 8 3.5 12.5t14.5 4.5h79q11 0 14.5 -4.5t3.5 -12.5l-12 -245q-1 -8 -4 -12.5
t-14 -4.5h-56z" />
    <glyph glyph-name="radical" unicode="&#x221a;" horiz-adv-x="655" 
d="M58 544q0 11 3.5 15t13.5 4h121q15 0 22.5 -5t12.5 -22l121 -371l224 734q4 15 17 15h87q19 0 15 -15l-285 -887q-2 -6 -6.5 -9t-13.5 -3h-83q-16 0 -20 12l-155 456h-57q-10 0 -13.5 4t-3.5 15v57z" />
    <glyph glyph-name="currency" unicode="&#xa4;" 
d="M480 368q0 -94 -43 -149l72 -124q8 -13 -7 -13h-72q-11 0 -15 2t-9 10l-42 71q-33 -13 -79 -13q-42 0 -74 13l-42 -71q-5 -8 -9.5 -10t-13.5 -2h-73q-5 0 -8 3.5t1 9.5l73 125q-36 51 -36 132q0 94 43 149l-72 124q-8 13 7 13h72q11 0 15 -2t9 -10l42 -71q33 13 79 13
q42 0 74 -13l42 71q5 8 9.5 10t13.5 2h73q5 0 8 -3.5t-1 -9.5l-73 -125q36 -51 36 -132zM372 363q0 47 -17.5 78.5t-59.5 31.5q-39 0 -61.5 -29t-22.5 -87q0 -47 17.5 -78.5t59.5 -31.5q39 0 61.5 29t22.5 87z" />
    <glyph glyph-name="infinity" unicode="&#x221e;" horiz-adv-x="815" 
d="M217 159q-34 0 -64 11t-53 32t-36.5 51.5t-13.5 69.5q0 37 12.5 67.5t35 52.5t53.5 34t68 12q55 0 100.5 -26t89.5 -74q38 41 84 69.5t103 28.5q36 0 67 -11t53.5 -31.5t35.5 -50.5t13 -69q0 -41 -14 -71.5t-38 -51t-55 -31t-65 -10.5q-51 0 -93.5 23t-90.5 74
q-38 -43 -85.5 -71t-106.5 -28zM225 252q37 0 65.5 21t53.5 52q-27 31 -55 53t-66 22q-35 0 -56.5 -20t-21.5 -54q0 -35 23 -54.5t57 -19.5zM583 252q39 0 61.5 21.5t22.5 54.5q0 34 -25.5 52t-57.5 18q-36 0 -62.5 -21.5t-50.5 -51.5q34 -39 58 -56t54 -17z" />
    <glyph glyph-name="uni00B5" unicode="&#xb5;" horiz-adv-x="591" 
d="M406 54q-24 -28 -64 -46t-88 -18q-36 0 -64 13v-228q0 -17 -17 -17h-86q-17 0 -17 17v737q0 16 17 16h86q17 0 17 -16v-265q0 -27 1 -46.5t3 -33.5t6.5 -24t10.5 -18q23 -26 76 -26q21 0 43.5 6t37.5 17q14 9 20 22.5t8 36.5q2 19 2 48.5v63.5v219q0 16 18 16h85
q17 0 17 -16v-313q0 -32 1 -62t2 -55t2 -42.5t1 -23.5q0 -16 -18 -16h-77q-10 0 -13.5 3.5t-5.5 12.5l-4 38v0z" />
    <glyph glyph-name="Ohm" unicode="&#x2126;" horiz-adv-x="756" 
d="M378 623q-41 0 -75.5 -16.5t-59 -48.5t-38 -79.5t-13.5 -108.5q0 -107 40.5 -178.5t102.5 -104.5q9 -5 11.5 -11.5t2.5 -26.5v-31q0 -8 -3.5 -13t-14.5 -5h-251q-20 0 -20 19v62q0 19 20 19h102q-24 19 -45.5 47.5t-38 64t-26 77t-9.5 86.5q0 83 24 149t66 111.5t99.5 70
t125.5 24.5t125.5 -24.5t99.5 -70t66 -111.5t24 -149q0 -45 -9.5 -86.5t-26 -77t-38 -64t-45.5 -47.5h102q20 0 20 -19v-62q0 -19 -20 -19h-251q-11 0 -14.5 5t-3.5 13v31q0 20 2.5 26.5t11.5 11.5q62 33 102.5 104.5t40.5 178.5q0 61 -13.5 108.5t-38 79.5t-59 48.5
t-75.5 16.5z" />
    <glyph glyph-name="glyph190" unicode="&#x2206;" horiz-adv-x="646" 
d="M371 720q10 0 14.5 -4t7.5 -13l216 -595q9 -26 9 -50v-44q0 -5 -1.5 -9.5t-11.5 -4.5h-562q-15 0 -15 14v44q0 14 2 25t7 25l217 595q3 9 7.5 13t14.5 4h95zM474 108l-154 460l-155 -460h309z" />
    <glyph glyph-name="partialdiff" unicode="&#x2202;" 
d="M283 -10q-55 0 -99 20t-74.5 53.5t-47 79t-16.5 96.5q0 49 14 90.5t40.5 71.5t65 47t87.5 17q36 0 73.5 -11.5t65.5 -29.5q-5 43 -15.5 81t-29.5 66t-47 44t-68 16q-44 0 -91 -22q-17 -9 -24 6l-24 48q-6 13 -4.5 18t9.5 10q28 17 62.5 28t75.5 11q72 0 126 -33t89.5 -90
t53.5 -134.5t18 -166.5q0 -68 -13 -125.5t-41.5 -100t-74 -66.5t-111.5 -24zM279 90q33 0 55.5 16.5t36.5 45.5t20.5 68.5t6.5 85.5v29q-25 14 -57 22.5t-61 8.5t-50 -10.5t-34.5 -28.5t-20 -43t-6.5 -53q0 -29 7.5 -54.5t21.5 -44.5t34.5 -30.5t46.5 -11.5z" />
    <glyph glyph-name="summation" unicode="&#x2211;" horiz-adv-x="581" 
d="M542 -64q20 0 20 -19v-65q0 -19 -20 -19h-494q-16 0 -16 14v47q0 14 4.5 22t15.5 22l275 336l-273 329q-11 13 -15.5 21.5t-4.5 22.5v57q0 16 15 16h486q20 0 20 -19v-65q0 -19 -20 -19h-335l242 -291q4 -4 6.5 -10.5t2.5 -20.5v-24q0 -23 -10 -34l-244 -301h345z" />
    <glyph glyph-name="product" unicode="&#x220f;" horiz-adv-x="751" 
d="M498 617h-247v-765q0 -19 -20 -19h-87q-20 0 -20 19v765h-80q-20 0 -20 19v65q0 19 20 19h663q20 0 20 -19v-65q0 -19 -20 -19h-82v-765q0 -19 -20 -19h-87q-20 0 -20 19v765z" />
    <glyph glyph-name="integral" unicode="&#x222b;" horiz-adv-x="370" 
d="M37 -136q-8 3 -9.5 9.5t1.5 20.5l10 47q2 10 5 14.5t12 2.5q20 -5 42 -5q41 0 56.5 26.5t15.5 72.5q0 54 -13.5 110t-30 114.5t-30 119.5t-13.5 126q0 46 11.5 84.5t34 66t56.5 42.5t79 15q39 0 69 -11q8 -3 9.5 -9.5t-1.5 -20.5l-10 -47q-2 -10 -5 -14.5t-12 -2.5t-19 3
t-21 1q-42 0 -57 -26t-15 -72q0 -56 13.5 -113t30 -116t30.5 -120t14 -124q0 -45 -11.5 -83t-35 -65t-57.5 -42t-79 -15q-19 0 -36.5 2.5t-33.5 8.5z" />
    <glyph glyph-name="litre" unicode="&#x2113;" horiz-adv-x="278" 
d="M187 -4q-26 0 -47.5 7.5t-38.5 25.5q-31 34 -31 120v349q0 72 -1 118.5t-2.5 75t-2.5 41.5t-1 18q0 15 18 15h80q18 0 21 -16q2 -10 3.5 -37t2.5 -65.5t1.5 -87t0.5 -100.5v-327q0 -22 7 -32t24 -10h10q9 0 11 -3.5t2 -13.5v-47q0 -16 -11 -21q-8 -4 -19.5 -7t-26.5 -3z
" />
    <glyph glyph-name="estimated" unicode="&#x212e;" horiz-adv-x="922" 
d="M462 -10q-85 0 -160 29t-131 79.5t-88.5 117.5t-32.5 144t32.5 144.5t88.5 117.5t131 79t160 29t159.5 -29t130 -79t88 -117.5t32.5 -144.5v-8h-666q-5 0 -5 -6v-202q0 -12 9 -24q48 -48 113 -78t140 -30q80 0 148 32.5t116 89.5h60q-57 -66 -141 -105t-184 -39zM716 371
q5 0 5 6v203q0 13 -10 25q-48 48 -112 75.5t-136 27.5q-75 0 -139 -29t-113 -77q-10 -10 -10 -26v-199q0 -6 5 -6h510z" />
    <glyph glyph-name="numero" unicode="&#x2116;" horiz-adv-x="1106" 
d="M872 251q-87 0 -134.5 52.5t-47.5 148.5q0 104 51 160t144 56q86 0 134 -52.5t48 -148.5q0 -104 -51.5 -160t-143.5 -56zM874 346q40 0 62.5 29t22.5 88q0 47 -17.5 78.5t-59.5 31.5q-39 0 -62 -29t-23 -87q0 -47 18 -79t59 -32zM304 325q-23 36 -40.5 64t-31 51t-24 42
t-19.5 37q1 -21 2 -49t2 -58.5t1 -61.5v-57v-274q0 -19 -20 -19h-78q-20 0 -20 19v682q0 19 20 19h69q15 0 22 -4t14 -14l194 -307q22 -36 39 -62.5t30.5 -49t24.5 -42t21 -40.5q-1 21 -2 49t-1.5 58t-0.5 60.5v57.5v275q0 19 20 19h78q20 0 20 -19v-682q0 -19 -20 -19h-69
q-15 0 -22 4t-13 14z" />
    <glyph glyph-name="ordfeminine" unicode="&#xaa;" horiz-adv-x="393" 
d="M347 442q0 -36 2 -68.5t2 -54.5q0 -14 -14 -14h-57q-11 0 -13 11l-4 29q-14 -21 -40.5 -34t-55.5 -13q-30 0 -55 11.5t-44 34t-29.5 55t-10.5 74.5q0 46 12 81.5t32.5 59.5t47 36.5t55.5 12.5t51.5 -9.5t37.5 -25.5q5 19 8.5 23.5t12.5 4.5h49q9 0 11.5 -3t2.5 -9z
M251 556q-9 13 -24.5 20.5t-31.5 7.5q-34 0 -51.5 -29t-17.5 -76q0 -42 15 -72t52 -30q24 0 41 17.5t17 65.5v96z" />
    <glyph glyph-name="ordmasculine" unicode="&#xba;" horiz-adv-x="387" 
d="M196 584q-31 0 -51.5 -25t-20.5 -82q0 -43 16 -71.5t51 -28.5q30 0 51 25t21 82q0 42 -16 71t-51 29zM199 663q78 0 120 -45t42 -130q0 -93 -45.5 -141.5t-127.5 -48.5q-77 0 -119.5 44t-42.5 131q0 93 45.5 141.5t127.5 48.5z" />
    <glyph glyph-name="onesuperior" unicode="&#xb9;" horiz-adv-x="309" 
d="M279 473q11 0 11 -12v-48q0 -12 -11 -12h-213q-12 0 -12 12v48q0 12 12 12h64v221l-65 -33q-11 -5 -17 5l-24 46q-3 6 -1.5 9.5t6.5 6.5l104 57q13 7 21 9t20 2h37q13 0 13 -10v-313h55z" />
    <glyph glyph-name="twosuperior" unicode="&#xb2;" horiz-adv-x="312" 
d="M280 681q0 -38 -23.5 -66.5t-52.5 -51.5t-54.5 -44t-28.5 -44h155q7 0 10.5 -3t3.5 -13v-42q0 -10 -3.5 -13t-10.5 -3h-235q-7 0 -10.5 3t-3.5 13v36q0 30 11.5 54t29.5 43.5t38 35.5t38 30.5t29.5 28t11.5 29.5q0 23 -13 34t-34 11q-31 0 -67 -19q-9 -5 -13.5 -4t-8.5 8
l-24 40q-5 8 -3 12t8 9q23 16 55.5 25.5t65.5 9.5q55 0 92 -31t37 -88z" />
    <glyph glyph-name="threesuperior" unicode="&#xb3;" horiz-adv-x="321" 
d="M276 796q9 0 9 -8v-17q0 -13 -3.5 -21.5t-19.5 -29.5l-70 -90q52 -5 78 -33.5t26 -76.5q0 -31 -12 -54t-32 -38.5t-47 -23t-58 -7.5q-33 0 -64.5 5.5t-57.5 19.5q-13 6 -8 20l17 43q3 8 7 9t12 -3q20 -8 40.5 -13t44.5 -5q29 0 46 13.5t17 37.5q0 23 -16 32.5t-52 9.5
h-33q-8 0 -8 8v33q0 10 1.5 14.5t5.5 9.5l67 86h-130q-9 0 -9 8v64q0 7 9 7h240z" />
    <glyph glyph-name="fraction" unicode="&#x2044;" horiz-adv-x="383" 
d="M84 9q-4 -8 -7.5 -11.5t-12.5 -3.5h-75q-8 0 -12 4t0 12l322 702q4 8 7.5 11.5t12.5 3.5h75q8 0 12 -4t0 -12z" />
    <glyph glyph-name="onehalf" unicode="&#xbd;" horiz-adv-x="900" 
d="M307 397q11 0 11 -12v-48q0 -12 -11 -12h-213q-12 0 -12 12v48q0 12 12 12h64v221l-65 -33q-11 -5 -17 5l-24 46q-3 6 -1.5 9.5t6.5 6.5l104 57q13 7 21 9t20 2h37q13 0 13 -10v-313h55zM818 280q0 -38 -23.5 -66.5t-52.5 -51.5t-54.5 -44t-28.5 -44h155q7 0 10.5 -3
t3.5 -13v-42q0 -10 -3.5 -13t-10.5 -3h-235q-7 0 -10.5 3t-3.5 13v36q0 30 11.5 54t29.5 43.5t38 35.5t38 30.5t29.5 28t11.5 29.5q0 23 -13 34t-34 11q-31 0 -67 -19q-9 -5 -13.5 -4t-8.5 8l-24 40q-5 8 -3 12t8 9q23 16 55.5 25.5t65.5 9.5q55 0 92 -31t37 -88zM349 9
q-4 -8 -7.5 -11.5t-12.5 -3.5h-75q-8 0 -12 4t0 12l322 702q4 8 7.5 11.5t12.5 3.5h75q8 0 12 -4t0 -12z" />
    <glyph glyph-name="onequarter" unicode="&#xbc;" horiz-adv-x="900" 
d="M307 397q11 0 11 -12v-48q0 -12 -11 -12h-213q-12 0 -12 12v48q0 12 12 12h64v221l-65 -33q-11 -5 -17 5l-24 46q-3 6 -1.5 9.5t6.5 6.5l104 57q13 7 21 9t20 2h37q13 0 13 -10v-313h55zM828 167q12 0 12 -12v-54q0 -12 -12 -12h-34v-77q0 -12 -12 -12h-68q-11 0 -11 12
v77h-162q-12 0 -12 12v19q0 14 2.5 24t7.5 22l97 221q4 8 14 8h70q7 0 9 -4t0 -9l-97 -215h71v65q0 12 11 12h68q12 0 12 -12v-65h34zM349 9q-4 -8 -7.5 -11.5t-12.5 -3.5h-75q-8 0 -12 4t0 12l322 702q4 8 7.5 11.5t12.5 3.5h75q8 0 12 -4t0 -12z" />
    <glyph glyph-name="threequarters" unicode="&#xbe;" horiz-adv-x="900" 
d="M324 720q9 0 9 -8v-17q0 -13 -3.5 -21.5t-19.5 -29.5l-70 -90q52 -5 78 -33.5t26 -76.5q0 -31 -12 -54t-32 -38.5t-47 -23t-58 -7.5q-33 0 -64.5 5.5t-57.5 19.5q-13 6 -8 20l17 43q3 8 7 9t12 -3q20 -8 40.5 -13t44.5 -5q29 0 46 13.5t17 37.5q0 23 -16 32.5t-52 9.5
h-33q-8 0 -8 8v33q0 10 1.5 14.5t5.5 9.5l67 86h-130q-9 0 -9 8v64q0 7 9 7h240zM828 167q12 0 12 -12v-54q0 -12 -12 -12h-34v-77q0 -12 -12 -12h-68q-11 0 -11 12v77h-162q-12 0 -12 12v19q0 14 2.5 24t7.5 22l97 221q4 8 14 8h70q7 0 9 -4t0 -9l-97 -215h71v65
q0 12 11 12h68q12 0 12 -12v-65h34zM349 9q-4 -8 -7.5 -11.5t-12.5 -3.5h-75q-8 0 -12 4t0 12l322 702q4 8 7.5 11.5t12.5 3.5h75q8 0 12 -4t0 -12z" />
    <glyph glyph-name="Agrave" unicode="&#xc0;" horiz-adv-x="655" 
d="M452 175h-259l-50 -156q-7 -19 -27 -19h-84q-21 0 -14 22l237 680q4 10 9.5 14t18.5 4h82q13 0 19 -4t9 -14l244 -682q3 -9 -1 -14.5t-13 -5.5h-92q-20 0 -27 19zM226 274h193l-11 33q-26 79 -47.5 147.5t-37.5 119.5q-8 -25 -17.5 -56.5t-21 -66t-23.5 -71t-24 -72.5z
M298 780q-8 0 -12.5 2.5t-9.5 7.5l-117 150q-5 7 -2.5 11t10.5 4h89q8 0 12 -2.5t8 -8.5l94 -151q7 -13 -6 -13h-66z" />
    <glyph glyph-name="Aacute" unicode="&#xc1;" horiz-adv-x="655" 
d="M452 175h-259l-50 -156q-7 -19 -27 -19h-84q-21 0 -14 22l237 680q4 10 9.5 14t18.5 4h82q13 0 19 -4t9 -14l244 -682q3 -9 -1 -14.5t-13 -5.5h-92q-20 0 -27 19zM226 274h193l-11 33q-26 79 -47.5 147.5t-37.5 119.5q-8 -25 -17.5 -56.5t-21 -66t-23.5 -71t-24 -72.5z
M280 780q-13 0 -6 13l94 151q4 6 8 8.5t12 2.5h89q8 0 10.5 -4t-2.5 -11l-117 -150q-5 -5 -9.5 -7.5t-12.5 -2.5h-66z" />
    <glyph glyph-name="Acircumflex" unicode="&#xc2;" horiz-adv-x="655" 
d="M452 175h-259l-50 -156q-7 -19 -27 -19h-84q-21 0 -14 22l237 680q4 10 9.5 14t18.5 4h82q13 0 19 -4t9 -14l244 -682q3 -9 -1 -14.5t-13 -5.5h-92q-20 0 -27 19zM226 274h193l-11 33q-26 79 -47.5 147.5t-37.5 119.5q-8 -25 -17.5 -56.5t-21 -66t-23.5 -71t-24 -72.5z
M485 826q5 -5 6 -10t-6 -12l-33 -33q-10 -10 -20 -1l-104 91l-105 -91q-10 -9 -20 1l-33 33q-7 7 -6 11.5t6 9.5l91 97q8 8 14.5 11.5t17.5 3.5h70q11 0 17.5 -3.5t14.5 -11.5z" />
    <glyph glyph-name="Atilde" unicode="&#xc3;" horiz-adv-x="655" 
d="M452 175h-259l-50 -156q-7 -19 -27 -19h-84q-21 0 -14 22l237 680q4 10 9.5 14t18.5 4h82q13 0 19 -4t9 -14l244 -682q3 -9 -1 -14.5t-13 -5.5h-92q-20 0 -27 19zM226 274h193l-11 33q-26 79 -47.5 147.5t-37.5 119.5q-8 -25 -17.5 -56.5t-21 -66t-23.5 -71t-24 -72.5z
M490 858q-20 -25 -47 -43t-60 -18q-19 0 -34.5 6t-29 12.5t-26.5 12.5t-27 6q-15 0 -29 -8.5t-28 -22.5q-3 -3 -6.5 -4t-8.5 4l-36 39q-8 8 1 19q20 25 47 43t60 18q19 0 34.5 -6t29 -12.5t26.5 -12.5t27 -6q15 0 29 8.5t28 22.5q3 3 6.5 4t8.5 -4l36 -39q8 -8 -1 -19z" />
    <glyph glyph-name="Adieresis" unicode="&#xc4;" horiz-adv-x="655" 
d="M452 175h-259l-50 -156q-7 -19 -27 -19h-84q-21 0 -14 22l237 680q4 10 9.5 14t18.5 4h82q13 0 19 -4t9 -14l244 -682q3 -9 -1 -14.5t-13 -5.5h-92q-20 0 -27 19zM226 274h193l-11 33q-26 79 -47.5 147.5t-37.5 119.5q-8 -25 -17.5 -56.5t-21 -66t-23.5 -71t-24 -72.5z
M173 791q-17 0 -17 16v86q0 16 17 16h87q18 0 18 -16v-86q0 -16 -18 -16h-87zM394 791q-17 0 -17 16v86q0 16 17 16h87q18 0 18 -16v-86q0 -16 -18 -16h-87z" />
    <glyph glyph-name="Aring" unicode="&#xc5;" horiz-adv-x="655" 
d="M452 175h-259l-50 -156q-7 -19 -27 -19h-84q-21 0 -14 22l237 680q4 10 9.5 14t18.5 4h82q13 0 19 -4t9 -14l244 -682q3 -9 -1 -14.5t-13 -5.5h-92q-20 0 -27 19zM226 274h193l-11 33q-26 79 -47.5 147.5t-37.5 119.5q-8 -25 -17.5 -56.5t-21 -66t-23.5 -71t-24 -72.5z
M325 773q-22 0 -41.5 8t-34 22t-23 33t-8.5 40t8.5 40t23 32.5t34 21.5t41.5 8t41 -8t33.5 -21.5t23 -32t8.5 -40.5t-8.5 -40.5t-23 -32.5t-33.5 -22t-41 -8zM325 835q17 0 28 12t11 29t-11 28.5t-28 11.5t-29 -11t-12 -29t12 -29.5t29 -11.5z" />
    <glyph glyph-name="AE" unicode="&#xc6;" horiz-adv-x="953" 
d="M877 720q20 0 20 -19v-65q0 -19 -20 -19h-279v-202h236q20 0 20 -18v-65q0 -19 -20 -19h-236v-210h283q20 0 20 -19v-65q0 -19 -20 -19h-390q-20 0 -20 19v154h-239l-91 -158q-6 -11 -12 -13t-20 -2h-85q-16 0 -17 7.5t2 12.5l411 684q9 16 28 16h429zM289 271h182v322
q-17 -34 -43.5 -81.5t-53.5 -94.5z" />
    <glyph glyph-name="Ccedilla" unicode="&#xc7;" horiz-adv-x="581" 
d="M348 -233q-22 0 -42.5 4t-34.5 9q-11 4 -7 15l11 42q2 8 4.5 9.5t10.5 -0.5q11 -3 24.5 -4.5t24.5 -1.5q41 0 41 30q0 16 -10.5 23t-35.5 7q-23 0 -48 -3q-8 0 -9.5 3t-0.5 11l11 83q-61 9 -107.5 37.5t-77.5 75t-46.5 108.5t-15.5 137q0 81 19.5 150t58 119.5t97 79.5
t136.5 29q113 0 188 -55q16 -12 8 -29l-30 -52q-12 -20 -29 -10q-32 20 -62 29.5t-65 9.5q-86 0 -138 -66.5t-52 -199.5q0 -56 10.5 -103.5t33 -82t58.5 -54t87 -19.5q33 0 67 8.5t64 23.5q20 10 27 -6l26 -55q9 -18 -8 -29q-33 -20 -77.5 -32.5t-91.5 -16.5l-2 -29h2
q45 0 75 -21.5t30 -68.5q0 -20 -7.5 -39t-22.5 -33.5t-38.5 -23.5t-55.5 -9z" />
    <glyph glyph-name="Eth" unicode="&#xd0;" horiz-adv-x="679" 
d="M110 0q-20 0 -20 19v297h-60q-16 0 -16 17v63q0 17 16 17h60v288q0 19 20 19h164q98 0 164 -21t111 -68q42 -43 66 -110t24 -158t-25 -164t-79 -124q-45 -43 -108.5 -59t-147.5 -16h-169zM217 618v-205h116q16 0 16 -17v-63q0 -17 -16 -17h-116v-214h61q47 0 90 10.5
t74 39.5q34 32 50.5 85.5t16.5 123.5q0 64 -13 112t-37 77q-28 34 -71 51t-107 17h-64z" />
    <glyph glyph-name="Egrave" unicode="&#xc8;" horiz-adv-x="558" 
d="M96 0q-20 0 -20 19v682q0 19 20 19h386q20 0 20 -19v-65q0 -19 -20 -19h-279v-202h236q20 0 20 -18v-65q0 -19 -20 -19h-236v-210h283q20 0 20 -19v-65q0 -19 -20 -19h-390zM313 780q-8 0 -12.5 2.5t-9.5 7.5l-117 150q-5 7 -2.5 11t10.5 4h89q8 0 12 -2.5t8 -8.5
l94 -151q7 -13 -6 -13h-66z" />
    <glyph glyph-name="Eacute" unicode="&#xc9;" horiz-adv-x="558" 
d="M96 0q-20 0 -20 19v682q0 19 20 19h386q20 0 20 -19v-65q0 -19 -20 -19h-279v-202h236q20 0 20 -18v-65q0 -19 -20 -19h-236v-210h283q20 0 20 -19v-65q0 -19 -20 -19h-390zM234 780q-13 0 -6 13l94 151q4 6 8 8.5t12 2.5h89q8 0 10.5 -4t-2.5 -11l-117 -150
q-5 -5 -9.5 -7.5t-12.5 -2.5h-66z" />
    <glyph glyph-name="Ecircumflex" unicode="&#xca;" horiz-adv-x="558" 
d="M96 0q-20 0 -20 19v682q0 19 20 19h386q20 0 20 -19v-65q0 -19 -20 -19h-279v-202h236q20 0 20 -18v-65q0 -19 -20 -19h-236v-210h283q20 0 20 -19v-65q0 -19 -20 -19h-390zM451 826q5 -5 6 -10t-6 -12l-33 -33q-10 -10 -20 -1l-104 91l-105 -91q-10 -9 -20 1l-33 33
q-7 7 -6 11.5t6 9.5l91 97q8 8 14.5 11.5t17.5 3.5h70q11 0 17.5 -3.5t14.5 -11.5z" />
    <glyph glyph-name="Edieresis" unicode="&#xcb;" horiz-adv-x="558" 
d="M96 0q-20 0 -20 19v682q0 19 20 19h386q20 0 20 -19v-65q0 -19 -20 -19h-279v-202h236q20 0 20 -18v-65q0 -19 -20 -19h-236v-210h283q20 0 20 -19v-65q0 -19 -20 -19h-390zM135 791q-17 0 -17 16v86q0 16 17 16h87q18 0 18 -16v-86q0 -16 -18 -16h-87zM356 791
q-17 0 -17 16v86q0 16 17 16h87q18 0 18 -16v-86q0 -16 -18 -16h-87z" />
    <glyph glyph-name="Igrave" unicode="&#xcc;" horiz-adv-x="285" 
d="M99 0q-20 0 -20 19v682q0 19 20 19h87q20 0 20 -19v-682q0 -19 -20 -19h-87zM126 780q-8 0 -12.5 2.5t-9.5 7.5l-117 150q-5 7 -2.5 11t10.5 4h89q8 0 12 -2.5t8 -8.5l94 -151q7 -13 -6 -13h-66z" />
    <glyph glyph-name="Iacute" unicode="&#xcd;" horiz-adv-x="285" 
d="M99 0q-20 0 -20 19v682q0 19 20 19h87q20 0 20 -19v-682q0 -19 -20 -19h-87zM93 780q-13 0 -6 13l94 151q4 6 8 8.5t12 2.5h89q8 0 10.5 -4t-2.5 -11l-117 -150q-5 -5 -9.5 -7.5t-12.5 -2.5h-66z" />
    <glyph glyph-name="Icircumflex" unicode="&#xce;" horiz-adv-x="285" 
d="M99 0q-20 0 -20 19v682q0 19 20 19h87q20 0 20 -19v-682q0 -19 -20 -19h-87zM300 826q5 -5 6 -10t-6 -12l-33 -33q-10 -10 -20 -1l-104 91l-105 -91q-10 -9 -20 1l-33 33q-7 7 -6 11.5t6 9.5l91 97q8 8 14.5 11.5t17.5 3.5h70q11 0 17.5 -3.5t14.5 -11.5z" />
    <glyph glyph-name="Idieresis" unicode="&#xcf;" horiz-adv-x="285" 
d="M99 0q-20 0 -20 19v682q0 19 20 19h87q20 0 20 -19v-682q0 -19 -20 -19h-87zM-12 791q-17 0 -17 16v86q0 16 17 16h87q18 0 18 -16v-86q0 -16 -18 -16h-87zM209 791q-17 0 -17 16v86q0 16 17 16h87q18 0 18 -16v-86q0 -16 -18 -16h-87z" />
    <glyph glyph-name="Lslash" unicode="&#x141;" horiz-adv-x="525" 
d="M215 454l123 75q9 5 12.5 1t3.5 -9v-76q0 -10 -2.5 -14.5t-9.5 -9.5l-127 -78v-240h260q20 0 20 -19v-65q0 -19 -20 -19h-367q-20 0 -20 19v247l-62 -37q-9 -5 -12.5 -1t-3.5 9v76q0 10 2.5 14.5t9.5 9.5l66 40v324q0 19 20 19h87q20 0 20 -19v-247z" />
    <glyph glyph-name="Ntilde" unicode="&#xd1;" horiz-adv-x="700" 
d="M304 325q-23 36 -40.5 64t-31 51t-24 42t-19.5 37q1 -21 2 -49t2 -58.5t1 -61.5v-57v-274q0 -19 -20 -19h-78q-20 0 -20 19v682q0 19 20 19h69q15 0 22 -4t14 -14l194 -307q22 -36 39 -62.5t30.5 -49t24.5 -42t21 -40.5q-1 21 -2 49t-1.5 58t-0.5 60.5v57.5v275
q0 19 20 19h78q20 0 20 -19v-682q0 -19 -20 -19h-69q-15 0 -22 4t-13 14zM515 858q-20 -25 -47 -43t-60 -18q-19 0 -34.5 6t-29 12.5t-26.5 12.5t-27 6q-15 0 -29 -8.5t-28 -22.5q-3 -3 -6.5 -4t-8.5 4l-36 39q-8 8 1 19q20 25 47 43t60 18q19 0 34.5 -6t29 -12.5
t26.5 -12.5t27 -6q15 0 29 8.5t28 22.5q3 3 6.5 4t8.5 -4l36 -39q8 -8 -1 -19z" />
    <glyph glyph-name="Ograve" unicode="&#xd2;" horiz-adv-x="699" 
d="M659 370q0 -87 -21 -157t-61.5 -119.5t-100.5 -76.5t-137 -27q-66 0 -121 21t-94.5 65.5t-61.5 112.5t-22 161q0 87 21 157t61.5 119.5t100.5 76.5t137 27q66 0 121 -21t94.5 -65.5t61.5 -112.5t22 -161zM528 366q0 133 -45 195t-126 62q-90 0 -138 -69t-48 -200
q0 -133 45 -195t126 -62q90 0 138 69t48 200zM334 780q-8 0 -12.5 2.5t-9.5 7.5l-117 150q-5 7 -2.5 11t10.5 4h89q8 0 12 -2.5t8 -8.5l94 -151q7 -13 -6 -13h-66z" />
    <glyph glyph-name="Oacute" unicode="&#xd3;" horiz-adv-x="699" 
d="M659 370q0 -87 -21 -157t-61.5 -119.5t-100.5 -76.5t-137 -27q-66 0 -121 21t-94.5 65.5t-61.5 112.5t-22 161q0 87 21 157t61.5 119.5t100.5 76.5t137 27q66 0 121 -21t94.5 -65.5t61.5 -112.5t22 -161zM528 366q0 133 -45 195t-126 62q-90 0 -138 -69t-48 -200
q0 -133 45 -195t126 -62q90 0 138 69t48 200zM307 780q-13 0 -6 13l94 151q4 6 8 8.5t12 2.5h89q8 0 10.5 -4t-2.5 -11l-117 -150q-5 -5 -9.5 -7.5t-12.5 -2.5h-66z" />
    <glyph glyph-name="Ocircumflex" unicode="&#xd4;" horiz-adv-x="699" 
d="M659 370q0 -87 -21 -157t-61.5 -119.5t-100.5 -76.5t-137 -27q-66 0 -121 21t-94.5 65.5t-61.5 112.5t-22 161q0 87 21 157t61.5 119.5t100.5 76.5t137 27q66 0 121 -21t94.5 -65.5t61.5 -112.5t22 -161zM528 366q0 133 -45 195t-126 62q-90 0 -138 -69t-48 -200
q0 -133 45 -195t126 -62q90 0 138 69t48 200zM507 826q5 -5 6 -10t-6 -12l-33 -33q-10 -10 -20 -1l-104 91l-105 -91q-10 -9 -20 1l-33 33q-7 7 -6 11.5t6 9.5l91 97q8 8 14.5 11.5t17.5 3.5h70q11 0 17.5 -3.5t14.5 -11.5z" />
    <glyph glyph-name="Otilde" unicode="&#xd5;" horiz-adv-x="699" 
d="M659 370q0 -87 -21 -157t-61.5 -119.5t-100.5 -76.5t-137 -27q-66 0 -121 21t-94.5 65.5t-61.5 112.5t-22 161q0 87 21 157t61.5 119.5t100.5 76.5t137 27q66 0 121 -21t94.5 -65.5t61.5 -112.5t22 -161zM528 366q0 133 -45 195t-126 62q-90 0 -138 -69t-48 -200
q0 -133 45 -195t126 -62q90 0 138 69t48 200zM515 858q-20 -25 -47 -43t-60 -18q-19 0 -34.5 6t-29 12.5t-26.5 12.5t-27 6q-15 0 -29 -8.5t-28 -22.5q-3 -3 -6.5 -4t-8.5 4l-36 39q-8 8 1 19q20 25 47 43t60 18q19 0 34.5 -6t29 -12.5t26.5 -12.5t27 -6q15 0 29 8.5
t28 22.5q3 3 6.5 4t8.5 -4l36 -39q8 -8 -1 -19z" />
    <glyph glyph-name="Odieresis" unicode="&#xd6;" horiz-adv-x="699" 
d="M659 370q0 -87 -21 -157t-61.5 -119.5t-100.5 -76.5t-137 -27q-66 0 -121 21t-94.5 65.5t-61.5 112.5t-22 161q0 87 21 157t61.5 119.5t100.5 76.5t137 27q66 0 121 -21t94.5 -65.5t61.5 -112.5t22 -161zM528 366q0 133 -45 195t-126 62q-90 0 -138 -69t-48 -200
q0 -133 45 -195t126 -62q90 0 138 69t48 200zM195 791q-17 0 -17 16v86q0 16 17 16h87q18 0 18 -16v-86q0 -16 -18 -16h-87zM416 791q-17 0 -17 16v86q0 16 17 16h87q18 0 18 -16v-86q0 -16 -18 -16h-87z" />
    <glyph glyph-name="Oslash" unicode="&#xd8;" horiz-adv-x="699" 
d="M659 370q0 -87 -21 -157t-61.5 -119.5t-100.5 -76.5t-137 -27q-84 0 -148 33l-40 -67q-5 -8 -10 -11t-13 2l-57 34q-8 5 -9.5 9t6.5 16l48 79q-36 45 -56 110t-20 155q0 87 21 157t61.5 119.5t100.5 76.5t137 27q74 0 130 -25l37 60q5 8 10 11t13 -2l57 -34q8 -5 9.5 -9
t-6.5 -16l-40 -66q42 -45 65.5 -113.5t23.5 -165.5zM528 366q0 103 -29 166l-248 -409q36 -26 91 -26q90 0 138 69t48 200zM171 354q0 -87 20 -145l240 397q-34 17 -74 17q-90 0 -138 -69t-48 -200z" />
    <glyph glyph-name="OE" unicode="&#x152;" horiz-adv-x="964" 
d="M572 0q-45 0 -106 -5t-118 -5q-67 0 -123.5 21t-97.5 64.5t-64 111t-23 161.5q0 88 22 159t64 120.5t103 76t139 26.5q51 0 100.5 -5t95.5 -5h324q20 0 20 -19v-65q0 -19 -20 -19h-279v-202h236q20 0 20 -18v-65q0 -19 -20 -19h-236v-210h283q20 0 20 -19v-65
q0 -19 -20 -19h-320zM353 95q30 0 66.5 2t62.5 4v517q-21 3 -52 4.5t-63 1.5q-93 0 -144.5 -68.5t-51.5 -202.5t49 -196t133 -62z" />
    <glyph glyph-name="Thorn" unicode="&#xde;" horiz-adv-x="560" 
d="M96 0q-20 0 -20 19v682q0 19 20 19h87q20 0 20 -19v-105h36q85 0 144.5 -16t95.5 -53q53 -53 53 -154q0 -51 -16 -94.5t-47.5 -75t-80 -49.5t-112.5 -18q-20 0 -38 0.5t-35 2.5v-120q0 -19 -20 -19h-87zM203 494v-254q15 -2 32 -2.5t34 -0.5q70 0 102.5 36t32.5 99
q0 34 -9.5 56.5t-26.5 36.5q-20 17 -49.5 23t-64.5 6h-51z" />
    <glyph glyph-name="Scaron" unicode="&#x160;" horiz-adv-x="539" 
d="M99 148q35 -24 73.5 -38t73.5 -14q54 0 91 24.5t37 71.5q0 25 -11 43.5t-29 33.5t-40.5 27t-46.5 24q-32 16 -64 33.5t-58 41t-42.5 55.5t-16.5 76q0 49 18 87t48.5 64t71 39.5t85.5 13.5q57 0 100.5 -14t77.5 -37q16 -11 6 -31l-28 -50q-10 -20 -29 -7q-32 17 -59.5 26
t-60.5 9q-51 0 -77.5 -25t-26.5 -62q0 -21 10.5 -37.5t27.5 -30t39.5 -25.5t46.5 -24q44 -22 78 -43.5t57.5 -47t35.5 -57t12 -71.5q0 -47 -16 -86t-46.5 -67.5t-76 -44t-104.5 -15.5q-64 0 -121 19t-90 46q-15 12 -5 31l30 56q10 19 29 6zM362 797q-8 -8 -14.5 -11.5
t-17.5 -3.5h-70q-11 0 -17.5 3.5t-14.5 11.5l-91 97q-5 5 -6 9.5t6 11.5l33 33q6 6 10.5 6t9.5 -5l105 -91l104 91q5 5 9.5 5t10.5 -6l33 -33q7 -7 6 -12t-6 -10z" />
    <glyph glyph-name="Ugrave" unicode="&#xd9;" horiz-adv-x="690" 
d="M618 286q0 -147 -66.5 -221.5t-210.5 -74.5q-140 0 -204.5 68t-64.5 208v435q0 19 20 19h87q20 0 20 -19v-432q0 -89 34 -131t112 -42q75 0 111.5 44t36.5 129v432q0 19 20 19h85q20 0 20 -19v-415zM330 780q-8 0 -12.5 2.5t-9.5 7.5l-117 150q-5 7 -2.5 11t10.5 4h89
q8 0 12 -2.5t8 -8.5l94 -151q7 -13 -6 -13h-66z" />
    <glyph glyph-name="Uacute" unicode="&#xda;" horiz-adv-x="690" 
d="M618 286q0 -147 -66.5 -221.5t-210.5 -74.5q-140 0 -204.5 68t-64.5 208v435q0 19 20 19h87q20 0 20 -19v-432q0 -89 34 -131t112 -42q75 0 111.5 44t36.5 129v432q0 19 20 19h85q20 0 20 -19v-415zM296 780q-13 0 -6 13l94 151q4 6 8 8.5t12 2.5h89q8 0 10.5 -4
t-2.5 -11l-117 -150q-5 -5 -9.5 -7.5t-12.5 -2.5h-66z" />
    <glyph glyph-name="Ucircumflex" unicode="&#xdb;" horiz-adv-x="690" 
d="M618 286q0 -147 -66.5 -221.5t-210.5 -74.5q-140 0 -204.5 68t-64.5 208v435q0 19 20 19h87q20 0 20 -19v-432q0 -89 34 -131t112 -42q75 0 111.5 44t36.5 129v432q0 19 20 19h85q20 0 20 -19v-415zM502 826q5 -5 6 -10t-6 -12l-33 -33q-10 -10 -20 -1l-104 91l-105 -91
q-10 -9 -20 1l-33 33q-7 7 -6 11.5t6 9.5l91 97q8 8 14.5 11.5t17.5 3.5h70q11 0 17.5 -3.5t14.5 -11.5z" />
    <glyph glyph-name="Udieresis" unicode="&#xdc;" horiz-adv-x="690" 
d="M618 286q0 -147 -66.5 -221.5t-210.5 -74.5q-140 0 -204.5 68t-64.5 208v435q0 19 20 19h87q20 0 20 -19v-432q0 -89 34 -131t112 -42q75 0 111.5 44t36.5 129v432q0 19 20 19h85q20 0 20 -19v-415zM190 791q-17 0 -17 16v86q0 16 17 16h87q18 0 18 -16v-86
q0 -16 -18 -16h-87zM411 791q-17 0 -17 16v86q0 16 17 16h87q18 0 18 -16v-86q0 -16 -18 -16h-87z" />
    <glyph glyph-name="Yacute" unicode="&#xdd;" horiz-adv-x="571" 
d="M241 0q-20 0 -20 19v261l-208 420q-5 9 -1 14.5t14 5.5h87q15 0 22.5 -4t12.5 -15l61 -132q9 -20 21 -44.5t23.5 -49t21.5 -46t15 -34.5q6 14 14.5 34t19 43.5t21.5 48.5t22 48l61 133q5 11 12 14.5t21 3.5h84q10 0 14 -5.5t-1 -14.5l-210 -420v-261q0 -19 -20 -19h-87z
M236 780q-13 0 -6 13l94 151q4 6 8 8.5t12 2.5h89q8 0 10.5 -4t-2.5 -11l-117 -150q-5 -5 -9.5 -7.5t-12.5 -2.5h-66z" />
    <glyph glyph-name="Ydieresis" unicode="&#x178;" horiz-adv-x="571" 
d="M241 0q-20 0 -20 19v261l-208 420q-5 9 -1 14.5t14 5.5h87q15 0 22.5 -4t12.5 -15l61 -132q9 -20 21 -44.5t23.5 -49t21.5 -46t15 -34.5q6 14 14.5 34t19 43.5t21.5 48.5t22 48l61 133q5 11 12 14.5t21 3.5h84q10 0 14 -5.5t-1 -14.5l-210 -420v-261q0 -19 -20 -19h-87z
M131 791q-17 0 -17 16v86q0 16 17 16h87q18 0 18 -16v-86q0 -16 -18 -16h-87zM352 791q-17 0 -17 16v86q0 16 17 16h87q18 0 18 -16v-86q0 -16 -18 -16h-87z" />
    <glyph glyph-name="Zcaron" unicode="&#x17d;" horiz-adv-x="565" 
d="M60 0q-20 0 -20 19v46q0 16 3 27.5t14 28.5l309 496h-289q-20 0 -20 19v65q0 19 20 19h418q20 0 20 -19v-46q0 -15 -3.5 -26.5t-12.5 -25.5l-312 -500h318q20 0 20 -19v-65q0 -19 -20 -19h-445zM365 797q-8 -8 -14.5 -11.5t-17.5 -3.5h-70q-11 0 -17.5 3.5t-14.5 11.5
l-91 97q-5 5 -6 9.5t6 11.5l33 33q6 6 10.5 6t9.5 -5l105 -91l104 91q5 5 9.5 5t10.5 -6l33 -33q7 -7 6 -12t-6 -10z" />
    <glyph glyph-name="agrave" unicode="&#xe0;" horiz-adv-x="578" 
d="M415 15q-4 8 -8.5 23t-6.5 28q-24 -35 -62.5 -55.5t-83.5 -20.5q-52 0 -92 19.5t-67 54.5t-41 83.5t-14 106.5q0 67 18 120t48.5 89.5t71.5 55.5t87 19q42 0 78 -18t55 -44l3 34q1 11 6 14.5t16 3.5h66q19 0 19 -16q0 -10 -0.5 -30.5t-0.5 -46.5t-0.5 -55.5t-0.5 -57.5
v-95q0 -44 2.5 -81t5 -64.5t5 -44.5t2.5 -21q0 -16 -17 -16h-67q-16 0 -22 15zM386 379q-19 26 -45 40.5t-56 14.5q-57 0 -89 -45t-32 -130q0 -34 6 -64.5t19.5 -53t35.5 -35.5t53 -13q22 0 40.5 9t31.5 23q20 21 28 54.5t8 66.5v133zM295 591q-8 0 -12.5 2.5t-9.5 7.5
l-117 150q-5 7 -2.5 11t10.5 4h89q8 0 12 -2.5t8 -8.5l94 -151q7 -13 -6 -13h-66z" />
    <glyph glyph-name="aacute" unicode="&#xe1;" horiz-adv-x="578" 
d="M415 15q-4 8 -8.5 23t-6.5 28q-24 -35 -62.5 -55.5t-83.5 -20.5q-52 0 -92 19.5t-67 54.5t-41 83.5t-14 106.5q0 67 18 120t48.5 89.5t71.5 55.5t87 19q42 0 78 -18t55 -44l3 34q1 11 6 14.5t16 3.5h66q19 0 19 -16q0 -10 -0.5 -30.5t-0.5 -46.5t-0.5 -55.5t-0.5 -57.5
v-95q0 -44 2.5 -81t5 -64.5t5 -44.5t2.5 -21q0 -16 -17 -16h-67q-16 0 -22 15zM386 379q-19 26 -45 40.5t-56 14.5q-57 0 -89 -45t-32 -130q0 -34 6 -64.5t19.5 -53t35.5 -35.5t53 -13q22 0 40.5 9t31.5 23q20 21 28 54.5t8 66.5v133zM215 591q-13 0 -6 13l94 151q4 6 8 8.5
t12 2.5h89q8 0 10.5 -4t-2.5 -11l-117 -150q-5 -5 -9.5 -7.5t-12.5 -2.5h-66z" />
    <glyph glyph-name="acircumflex" unicode="&#xe2;" horiz-adv-x="578" 
d="M415 15q-4 8 -8.5 23t-6.5 28q-24 -35 -62.5 -55.5t-83.5 -20.5q-52 0 -92 19.5t-67 54.5t-41 83.5t-14 106.5q0 67 18 120t48.5 89.5t71.5 55.5t87 19q42 0 78 -18t55 -44l3 34q1 11 6 14.5t16 3.5h66q19 0 19 -16q0 -10 -0.5 -30.5t-0.5 -46.5t-0.5 -55.5t-0.5 -57.5
v-95q0 -44 2.5 -81t5 -64.5t5 -44.5t2.5 -21q0 -16 -17 -16h-67q-16 0 -22 15zM386 379q-19 26 -45 40.5t-56 14.5q-57 0 -89 -45t-32 -130q0 -34 6 -64.5t19.5 -53t35.5 -35.5t53 -13q22 0 40.5 9t31.5 23q20 21 28 54.5t8 66.5v133zM436 641q5 -5 6 -10t-6 -12l-33 -33
q-10 -10 -20 -1l-104 91l-105 -91q-10 -9 -20 1l-33 33q-7 7 -6 11.5t6 9.5l91 97q8 8 14.5 11.5t17.5 3.5h70q11 0 17.5 -3.5t14.5 -11.5z" />
    <glyph glyph-name="atilde" unicode="&#xe3;" horiz-adv-x="578" 
d="M415 15q-4 8 -8.5 23t-6.5 28q-24 -35 -62.5 -55.5t-83.5 -20.5q-52 0 -92 19.5t-67 54.5t-41 83.5t-14 106.5q0 67 18 120t48.5 89.5t71.5 55.5t87 19q42 0 78 -18t55 -44l3 34q1 11 6 14.5t16 3.5h66q19 0 19 -16q0 -10 -0.5 -30.5t-0.5 -46.5t-0.5 -55.5t-0.5 -57.5
v-95q0 -44 2.5 -81t5 -64.5t5 -44.5t2.5 -21q0 -16 -17 -16h-67q-16 0 -22 15zM386 379q-19 26 -45 40.5t-56 14.5q-57 0 -89 -45t-32 -130q0 -34 6 -64.5t19.5 -53t35.5 -35.5t53 -13q22 0 40.5 9t31.5 23q20 21 28 54.5t8 66.5v133zM444 677q-20 -25 -47 -43t-60 -18
q-19 0 -34.5 6t-29 12.5t-26.5 12.5t-27 6q-15 0 -29 -8.5t-28 -22.5q-3 -3 -6.5 -4t-8.5 4l-36 39q-8 8 1 19q20 25 47 43t60 18q19 0 34.5 -6t29 -12.5t26.5 -12.5t27 -6q15 0 29 8.5t28 22.5q3 3 6.5 4t8.5 -4l36 -39q8 -8 -1 -19z" />
    <glyph glyph-name="adieresis" unicode="&#xe4;" horiz-adv-x="578" 
d="M415 15q-4 8 -8.5 23t-6.5 28q-24 -35 -62.5 -55.5t-83.5 -20.5q-52 0 -92 19.5t-67 54.5t-41 83.5t-14 106.5q0 67 18 120t48.5 89.5t71.5 55.5t87 19q42 0 78 -18t55 -44l3 34q1 11 6 14.5t16 3.5h66q19 0 19 -16q0 -10 -0.5 -30.5t-0.5 -46.5t-0.5 -55.5t-0.5 -57.5
v-95q0 -44 2.5 -81t5 -64.5t5 -44.5t2.5 -21q0 -16 -17 -16h-67q-16 0 -22 15zM386 379q-19 26 -45 40.5t-56 14.5q-57 0 -89 -45t-32 -130q0 -34 6 -64.5t19.5 -53t35.5 -35.5t53 -13q22 0 40.5 9t31.5 23q20 21 28 54.5t8 66.5v133zM124 612q-17 0 -17 16v86q0 16 17 16
h87q18 0 18 -16v-86q0 -16 -18 -16h-87zM345 612q-17 0 -17 16v86q0 16 17 16h87q18 0 18 -16v-86q0 -16 -18 -16h-87z" />
    <glyph glyph-name="aring" unicode="&#xe5;" horiz-adv-x="578" 
d="M415 15q-4 8 -8.5 23t-6.5 28q-24 -35 -62.5 -55.5t-83.5 -20.5q-52 0 -92 19.5t-67 54.5t-41 83.5t-14 106.5q0 67 18 120t48.5 89.5t71.5 55.5t87 19q42 0 78 -18t55 -44l3 34q1 11 6 14.5t16 3.5h66q19 0 19 -16q0 -10 -0.5 -30.5t-0.5 -46.5t-0.5 -55.5t-0.5 -57.5
v-95q0 -44 2.5 -81t5 -64.5t5 -44.5t2.5 -21q0 -16 -17 -16h-67q-16 0 -22 15zM386 379q-19 26 -45 40.5t-56 14.5q-57 0 -89 -45t-32 -130q0 -34 6 -64.5t19.5 -53t35.5 -35.5t53 -13q22 0 40.5 9t31.5 23q20 21 28 54.5t8 66.5v133zM279 586q-22 0 -41.5 8t-34 22t-23 33
t-8.5 40t8.5 40t23 32.5t34 21.5t41.5 8t41 -8t33.5 -21.5t23 -32t8.5 -40.5t-8.5 -40.5t-23 -32.5t-33.5 -22t-41 -8zM279 648q17 0 28 12t11 29t-11 28.5t-28 11.5t-29 -11t-12 -29t12 -29.5t29 -11.5z" />
    <glyph glyph-name="ae" unicode="&#xe6;" horiz-adv-x="885" 
d="M624 -10q-73 0 -124 25t-82 70q-15 -23 -37 -41t-48 -30t-54 -18t-55 -6q-84 0 -134.5 44t-50.5 119q0 43 16.5 73.5t45 49.5t68 28t86.5 9q32 0 64 -4.5t55 -10.5v21q0 30 -6.5 50.5t-19.5 34.5q-16 17 -39 24t-59 7q-25 0 -59.5 -6.5t-69.5 -20.5q-14 -5 -19.5 -3
t-9.5 11l-19 47q-5 13 -5 19.5t10 11.5q39 20 87.5 32t100.5 12q117 0 177 -61l6 -6q32 32 74.5 49.5t93.5 17.5q56 0 98 -20t70.5 -56t43 -85.5t14.5 -107.5q0 -29 -5 -39t-16 -10h-326q8 -63 43 -94.5t102 -31.5q31 0 66 8.5t66 22.5q18 8 26 -10l20 -49q4 -11 2.5 -17.5
t-11.5 -11.5q-37 -21 -84.5 -34t-101.5 -13zM245 88q61 0 94 32t35 87q0 1 -0.5 1.5t-0.5 1.5q-56 12 -111 12q-48 0 -74 -14t-26 -51q0 -27 20.5 -48t62.5 -21zM617 435q-52 0 -82 -35t-38 -90h225q-1 25 -8 47.5t-20.5 39.5t-32.5 27.5t-44 10.5z" />
    <glyph glyph-name="ccedilla" unicode="&#xe7;" horiz-adv-x="496" 
d="M300 -233q-22 0 -42.5 4t-34.5 9q-11 4 -7 15l11 42q2 8 4.5 9.5t10.5 -0.5q11 -3 24.5 -4.5t24.5 -1.5q41 0 41 30q0 16 -10.5 23t-35.5 7q-23 0 -48 -3q-8 0 -9.5 3t-0.5 11l11 83q-99 14 -149 85.5t-50 179.5q0 64 18 116t51.5 88t80.5 55.5t106 19.5q48 0 91 -13.5
t75 -37.5q9 -7 9 -14t-5 -17l-25 -49q-5 -11 -13 -11.5t-16 4.5q-26 15 -53 24t-58 9q-29 0 -54 -10t-43.5 -31t-29 -52.5t-10.5 -74.5q0 -37 8 -68.5t25 -54t42.5 -35t61.5 -12.5q29 0 57.5 8t53.5 19q19 10 27 -9l20 -47q9 -22 -5 -30q-26 -17 -61 -28t-74 -16l-2 -30h2
q45 0 75 -21.5t30 -68.5q0 -20 -7.5 -39t-22.5 -33.5t-38.5 -23.5t-55.5 -9z" />
    <glyph glyph-name="eth" unicode="&#xf0;" horiz-adv-x="575" 
d="M279 -10q-54 0 -97.5 18.5t-74.5 52t-48 81.5t-17 108q0 61 18.5 109.5t49.5 81.5t71.5 50.5t85.5 17.5q32 0 58.5 -7.5t46.5 -20.5q-29 56 -69 100l-119 -41q-12 -4 -17 9l-15 42q-5 14 7 17l81 29q-33 25 -77 48q-5 2 -7 7.5t3 13.5l33 51q6 9 11.5 10t13.5 -3
q40 -20 75.5 -41.5t65.5 -47.5l117 41q5 2 8.5 0.5t6.5 -9.5l15 -42q5 -14 -7 -17l-81 -29q57 -64 86.5 -143.5t29.5 -174.5q0 -150 -67 -230.5t-187 -80.5zM284 92q66 0 95 52t29 164q0 17 -1.5 32.5t-3.5 30.5q-22 17 -52 28t-62 11t-55.5 -12.5t-38.5 -34t-22.5 -51.5
t-7.5 -64q0 -75 32 -115.5t87 -40.5z" />
    <glyph glyph-name="egrave" unicode="&#xe8;" horiz-adv-x="554" 
d="M293 -10q-65 0 -112.5 20t-78.5 55.5t-46.5 84.5t-15.5 106q0 64 18 116t50.5 89t77.5 57t100 20q56 0 98 -20t70.5 -56t43 -85.5t14.5 -107.5q0 -29 -5 -39t-16 -10h-326q8 -63 43 -94.5t102 -31.5q31 0 66 8.5t66 22.5q18 8 26 -10l20 -49q4 -11 2.5 -17.5t-11.5 -11.5
q-37 -21 -84.5 -34t-101.5 -13zM286 435q-52 0 -82 -35t-38 -90h225q-1 25 -8 47.5t-20.5 39.5t-32.5 27.5t-44 10.5zM290 591q-8 0 -12.5 2.5t-9.5 7.5l-117 150q-5 7 -2.5 11t10.5 4h89q8 0 12 -2.5t8 -8.5l94 -151q7 -13 -6 -13h-66z" />
    <glyph glyph-name="eacute" unicode="&#xe9;" horiz-adv-x="554" 
d="M293 -10q-65 0 -112.5 20t-78.5 55.5t-46.5 84.5t-15.5 106q0 64 18 116t50.5 89t77.5 57t100 20q56 0 98 -20t70.5 -56t43 -85.5t14.5 -107.5q0 -29 -5 -39t-16 -10h-326q8 -63 43 -94.5t102 -31.5q31 0 66 8.5t66 22.5q18 8 26 -10l20 -49q4 -11 2.5 -17.5t-11.5 -11.5
q-37 -21 -84.5 -34t-101.5 -13zM286 435q-52 0 -82 -35t-38 -90h225q-1 25 -8 47.5t-20.5 39.5t-32.5 27.5t-44 10.5zM212 591q-13 0 -6 13l94 151q4 6 8 8.5t12 2.5h89q8 0 10.5 -4t-2.5 -11l-117 -150q-5 -5 -9.5 -7.5t-12.5 -2.5h-66z" />
    <glyph glyph-name="ecircumflex" unicode="&#xea;" horiz-adv-x="554" 
d="M293 -10q-65 0 -112.5 20t-78.5 55.5t-46.5 84.5t-15.5 106q0 64 18 116t50.5 89t77.5 57t100 20q56 0 98 -20t70.5 -56t43 -85.5t14.5 -107.5q0 -29 -5 -39t-16 -10h-326q8 -63 43 -94.5t102 -31.5q31 0 66 8.5t66 22.5q18 8 26 -10l20 -49q4 -11 2.5 -17.5t-11.5 -11.5
q-37 -21 -84.5 -34t-101.5 -13zM286 435q-52 0 -82 -35t-38 -90h225q-1 25 -8 47.5t-20.5 39.5t-32.5 27.5t-44 10.5zM444 641q5 -5 6 -10t-6 -12l-33 -33q-10 -10 -20 -1l-104 91l-105 -91q-10 -9 -20 1l-33 33q-7 7 -6 11.5t6 9.5l91 97q8 8 14.5 11.5t17.5 3.5h70
q11 0 17.5 -3.5t14.5 -11.5z" />
    <glyph glyph-name="edieresis" unicode="&#xeb;" horiz-adv-x="554" 
d="M293 -10q-65 0 -112.5 20t-78.5 55.5t-46.5 84.5t-15.5 106q0 64 18 116t50.5 89t77.5 57t100 20q56 0 98 -20t70.5 -56t43 -85.5t14.5 -107.5q0 -29 -5 -39t-16 -10h-326q8 -63 43 -94.5t102 -31.5q31 0 66 8.5t66 22.5q18 8 26 -10l20 -49q4 -11 2.5 -17.5t-11.5 -11.5
q-37 -21 -84.5 -34t-101.5 -13zM286 435q-52 0 -82 -35t-38 -90h225q-1 25 -8 47.5t-20.5 39.5t-32.5 27.5t-44 10.5zM132 612q-17 0 -17 16v86q0 16 17 16h87q18 0 18 -16v-86q0 -16 -18 -16h-87zM353 612q-17 0 -17 16v86q0 16 17 16h87q18 0 18 -16v-86q0 -16 -18 -16
h-87z" />
    <glyph glyph-name="dotlessi" unicode="&#x131;" horiz-adv-x="264" 
d="M89 0q-17 0 -17 16v496q0 16 17 16h86q17 0 17 -16v-496q0 -16 -17 -16h-86z" />
    <glyph glyph-name="igrave" unicode="&#xec;" horiz-adv-x="264" 
d="M89 0q-17 0 -17 16v496q0 16 17 16h86q17 0 17 -16v-496q0 -16 -17 -16h-86zM118 591q-8 0 -12.5 2.5t-9.5 7.5l-117 150q-5 7 -2.5 11t10.5 4h89q8 0 12 -2.5t8 -8.5l94 -151q7 -13 -6 -13h-66z" />
    <glyph glyph-name="iacute" unicode="&#xed;" horiz-adv-x="264" 
d="M89 0q-17 0 -17 16v496q0 16 17 16h86q17 0 17 -16v-496q0 -16 -17 -16h-86zM87 591q-13 0 -6 13l94 151q4 6 8 8.5t12 2.5h89q8 0 10.5 -4t-2.5 -11l-117 -150q-5 -5 -9.5 -7.5t-12.5 -2.5h-66z" />
    <glyph glyph-name="icircumflex" unicode="&#xee;" horiz-adv-x="264" 
d="M89 0q-17 0 -17 16v496q0 16 17 16h86q17 0 17 -16v-496q0 -16 -17 -16h-86zM290 641q5 -5 6 -10t-6 -12l-33 -33q-10 -10 -20 -1l-104 91l-105 -91q-10 -9 -20 1l-33 33q-7 7 -6 11.5t6 9.5l91 97q8 8 14.5 11.5t17.5 3.5h70q11 0 17.5 -3.5t14.5 -11.5z" />
    <glyph glyph-name="idieresis" unicode="&#xef;" horiz-adv-x="264" 
d="M89 0q-17 0 -17 16v496q0 16 17 16h86q17 0 17 -16v-496q0 -16 -17 -16h-86zM-22 612q-17 0 -17 16v86q0 16 17 16h87q18 0 18 -16v-86q0 -16 -18 -16h-87zM199 612q-17 0 -17 16v86q0 16 17 16h87q18 0 18 -16v-86q0 -16 -18 -16h-87z" />
    <glyph glyph-name="lslash" unicode="&#x142;" horiz-adv-x="345" 
d="M36 237q-8 -5 -12 -1.5t-4 11.5v73q0 9 2.5 13.5t9.5 9.5l78 48v87q0 71 -1 121t-2.5 82t-2.5 48.5t-1 21.5q0 15 18 15h80q18 0 21 -16q2 -10 3.5 -36.5t2.5 -64.5t1.5 -85t0.5 -99l77 48q8 5 12 1.5t4 -11.5v-73q0 -9 -2.5 -13.5t-9.5 -9.5l-81 -50v-224q0 -22 7 -32
t24 -10h10q9 0 11 -3.5t2 -13.5v-47q0 -16 -11 -21q-8 -4 -19.5 -7t-26.5 -3q-26 0 -47.5 7.5t-38.5 25.5q-31 34 -31 120v133z" />
    <glyph glyph-name="ntilde" unicode="&#xf1;" horiz-adv-x="585" 
d="M178 513q2 -7 2.5 -17.5t1.5 -21.5q25 28 65 46t87 18q45 0 80 -14t59 -40q26 -28 37 -66.5t11 -97.5v-304q0 -16 -17 -16h-86q-17 0 -17 16v265q0 27 -1 46.5t-3.5 33.5t-7 24t-11.5 18q-22 26 -77 26q-21 0 -43.5 -6t-37.5 -17q-14 -10 -20 -23t-8 -36q-2 -19 -2 -48.5
v-63.5v-219q0 -16 -17 -16h-86q-17 0 -17 16v313q0 31 -1 61.5t-1.5 55.5t-1.5 42.5t-1 23.5q0 16 17 16h76q17 0 20 -15zM484 677q-20 -25 -47 -43t-60 -18q-19 0 -34.5 6t-29 12.5t-26.5 12.5t-27 6q-15 0 -29 -8.5t-28 -22.5q-3 -3 -6.5 -4t-8.5 4l-36 39q-8 8 1 19
q20 25 47 43t60 18q19 0 34.5 -6t29 -12.5t26.5 -12.5t27 -6q15 0 29 8.5t28 22.5q3 3 6.5 4t8.5 -4l36 -39q8 -8 -1 -19z" />
    <glyph glyph-name="ograve" unicode="&#xf2;" horiz-adv-x="570" 
d="M276 -10q-114 0 -175 69t-61 194q0 139 66.5 212t187.5 73q114 0 175 -69t61 -194q0 -139 -66.5 -212t-187.5 -73zM279 94q60 0 93.5 43.5t33.5 130.5q0 36 -6 66t-20 52.5t-36 35t-53 12.5q-60 0 -93.5 -43.5t-33.5 -130.5q0 -36 6 -66t20 -52.5t35.5 -35t53.5 -12.5z
M286 591q-8 0 -12.5 2.5t-9.5 7.5l-117 150q-5 7 -2.5 11t10.5 4h89q8 0 12 -2.5t8 -8.5l94 -151q7 -13 -6 -13h-66z" />
    <glyph glyph-name="oacute" unicode="&#xf3;" horiz-adv-x="570" 
d="M276 -10q-114 0 -175 69t-61 194q0 139 66.5 212t187.5 73q114 0 175 -69t61 -194q0 -139 -66.5 -212t-187.5 -73zM279 94q60 0 93.5 43.5t33.5 130.5q0 36 -6 66t-20 52.5t-36 35t-53 12.5q-60 0 -93.5 -43.5t-33.5 -130.5q0 -36 6 -66t20 -52.5t35.5 -35t53.5 -12.5z
M233 591q-13 0 -6 13l94 151q4 6 8 8.5t12 2.5h89q8 0 10.5 -4t-2.5 -11l-117 -150q-5 -5 -9.5 -7.5t-12.5 -2.5h-66z" />
    <glyph glyph-name="ocircumflex" unicode="&#xf4;" horiz-adv-x="570" 
d="M276 -10q-114 0 -175 69t-61 194q0 139 66.5 212t187.5 73q114 0 175 -69t61 -194q0 -139 -66.5 -212t-187.5 -73zM279 94q60 0 93.5 43.5t33.5 130.5q0 36 -6 66t-20 52.5t-36 35t-53 12.5q-60 0 -93.5 -43.5t-33.5 -130.5q0 -36 6 -66t20 -52.5t35.5 -35t53.5 -12.5z
M442 641q5 -5 6 -10t-6 -12l-33 -33q-10 -10 -20 -1l-104 91l-105 -91q-10 -9 -20 1l-33 33q-7 7 -6 11.5t6 9.5l91 97q8 8 14.5 11.5t17.5 3.5h70q11 0 17.5 -3.5t14.5 -11.5z" />
    <glyph glyph-name="otilde" unicode="&#xf5;" horiz-adv-x="570" 
d="M276 -10q-114 0 -175 69t-61 194q0 139 66.5 212t187.5 73q114 0 175 -69t61 -194q0 -139 -66.5 -212t-187.5 -73zM279 94q60 0 93.5 43.5t33.5 130.5q0 36 -6 66t-20 52.5t-36 35t-53 12.5q-60 0 -93.5 -43.5t-33.5 -130.5q0 -36 6 -66t20 -52.5t35.5 -35t53.5 -12.5z
M450 677q-20 -25 -47 -43t-60 -18q-19 0 -34.5 6t-29 12.5t-26.5 12.5t-27 6q-15 0 -29 -8.5t-28 -22.5q-3 -3 -6.5 -4t-8.5 4l-36 39q-8 8 1 19q20 25 47 43t60 18q19 0 34.5 -6t29 -12.5t26.5 -12.5t27 -6q15 0 29 8.5t28 22.5q3 3 6.5 4t8.5 -4l36 -39q8 -8 -1 -19z" />
    <glyph glyph-name="odieresis" unicode="&#xf6;" horiz-adv-x="570" 
d="M276 -10q-114 0 -175 69t-61 194q0 139 66.5 212t187.5 73q114 0 175 -69t61 -194q0 -139 -66.5 -212t-187.5 -73zM279 94q60 0 93.5 43.5t33.5 130.5q0 36 -6 66t-20 52.5t-36 35t-53 12.5q-60 0 -93.5 -43.5t-33.5 -130.5q0 -36 6 -66t20 -52.5t35.5 -35t53.5 -12.5z
M130 612q-17 0 -17 16v86q0 16 17 16h87q18 0 18 -16v-86q0 -16 -18 -16h-87zM351 612q-17 0 -17 16v86q0 16 17 16h87q18 0 18 -16v-86q0 -16 -18 -16h-87z" />
    <glyph glyph-name="oslash" unicode="&#xf8;" horiz-adv-x="570" 
d="M276 -10q-24 0 -45.5 3.5t-41.5 9.5l-31 -53q-9 -16 -26 -6l-50 30q-11 7 -11 12t5 14l31 52q-67 69 -67 201q0 139 66.5 212t187.5 73q26 0 49.5 -4t44.5 -12l34 57q9 16 26 6l50 -30q11 -7 11 -12t-5 -14l-36 -60q30 -34 46 -82.5t16 -111.5q0 -139 -66.5 -212
t-187.5 -73zM164 260q0 -53 13 -91l154 258q-17 7 -40 7q-60 0 -93.5 -43.5t-33.5 -130.5zM279 94q60 0 93.5 43.5t33.5 130.5q0 22 -2.5 42.5t-7.5 37.5l-150 -250q13 -4 33 -4z" />
    <glyph glyph-name="oe" unicode="&#x153;" horiz-adv-x="921" 
d="M660 -10q-66 0 -114 20.5t-79 57.5q-67 -78 -191 -78q-114 0 -175 69t-61 194q0 139 66.5 212t187.5 73q119 0 181 -77q32 37 77.5 57t100.5 20q56 0 98 -20t70.5 -56t43 -85.5t14.5 -107.5q0 -29 -5 -39t-16 -10h-326q8 -63 43 -94.5t102 -31.5q31 0 66 8.5t66 22.5
q18 8 26 -10l20 -49q4 -11 2.5 -17.5t-11.5 -11.5q-37 -21 -84.5 -34t-101.5 -13zM279 94q60 0 93.5 43.5t33.5 130.5q0 36 -6 66t-20 52.5t-36 35t-53 12.5q-60 0 -93.5 -43.5t-33.5 -130.5q0 -36 6 -66t20 -52.5t35.5 -35t53.5 -12.5zM653 435q-52 0 -82 -35t-38 -90h225
q-1 25 -8 47.5t-20.5 39.5t-32.5 27.5t-44 10.5z" />
    <glyph glyph-name="thorn" unicode="&#xfe;" horiz-adv-x="572" 
d="M188 484q25 25 59.5 39.5t77.5 14.5q47 0 85.5 -18.5t65.5 -53t41.5 -83.5t14.5 -110q0 -63 -15.5 -115t-45 -89.5t-71.5 -58t-95 -20.5q-36 0 -65 8.5t-52 22.5v-246q0 -17 -17 -17h-86q-17 0 -17 17v974q0 17 17 17h86q17 0 17 -17v-265zM282 94q61 0 93.5 47t32.5 131
q0 78 -29 120t-88 42q-25 0 -49.5 -9t-37.5 -25q-10 -13 -13 -31t-3 -57v-184q15 -15 41 -24.5t53 -9.5z" />
    <glyph glyph-name="scaron" unicode="&#x161;" horiz-adv-x="470" 
d="M68 120q10 20 28 9q28 -17 60.5 -28.5t70.5 -11.5q40 0 65 17.5t25 44.5t-25 41t-82 29q-30 8 -59 19t-51.5 29t-36 44t-13.5 65q0 38 15 68t41.5 50.5t63 31t79.5 10.5q50 0 89.5 -13t68.5 -34q16 -13 5 -30l-28 -44q-7 -11 -13.5 -11.5t-15.5 4.5q-29 16 -54.5 23
t-51.5 7q-33 0 -59 -12t-26 -43q0 -15 8.5 -25t23 -17.5t32.5 -13.5t37 -11q28 -8 57.5 -19t53.5 -28t39 -43.5t15 -65.5q0 -41 -15.5 -73t-42.5 -54t-63.5 -33.5t-77.5 -11.5q-62 0 -109.5 16t-74.5 38q-14 11 -5 30zM312 605q-8 -8 -14.5 -11.5t-17.5 -3.5h-70
q-11 0 -17.5 3.5t-14.5 11.5l-91 97q-5 5 -6 9.5t6 11.5l33 33q6 6 10.5 6t9.5 -5l105 -91l104 91q5 5 9.5 5t10.5 -6l33 -33q7 -7 6 -12t-6 -10z" />
    <glyph glyph-name="germandbls" unicode="&#xdf;" horiz-adv-x="654" 
d="M387 403q0 -21 17.5 -35.5t44 -28t57 -27.5t57 -34t44 -47.5t17.5 -68.5q0 -39 -14.5 -71t-39.5 -54.5t-59.5 -34.5t-74.5 -12q-54 0 -98.5 13.5t-76.5 36.5q-15 11 -5 28l24 45q5 8 11 11t17 -2q31 -15 59 -24.5t61 -9.5q38 0 60.5 18t22.5 45q0 23 -17.5 38.5t-44 28.5
t-57 26t-57 32t-44 46.5t-17.5 69.5q0 27 10.5 47.5t25.5 38t33.5 32t33.5 28t25.5 28t10.5 31.5q0 38 -27 59t-69 21q-58 0 -93 -35q-17 -18 -26.5 -45t-9.5 -66v-515q0 -16 -17 -16h-86q-17 0 -17 16v520q0 57 16.5 101t48.5 74q32 32 81.5 48.5t108.5 16.5q47 0 85 -12.5
t65 -36t41.5 -56t14.5 -71.5q0 -46 -22 -74.5t-49 -48.5t-49 -36.5t-22 -37.5z" />
    <glyph glyph-name="ugrave" unicode="&#xf9;" 
d="M400 54q-24 -28 -64 -46t-88 -18q-44 0 -79 14t-58 40q-25 28 -36 66.5t-11 97.5v304q0 16 17 16h86q17 0 17 -16v-265q0 -27 1 -46.5t3 -33.5t6.5 -24t10.5 -18q23 -26 76 -26q21 0 43.5 6t37.5 17q14 9 20 22.5t8 36.5q2 19 2 48.5v63.5v219q0 16 18 16h85q17 0 17 -16
v-313q0 -32 1 -62t2 -55t2 -42.5t1 -23.5q0 -16 -18 -16h-77q-10 0 -13.5 3.5t-5.5 12.5l-4 38v0zM268 591q-8 0 -12.5 2.5t-9.5 7.5l-117 150q-5 7 -2.5 11t10.5 4h89q8 0 12 -2.5t8 -8.5l94 -151q7 -13 -6 -13h-66z" />
    <glyph glyph-name="uacute" unicode="&#xfa;" 
d="M400 54q-24 -28 -64 -46t-88 -18q-44 0 -79 14t-58 40q-25 28 -36 66.5t-11 97.5v304q0 16 17 16h86q17 0 17 -16v-265q0 -27 1 -46.5t3 -33.5t6.5 -24t10.5 -18q23 -26 76 -26q21 0 43.5 6t37.5 17q14 9 20 22.5t8 36.5q2 19 2 48.5v63.5v219q0 16 18 16h85q17 0 17 -16
v-313q0 -32 1 -62t2 -55t2 -42.5t1 -23.5q0 -16 -18 -16h-77q-10 0 -13.5 3.5t-5.5 12.5l-4 38v0zM249 591q-13 0 -6 13l94 151q4 6 8 8.5t12 2.5h89q8 0 10.5 -4t-2.5 -11l-117 -150q-5 -5 -9.5 -7.5t-12.5 -2.5h-66z" />
    <glyph glyph-name="ucircumflex" unicode="&#xfb;" 
d="M400 54q-24 -28 -64 -46t-88 -18q-44 0 -79 14t-58 40q-25 28 -36 66.5t-11 97.5v304q0 16 17 16h86q17 0 17 -16v-265q0 -27 1 -46.5t3 -33.5t6.5 -24t10.5 -18q23 -26 76 -26q21 0 43.5 6t37.5 17q14 9 20 22.5t8 36.5q2 19 2 48.5v63.5v219q0 16 18 16h85q17 0 17 -16
v-313q0 -32 1 -62t2 -55t2 -42.5t1 -23.5q0 -16 -18 -16h-77q-10 0 -13.5 3.5t-5.5 12.5l-4 38v0zM449 641q5 -5 6 -10t-6 -12l-33 -33q-10 -10 -20 -1l-104 91l-105 -91q-10 -9 -20 1l-33 33q-7 7 -6 11.5t6 9.5l91 97q8 8 14.5 11.5t17.5 3.5h70q11 0 17.5 -3.5
t14.5 -11.5z" />
    <glyph glyph-name="udieresis" unicode="&#xfc;" 
d="M400 54q-24 -28 -64 -46t-88 -18q-44 0 -79 14t-58 40q-25 28 -36 66.5t-11 97.5v304q0 16 17 16h86q17 0 17 -16v-265q0 -27 1 -46.5t3 -33.5t6.5 -24t10.5 -18q23 -26 76 -26q21 0 43.5 6t37.5 17q14 9 20 22.5t8 36.5q2 19 2 48.5v63.5v219q0 16 18 16h85q17 0 17 -16
v-313q0 -32 1 -62t2 -55t2 -42.5t1 -23.5q0 -16 -18 -16h-77q-10 0 -13.5 3.5t-5.5 12.5l-4 38v0zM137 612q-17 0 -17 16v86q0 16 17 16h87q18 0 18 -16v-86q0 -16 -18 -16h-87zM358 612q-17 0 -17 16v86q0 16 17 16h87q18 0 18 -16v-86q0 -16 -18 -16h-87z" />
    <glyph glyph-name="yacute" unicode="&#xfd;" horiz-adv-x="580" 
d="M512 1q0 -130 -57 -190q-60 -63 -186 -63q-35 0 -72 5t-69 14q-17 4 -13 24l12 58q2 11 7 14t16 1q31 -6 58 -9.5t51 -3.5q42 0 68 9.5t38 24.5q27 31 27 107v54q-25 -25 -61 -40.5t-84 -15.5q-44 0 -79 15t-57 40q-26 28 -36.5 68.5t-10.5 94.5v304q0 16 17 16h86
q17 0 17 -16v-264q0 -55 4 -81t17 -41q12 -14 31.5 -20.5t42.5 -6.5q22 0 45 5.5t37 16.5q14 10 20 23t8 31q2 20 2.5 45.5t0.5 66.5v225q0 16 18 16h85q17 0 17 -16v-511zM251 591q-13 0 -6 13l94 151q4 6 8 8.5t12 2.5h89q8 0 10.5 -4t-2.5 -11l-117 -150q-5 -5 -9.5 -7.5
t-12.5 -2.5h-66z" />
    <glyph glyph-name="ydieresis" unicode="&#xff;" horiz-adv-x="580" 
d="M512 1q0 -130 -57 -190q-60 -63 -186 -63q-35 0 -72 5t-69 14q-17 4 -13 24l12 58q2 11 7 14t16 1q31 -6 58 -9.5t51 -3.5q42 0 68 9.5t38 24.5q27 31 27 107v54q-25 -25 -61 -40.5t-84 -15.5q-44 0 -79 15t-57 40q-26 28 -36.5 68.5t-10.5 94.5v304q0 16 17 16h86
q17 0 17 -16v-264q0 -55 4 -81t17 -41q12 -14 31.5 -20.5t42.5 -6.5q22 0 45 5.5t37 16.5q14 10 20 23t8 31q2 20 2.5 45.5t0.5 66.5v225q0 16 18 16h85q17 0 17 -16v-511zM135 612q-17 0 -17 16v86q0 16 17 16h87q18 0 18 -16v-86q0 -16 -18 -16h-87zM356 612q-17 0 -17 16
v86q0 16 17 16h87q18 0 18 -16v-86q0 -16 -18 -16h-87z" />
    <glyph glyph-name="zcaron" unicode="&#x17e;" horiz-adv-x="447" 
d="M267 433h-216q-16 0 -16 18v60q0 17 16 17h349q17 0 17 -17v-28q0 -25 -15 -47l-227 -341h231q17 0 17 -18v-60q0 -17 -17 -17h-366q-16 0 -16 17v28q0 25 15 47zM301 605q-8 -8 -14.5 -11.5t-17.5 -3.5h-70q-11 0 -17.5 3.5t-14.5 11.5l-91 97q-5 5 -6 9.5t6 11.5l33 33
q6 6 10.5 6t9.5 -5l105 -91l104 91q5 5 9.5 5t10.5 -6l33 -33q7 -7 6 -12t-6 -10z" />
    <glyph glyph-name="Alpha" unicode="&#x391;" horiz-adv-x="655" 
d="M452 175h-259l-50 -156q-7 -19 -27 -19h-84q-21 0 -14 22l237 680q4 10 9.5 14t18.5 4h82q13 0 19 -4t9 -14l244 -682q3 -9 -1 -14.5t-13 -5.5h-92q-20 0 -27 19zM226 274h193l-11 33q-26 79 -47.5 147.5t-37.5 119.5q-8 -25 -17.5 -56.5t-21 -66t-23.5 -71t-24 -72.5z
" />
    <glyph glyph-name="Beta" unicode="&#x392;" horiz-adv-x="594" 
d="M96 0q-20 0 -20 19v682q0 19 20 19h151q68 0 120 -11.5t87 -38.5q29 -22 45 -55.5t16 -79.5q0 -48 -22.5 -87t-70.5 -65q61 -23 95.5 -64t34.5 -107q0 -58 -21.5 -98.5t-59 -65.5t-88.5 -36.5t-111 -11.5h-176zM269 101q30 0 57.5 4t48.5 16t34 33.5t13 55.5
q0 61 -38.5 86.5t-108.5 25.5h-72v-221h66zM255 419q65 0 98 26.5t33 76.5q0 25 -7 42t-20 28q-19 17 -46.5 21.5t-59.5 4.5h-50v-199h52z" />
    <glyph glyph-name="Gamma" unicode="&#x393;" horiz-adv-x="525" 
d="M203 19q0 -19 -20 -19h-87q-20 0 -20 19v682q0 19 20 19h396q20 0 20 -19v-65q0 -19 -20 -19h-289v-598z" />
    <glyph glyph-name="Delta" unicode="&#x394;" horiz-adv-x="646" 
d="M371 720q10 0 14.5 -4t7.5 -13l216 -595q9 -26 9 -50v-44q0 -5 -1.5 -9.5t-11.5 -4.5h-562q-15 0 -15 14v44q0 14 2 25t7 25l217 595q3 9 7.5 13t14.5 4h95zM474 108l-154 460l-155 -460h309z" />
    <glyph glyph-name="Epsilon" unicode="&#x395;" horiz-adv-x="558" 
d="M96 0q-20 0 -20 19v682q0 19 20 19h386q20 0 20 -19v-65q0 -19 -20 -19h-279v-202h236q20 0 20 -18v-65q0 -19 -20 -19h-236v-210h283q20 0 20 -19v-65q0 -19 -20 -19h-390z" />
    <glyph glyph-name="Zeta" unicode="&#x396;" horiz-adv-x="565" 
d="M60 0q-20 0 -20 19v46q0 16 3 27.5t14 28.5l309 496h-289q-20 0 -20 19v65q0 19 20 19h418q20 0 20 -19v-46q0 -15 -3.5 -26.5t-12.5 -25.5l-312 -500h318q20 0 20 -19v-65q0 -19 -20 -19h-445z" />
    <glyph glyph-name="Eta" unicode="&#x397;" horiz-adv-x="681" 
d="M96 0q-20 0 -20 19v682q0 19 20 19h87q20 0 20 -19v-286h275v286q0 19 20 19h87q20 0 20 -19v-682q0 -19 -20 -19h-87q-20 0 -20 19v294h-275v-294q0 -19 -20 -19h-87z" />
    <glyph glyph-name="Theta" unicode="&#x398;" horiz-adv-x="719" 
d="M367 625q-45 0 -81.5 -18t-63 -52.5t-40.5 -85t-14 -115.5q0 -132 51 -195.5t133 -63.5q45 0 81.5 18t62.5 52.5t40.5 85t14.5 115.5q0 66 -13.5 115t-38 81t-58.5 47.5t-74 15.5zM370 730q66 0 123 -21t98 -65.5t64.5 -112.5t23.5 -161q0 -87 -22.5 -157t-65 -119.5
t-104 -76.5t-138.5 -27q-66 0 -123 21.5t-98 65.5t-64.5 112t-23.5 161q0 87 22.5 157t65 119.5t104 76.5t138.5 27zM475 407q20 0 20 -18v-59q0 -19 -20 -19h-231q-20 0 -20 19v59q0 18 20 18h231z" />
    <glyph glyph-name="Iota" unicode="&#x399;" horiz-adv-x="285" 
d="M99 0q-20 0 -20 19v682q0 19 20 19h87q20 0 20 -19v-682q0 -19 -20 -19h-87z" />
    <glyph glyph-name="Kappa" unicode="&#x39a;" horiz-adv-x="609" 
d="M96 0q-20 0 -20 19v682q0 19 20 19h87q20 0 20 -19v-284h28q17 0 25 4.5t17 17.5l184 263q8 11 14 14.5t18 3.5h82q12 0 15 -7.5t-4 -16.5l-227 -322l239 -352q7 -10 3 -16t-13 -6h-96q-14 0 -21 4t-15 16l-178 267q-10 15 -18 19.5t-26 4.5h-27v-292q0 -19 -20 -19h-87z
" />
    <glyph glyph-name="Lambda" unicode="&#x39b;" horiz-adv-x="637" 
d="M138 19q-5 -19 -27 -19h-84q-21 0 -14 22l233 680q4 10 9.5 14t18.5 4h82q13 0 18.5 -4t9.5 -14l240 -682q3 -9 -1 -14.5t-13 -5.5h-92q-20 0 -27 19l-92 288q-26 81 -47.5 148.5t-37.5 118.5q-15 -51 -39 -122t-47 -144z" />
    <glyph glyph-name="Mu" unicode="&#x39c;" horiz-adv-x="820" 
d="M383 119q-17 0 -24 4t-12 16l-62 151q-11 26 -23 56t-23 60t-21.5 58t-17.5 50v-60t-0.5 -72.5t-1.5 -79t-2 -78.5l-7 -202q-1 -22 -21 -22h-74q-14 0 -19 5t-4 18l30 675q1 22 24 22h81q14 0 20.5 -4t11.5 -15l92 -227q29 -70 49 -123.5t34 -92.5q7 20 16 45t19.5 52.5
t22 57t22.5 57.5l93 231q5 11 12 15t19 4h79q23 0 24 -22l29 -675q1 -23 -23 -23h-76q-23 0 -23 22l-7 261q-2 76 -3 130.5t-1 104.5q-15 -46 -37.5 -108t-45.5 -119l-62 -152q-5 -12 -12 -16t-24 -4h-52z" />
    <glyph glyph-name="Nu" unicode="&#x39d;" horiz-adv-x="700" 
d="M304 325q-23 36 -40.5 64t-31 51t-24 42t-19.5 37q1 -21 2 -49t2 -58.5t1 -61.5v-57v-274q0 -19 -20 -19h-78q-20 0 -20 19v682q0 19 20 19h69q15 0 22 -4t14 -14l194 -307q22 -36 39 -62.5t30.5 -49t24.5 -42t21 -40.5q-1 21 -2 49t-1.5 58t-0.5 60.5v57.5v275
q0 19 20 19h78q20 0 20 -19v-682q0 -19 -20 -19h-69q-15 0 -22 4t-13 14z" />
    <glyph glyph-name="Xi" unicode="&#x39e;" horiz-adv-x="548" 
d="M71 617q-20 0 -20 19v65q0 19 20 19h413q20 0 20 -19v-65q0 -19 -20 -19h-413zM84 307q-20 0 -20 19v67q0 19 20 19h376q20 0 20 -19v-67q0 -19 -20 -19h-376zM60 0q-20 0 -20 19v68q0 19 20 19h428q20 0 20 -19v-68q0 -19 -20 -19h-428z" />
    <glyph glyph-name="Omicron" unicode="&#x39f;" horiz-adv-x="699" 
d="M659 370q0 -87 -21 -157t-61.5 -119.5t-100.5 -76.5t-137 -27q-66 0 -121 21t-94.5 65.5t-61.5 112.5t-22 161q0 87 21 157t61.5 119.5t100.5 76.5t137 27q66 0 121 -21t94.5 -65.5t61.5 -112.5t22 -161zM528 366q0 133 -45 195t-126 62q-90 0 -138 -69t-48 -200
q0 -133 45 -195t126 -62q90 0 138 69t48 200z" />
    <glyph glyph-name="Pi" unicode="&#x3a0;" horiz-adv-x="687" 
d="M96 0q-20 0 -20 19v682q0 19 20 19h495q20 0 20 -19v-682q0 -19 -20 -19h-87q-20 0 -20 19v599h-281v-599q0 -19 -20 -19h-87z" />
    <glyph glyph-name="Rho" unicode="&#x3a1;" horiz-adv-x="560" 
d="M96 0q-20 0 -20 19v682q0 19 20 19h143q85 0 144.5 -16t95.5 -53q53 -53 53 -154q0 -51 -16 -94.5t-47.5 -75t-80 -49.5t-112.5 -18q-20 0 -38 0.5t-35 2.5v-244q0 -19 -20 -19h-87zM203 618v-254q15 -2 32 -2.5t34 -0.5q70 0 102.5 36t32.5 99q0 34 -9.5 56.5
t-26.5 36.5q-20 17 -49.5 23t-64.5 6h-51z" />
    <glyph glyph-name="Sigma" unicode="&#x3a3;" horiz-adv-x="527" 
d="M468 103q20 0 20 -19v-65q0 -19 -20 -19h-416q-20 0 -20 19v40q0 20 3.5 31t17.5 28l220 253q-51 55 -103 108.5t-103 108.5q-14 14 -17 25.5t-3 33.5v54q0 19 20 19h399q20 0 20 -19v-65q0 -19 -20 -19h-269l166 -175q7 -7 10.5 -11.5t5 -9t2 -10.5t0.5 -16v-39
q0 -10 -0.5 -15.5t-2 -10t-5 -9t-9.5 -11.5l-180 -207h284z" />
    <glyph glyph-name="Tau" unicode="&#x3a4;" horiz-adv-x="533" 
d="M330 617v-598q0 -19 -20 -19h-87q-20 0 -20 19v598h-167q-20 0 -20 19v65q0 19 20 19h461q20 0 20 -19v-65q0 -19 -20 -19h-167z" />
    <glyph glyph-name="Upsilon" unicode="&#x3a5;" 
d="M561 720q25 0 12 -25q-57 -104 -98.5 -184.5t-69 -148.5t-40.5 -127.5t-13 -120.5v-95q0 -19 -20 -19h-87q-20 0 -20 19v118q-2 49 -12.5 96.5t-30 100t-48.5 113t-68 137.5l-57 112q-5 11 -2.5 17.5t16.5 6.5h100q10 0 14.5 -3.5t8.5 -11.5q31 -64 54.5 -114t41.5 -93
t31 -81t21 -77h2q8 42 21 82.5t30 84t39.5 92t50.5 107.5q5 9 10 11.5t13 2.5h101z" />
    <glyph glyph-name="Phi" unicode="&#x3a6;" horiz-adv-x="785" 
d="M630 360q0 97 -46.5 148.5t-131.5 62.5v-422q85 13 131.5 68t46.5 143zM156 361q0 -94 44.5 -147.5t130.5 -65.5v423q-84 -14 -129.5 -69.5t-45.5 -140.5zM454 675q145 -14 223.5 -94.5t78.5 -218.5q0 -65 -21 -119.5t-60 -96t-95 -67.5t-126 -34v-58q0 -19 -20 -19h-85
q-20 0 -20 19v58q-147 14 -223.5 96t-76.5 218q0 63 20 117t58 95.5t94 68t128 34.5v54q0 19 20 19h85q20 0 20 -19v-53z" />
    <glyph glyph-name="Chi" unicode="&#x3a7;" horiz-adv-x="601" 
d="M142 223q29 49 53 86.5t42 64.5q-15 25 -41.5 68.5t-56.5 94.5l-96 162q-5 8 -1.5 14.5t13.5 6.5h91q13 0 20 -3t13 -14l69 -119q17 -29 35 -61.5t29 -55.5q11 21 28.5 54.5t33.5 62.5l66 119q5 10 12 13.5t21 3.5h87q10 0 12.5 -6t-2.5 -14l-128 -214
q-18 -29 -36.5 -59.5t-35.5 -56.5q14 -22 36.5 -58.5t47.5 -78.5l125 -211q5 -9 2 -15.5t-13 -6.5h-93q-14 0 -21 4t-13 14l-86 151q-15 26 -32 56t-29 52l-57 -105l-85 -154q-5 -10 -12.5 -14t-21.5 -4h-85q-11 0 -14 6t3 16z" />
    <glyph glyph-name="Psi" unicode="&#x3a8;" horiz-adv-x="704" 
d="M414 297q73 11 104.5 61.5t31.5 153.5v190q0 19 20 19h82q20 0 20 -19v-203q0 -145 -62.5 -220.5t-195.5 -88.5v-171q0 -19 -20 -19h-82q-20 0 -20 19v170q-133 13 -195.5 88.5t-62.5 220.5v203q0 19 20 19h82q20 0 20 -19v-190q0 -103 31.5 -153t104.5 -61v404
q0 19 20 19h82q20 0 20 -19v-404z" />
    <glyph glyph-name="Omega" unicode="&#x3a9;" horiz-adv-x="756" 
d="M378 623q-41 0 -75.5 -16.5t-59 -48.5t-38 -79.5t-13.5 -108.5q0 -107 40.5 -178.5t102.5 -104.5q9 -5 11.5 -11.5t2.5 -26.5v-31q0 -8 -3.5 -13t-14.5 -5h-251q-20 0 -20 19v62q0 19 20 19h102q-24 19 -45.5 47.5t-38 64t-26 77t-9.5 86.5q0 83 24 149t66 111.5t99.5 70
t125.5 24.5t125.5 -24.5t99.5 -70t66 -111.5t24 -149q0 -45 -9.5 -86.5t-26 -77t-38 -64t-45.5 -47.5h102q20 0 20 -19v-62q0 -19 -20 -19h-251q-11 0 -14.5 5t-3.5 13v31q0 20 2.5 26.5t11.5 11.5q62 33 102.5 104.5t40.5 178.5q0 61 -13.5 108.5t-38 79.5t-59 48.5
t-75.5 16.5z" />
    <glyph glyph-name="Alphatonos" unicode="&#x386;" horiz-adv-x="656" 
d="M452 175h-259l-50 -156q-7 -19 -27 -19h-84q-21 0 -14 22l237 680q4 10 9.5 14t18.5 4h82q13 0 19 -4t9 -14l244 -682q3 -9 -1 -14.5t-13 -5.5h-92q-20 0 -27 19zM226 274h193l-11 33q-26 79 -47.5 147.5t-37.5 119.5q-8 -25 -17.5 -56.5t-21 -66t-23.5 -71t-24 -72.5z
M116 538q-3 -10 -8.5 -13t-14.5 -3h-44q-22 0 -17 22l38 159q4 17 22 17h64q24 0 16 -23z" />
    <glyph glyph-name="Epsilontonos" unicode="&#x388;" horiz-adv-x="678" 
d="M216 0q-20 0 -20 19v682q0 19 20 19h386q20 0 20 -19v-65q0 -19 -20 -19h-279v-202h236q20 0 20 -18v-65q0 -19 -20 -19h-236v-210h283q20 0 20 -19v-65q0 -19 -20 -19h-390zM98 538q-3 -10 -8.5 -13t-14.5 -3h-44q-22 0 -17 22l38 159q4 17 22 17h64q24 0 16 -23z" />
    <glyph glyph-name="Etatonos" unicode="&#x389;" horiz-adv-x="801" 
d="M216 0q-20 0 -20 19v682q0 19 20 19h87q20 0 20 -19v-286h275v286q0 19 20 19h87q20 0 20 -19v-682q0 -19 -20 -19h-87q-20 0 -20 19v294h-275v-294q0 -19 -20 -19h-87zM98 538q-3 -10 -8.5 -13t-14.5 -3h-44q-22 0 -17 22l38 159q4 17 22 17h64q24 0 16 -23z" />
    <glyph glyph-name="Iotatonos" unicode="&#x38a;" horiz-adv-x="423" 
d="M237 0q-20 0 -20 19v682q0 19 20 19h87q20 0 20 -19v-682q0 -19 -20 -19h-87zM97 538q-3 -10 -8.5 -13t-14.5 -3h-44q-22 0 -17 22l38 159q4 17 22 17h64q24 0 16 -23z" />
    <glyph glyph-name="Iotadieresis" unicode="&#x3aa;" horiz-adv-x="285" 
d="M99 0q-20 0 -20 19v682q0 19 20 19h87q20 0 20 -19v-682q0 -19 -20 -19h-87zM-12 791q-17 0 -17 16v86q0 16 17 16h87q18 0 18 -16v-86q0 -16 -18 -16h-87zM209 791q-17 0 -17 16v86q0 16 17 16h87q18 0 18 -16v-86q0 -16 -18 -16h-87z" />
    <glyph glyph-name="Omicrontonos" unicode="&#x38c;" horiz-adv-x="791" 
d="M752 370q0 -87 -21 -157t-61.5 -119.5t-100.5 -76.5t-137 -27q-66 0 -121 21t-94.5 65.5t-61.5 112.5t-22 161q0 87 21 157t61.5 119.5t100.5 76.5t137 27q66 0 121 -21t94.5 -65.5t61.5 -112.5t22 -161zM621 366q0 133 -45 195t-126 62q-90 0 -138 -69t-48 -200
q0 -133 45 -195t126 -62q90 0 138 69t48 200zM98 538q-3 -10 -8.5 -13t-14.5 -3h-44q-22 0 -17 22l38 159q4 17 22 17h64q24 0 16 -23z" />
    <glyph glyph-name="Upsilontonos" unicode="&#x38e;" horiz-adv-x="770" 
d="M748 720q25 0 12 -25q-57 -104 -98.5 -184.5t-69 -148.5t-40.5 -127.5t-13 -120.5v-95q0 -19 -20 -19h-87q-20 0 -20 19v118q-2 49 -12.5 96.5t-30 100t-48.5 113t-68 137.5l-57 112q-5 11 -2.5 17.5t16.5 6.5h100q10 0 14.5 -3.5t8.5 -11.5q31 -64 54.5 -114t41.5 -93
t31 -81t21 -77h2q8 42 21 82.5t30 84t39.5 92t50.5 107.5q5 9 10 11.5t13 2.5h101zM98 538q-3 -10 -8.5 -13t-14.5 -3h-44q-22 0 -17 22l38 159q4 17 22 17h64q24 0 16 -23z" />
    <glyph glyph-name="Upsilondieresis" unicode="&#x3ab;" 
d="M561 720q25 0 12 -25q-57 -104 -98.5 -184.5t-69 -148.5t-40.5 -127.5t-13 -120.5v-95q0 -19 -20 -19h-87q-20 0 -20 19v118q-2 49 -12.5 96.5t-30 100t-48.5 113t-68 137.5l-57 112q-5 11 -2.5 17.5t16.5 6.5h100q10 0 14.5 -3.5t8.5 -11.5q31 -64 54.5 -114t41.5 -93
t31 -81t21 -77h2q8 42 21 82.5t30 84t39.5 92t50.5 107.5q5 9 10 11.5t13 2.5h101zM139 791q-17 0 -17 16v86q0 16 17 16h87q18 0 18 -16v-86q0 -16 -18 -16h-87zM360 791q-17 0 -17 16v86q0 16 17 16h87q18 0 18 -16v-86q0 -16 -18 -16h-87z" />
    <glyph glyph-name="Omegatonos" unicode="&#x38f;" horiz-adv-x="826" 
d="M448 623q-41 0 -75.5 -16.5t-59 -48.5t-38 -79.5t-13.5 -108.5q0 -107 40.5 -178.5t102.5 -104.5q9 -5 11.5 -11.5t2.5 -26.5v-31q0 -8 -3.5 -13t-14.5 -5h-251q-20 0 -20 19v62q0 19 20 19h102q-24 19 -45.5 47.5t-38 64t-26 77t-9.5 86.5q0 83 24 149t66 111.5t99.5 70
t125.5 24.5t125.5 -24.5t99.5 -70t66 -111.5t24 -149q0 -45 -9.5 -86.5t-26 -77t-38 -64t-45.5 -47.5h102q20 0 20 -19v-62q0 -19 -20 -19h-251q-11 0 -14.5 5t-3.5 13v31q0 20 2.5 26.5t11.5 11.5q62 33 102.5 104.5t40.5 178.5q0 61 -13.5 108.5t-38 79.5t-59 48.5
t-75.5 16.5zM98 538q-3 -10 -8.5 -13t-14.5 -3h-44q-22 0 -17 22l38 159q4 17 22 17h64q24 0 16 -23z" />
    <glyph glyph-name="tonos.cap" horiz-adv-x="206" 
d="M116 538q-3 -10 -8.5 -13t-14.5 -3h-44q-22 0 -17 22l38 159q4 17 22 17h64q24 0 16 -23z" />
    <glyph glyph-name="alpha" unicode="&#x3b1;" horiz-adv-x="627" 
d="M268 97q51 0 77 39.5t37 105.5q-3 42 -9.5 77t-20 59.5t-34 38.5t-51.5 14q-47 0 -75 -36.5t-28 -122.5q0 -82 24.5 -128.5t79.5 -46.5zM562 -4q-55 0 -87.5 28t-44.5 79h-3q-20 -49 -59.5 -81t-108.5 -32q-47 0 -87 15t-69.5 48t-46 84.5t-16.5 123.5q0 73 18 125t49 86
t73 50t90 16q35 0 62.5 -9.5t48 -26.5t35 -39.5t23.5 -47.5h3q5 20 11.5 47.5t14.5 52.5q4 13 19 13h76q18 0 12 -19q-14 -38 -27 -78t-23.5 -77.5t-18 -70.5t-11.5 -56q9 -76 28.5 -104.5t56.5 -28.5h9q16 0 16 -17v-64q0 -17 -16 -17h-27z" />
    <glyph glyph-name="beta" unicode="&#x3b2;" horiz-adv-x="596" 
d="M404 403q74 -12 116 -62t42 -129q0 -52 -16.5 -93.5t-46 -70t-69 -43.5t-85.5 -15q-45 0 -86 14t-73 42v-45q0 -49 4.5 -105.5t14.5 -104.5q3 -17 -14 -17h-84q-7 0 -11.5 3.5t-7.5 14.5q-12 43 -17 103t-5 119v486q0 128 61.5 190.5t170.5 62.5q46 0 85 -12.5t67.5 -36
t44.5 -58t16 -79.5q0 -58 -26.5 -101t-80.5 -61v-2zM266 343q-16 0 -16 17v55q0 17 16 17h13q51 0 81 27t30 89q0 48 -24 73.5t-72 25.5q-61 0 -84.5 -38t-23.5 -119v-333q23 -29 58 -45t75 -16q57 0 89 29.5t32 87.5q0 63 -36 96.5t-105 33.5h-33z" />
    <glyph glyph-name="uni03D0" unicode="&#x3d0;" horiz-adv-x="601" 
d="M529 589q0 -44 -18.5 -83t-58.5 -74q50 -35 76.5 -89t26.5 -114q0 -54 -18 -98t-50.5 -75.5t-78 -48.5t-99.5 -17q-69 0 -118.5 25.5t-81.5 71t-47 108t-15 135.5q0 84 21 160.5t60.5 135t95.5 93t126 34.5q85 0 132 -44.5t47 -119.5zM435 233q0 43 -17 81.5t-45 66.5
q-40 -23 -90.5 -42t-110.5 -33q2 -98 35 -154t103 -56q57 0 91 37t34 100zM174 395q114 32 174.5 81.5t60.5 111.5q0 29 -15.5 45t-48.5 16q-32 0 -60.5 -18t-51 -51t-38 -80t-21.5 -105z" />
    <glyph glyph-name="gamma" unicode="&#x3b3;" horiz-adv-x="498" 
d="M289 21q1 -11 1.5 -27t0.5 -28q0 -21 -1.5 -46t-4.5 -49t-7 -46t-9 -38q-4 -13 -18 -13h-85q-18 0 -15 15q11 45 15.5 89t4.5 73q0 58 -8.5 123t-28.5 135.5t-53 145.5t-82 153q-5 9 -1.5 14.5t11.5 5.5h96q8 0 11.5 -3t7.5 -8q17 -26 37 -63t39 -83.5t35 -101t25 -115.5
q23 41 42 83.5t32.5 83.5t20.5 79.5t7 71.5q0 5 -0.5 16t-1.5 23q-2 17 15 17h82q14 0 17 -15q2 -9 3 -24.5t1 -27.5q0 -51 -15.5 -109.5t-42 -117t-60.5 -113.5t-71 -100z" />
    <glyph glyph-name="delta" unicode="&#x3b4;" horiz-adv-x="574" 
d="M237 588q0 -29 22 -50.5t54.5 -41.5t70.5 -41.5t70.5 -51t54.5 -69.5t22 -96q0 -117 -66.5 -182.5t-182.5 -65.5q-57 0 -102.5 16.5t-77 47t-48.5 73t-17 94.5q0 73 38 132.5t109 90.5q-29 24 -48.5 59t-19.5 80q0 40 14.5 71.5t41 53.5t62.5 33.5t80 11.5q47 0 85 -12
t66 -27q8 -5 11 -9.5t0 -13.5l-23 -63q-6 -14 -21 -7q-36 17 -63.5 23t-50.5 6q-38 0 -59.5 -16t-21.5 -46zM284 95q57 0 90.5 33.5t33.5 96.5q0 55 -33.5 93t-110.5 79q-51 -26 -78 -71t-27 -99q0 -63 34.5 -97.5t90.5 -34.5z" />
    <glyph glyph-name="epsilon" unicode="&#x3b5;" horiz-adv-x="486" 
d="M358 324q16 0 16 -17v-64q0 -17 -16 -17h-71q-56 0 -85 -16.5t-29 -54.5q0 -37 26.5 -51t83.5 -14q23 0 59.5 5t74.5 16q16 4 20 -10l21 -62q2 -7 1 -11.5t-9 -8.5q-18 -8 -41.5 -13.5t-47.5 -9t-47 -5t-41 -1.5q-50 0 -92.5 8t-73.5 26.5t-48.5 48.5t-17.5 73
q0 51 26 86t75 45v3q-46 14 -64.5 45.5t-18.5 65.5q0 67 50 107t155 40q24 0 49.5 -3t49 -8t42.5 -11.5t29 -12.5q8 -5 9.5 -9t-1.5 -12l-22 -60q-3 -8 -7.5 -10.5t-13.5 1.5q-27 11 -60 17.5t-59 6.5q-41 0 -64 -11t-23 -41q0 -20 8 -32t22.5 -18.5t35 -8.5t45.5 -2h54z
" />
    <glyph glyph-name="zeta" unicode="&#x3b6;" horiz-adv-x="454" 
d="M158 264q0 -56 21.5 -87t54.5 -49t70.5 -29.5t70.5 -29t54.5 -47.5t21.5 -85q0 -33 -12.5 -73.5t-32.5 -75.5q-4 -6 -9 -10t-13 -4h-83q-11 0 -13 5.5t2 13.5q16 33 28 67t12 54q0 35 -22 52.5t-55 30t-71.5 26t-71.5 39.5t-55 70.5t-22 120.5q0 61 16.5 119t46.5 110
t72 96.5t93 79.5q-30 -7 -70.5 -10.5t-83.5 -3.5h-36q-16 0 -16 17v63q0 17 16 17h89q54 0 124 5t141 11q17 1 17 -15v-43q0 -8 -2.5 -12t-8.5 -8q-54 -33 -103 -77.5t-87 -98t-60.5 -114t-22.5 -125.5z" />
    <glyph glyph-name="eta" unicode="&#x3b7;" horiz-adv-x="611" 
d="M214 16q0 -16 -17 -16h-86q-17 0 -17 16v350q0 44 -7 58.5t-30 14.5h-12q-16 0 -16 17v60q0 17 16 17h37q49 0 78 -15.5t40 -51.5q26 32 67 52t87 20q187 0 187 -218v-312q0 -48 4 -105.5t13 -111.5q3 -17 -14 -17h-85q-9 0 -12.5 3t-5.5 11q-7 26 -11 54t-6 55
t-2.5 51.5t-0.5 44.5v303q0 38 -4 63.5t-14.5 41t-30 22t-49.5 6.5q-50 0 -79 -23q-13 -10 -19 -23.5t-8.5 -32.5t-2.5 -43.5v-55.5v-235z" />
    <glyph glyph-name="theta" unicode="&#x3b8;" horiz-adv-x="624" 
d="M581 372q0 -78 -15 -147t-47.5 -121.5t-83.5 -83t-123 -30.5t-123 30.5t-83.5 82t-47.5 121t-15 147.5q0 77 15.5 146.5t48.5 122t84 83t122 30.5q72 0 122.5 -30.5t83 -82.5t47.5 -121t15 -147zM166 334q2 -51 11 -95t27 -76t45 -50.5t64 -18.5t63.5 18.5t44 50.5
t26.5 76t11 95h-292zM458 415q-2 51 -11.5 93.5t-27 74t-44 49t-62.5 17.5t-63 -17.5t-45 -49t-27.5 -74.5t-11.5 -93h292z" />
    <glyph glyph-name="theta1" unicode="&#x3d1;" horiz-adv-x="612" 
d="M288 753q71 0 123 -29.5t86.5 -80.5t51 -119.5t16.5 -147.5q0 -77 -11.5 -146.5t-41 -123t-79.5 -85t-127 -31.5q-104 0 -152.5 54t-48.5 152v42q0 14 -5.5 22t-20.5 8q-7 0 -16 -1.5t-17 -3.5q-18 -3 -18 13v31q0 12 3.5 21.5t14.5 16.5q14 8 32.5 10.5t43.5 2.5
q55 0 78 -23.5t23 -76.5v-46q0 -54 18.5 -85.5t67.5 -31.5q69 0 100 62.5t33 190.5q-174 11 -265.5 68t-91.5 158q0 39 13.5 72t39.5 56.5t63.5 37t86.5 13.5zM201 573q0 -26 12.5 -48t41 -39.5t73.5 -30t110 -18.5q-7 101 -47.5 157t-105.5 56q-37 0 -60.5 -19.5
t-23.5 -57.5z" />
    <glyph glyph-name="iota" unicode="&#x3b9;" horiz-adv-x="314" 
d="M217 98q15 0 35 8q9 4 13.5 2t7.5 -10l22 -52q2 -6 2 -11t-8 -10q-47 -31 -102 -31q-57 0 -91 34.5t-34 114.5v369q0 16 17 16h86q17 0 17 -16v-351q0 -38 8 -50.5t27 -12.5z" />
    <glyph glyph-name="kappa" unicode="&#x3ba;" horiz-adv-x="549" 
d="M492 436q-28 0 -53 -18t-56 -50l-59 -61l200 -287q5 -8 3.5 -14t-12.5 -6h-105q-8 0 -12 3.5t-8 8.5l-141 210q-17 -18 -33 -35t-32 -35v-136q0 -16 -17 -16h-86q-17 0 -17 16v341q0 39 -3.5 82.5t-8.5 71.5q-3 17 14 17h86q14 0 18 -13q8 -31 11 -70.5t3 -84.5v-63
l128 146q36 42 81 66t99 24q16 0 16 -17v-63q0 -17 -16 -17z" />
    <glyph glyph-name="lambda" unicode="&#x3bb;" horiz-adv-x="539" 
d="M333 539q47 -125 96 -259.5t95 -261.5q7 -18 -12 -18h-98q-13 0 -17 13l-63 195q-8 23 -14.5 44.5t-12.5 44t-13 48t-14 55.5q-33 -109 -62.5 -202.5t-59.5 -184.5q-4 -13 -17 -13h-92q-19 0 -12 18q45 123 93 253t93 252q-9 22 -13.5 33.5t-11.5 28.5q-16 38 -41.5 51.5
t-67.5 13.5q-10 0 -21 -2l-22 -4q-12 -2 -15.5 2t-5.5 11l-14 64q-2 11 0 15.5t10 7.5q24 9 68 9q49 0 85 -11t62 -32t45 -52t34 -71z" />
    <glyph glyph-name="mu" unicode="&#x3bc;" horiz-adv-x="591" 
d="M406 54q-24 -28 -64 -46t-88 -18q-36 0 -64 13v-228q0 -17 -17 -17h-86q-17 0 -17 17v737q0 16 17 16h86q17 0 17 -16v-265q0 -27 1 -46.5t3 -33.5t6.5 -24t10.5 -18q23 -26 76 -26q21 0 43.5 6t37.5 17q14 9 20 22.5t8 36.5q2 19 2 48.5v63.5v219q0 16 18 16h85
q17 0 17 -16v-313q0 -32 1 -62t2 -55t2 -42.5t1 -23.5q0 -16 -18 -16h-77q-10 0 -13.5 3.5t-5.5 12.5l-4 38v0z" />
    <glyph glyph-name="nu" unicode="&#x3bd;" horiz-adv-x="503" 
d="M310 20q-10 -12 -20 -16t-26 -4h-52q-13 0 -20 3.5t-12 14.5l-169 492q-5 18 13 18h95q14 0 18 -13q33 -100 64.5 -198t60.5 -190h3q48 74 73 157t25 158q0 12 -1.5 32t-3.5 37t15 17h82q14 0 18 -13q5 -15 7.5 -35t2.5 -37q0 -56 -13.5 -113t-37 -111t-55 -104.5
t-67.5 -94.5z" />
    <glyph glyph-name="xi" unicode="&#x3be;" horiz-adv-x="457" 
d="M399 677q-112 -26 -165 -66.5t-53 -88.5q0 -20 7.5 -34t25.5 -24t47.5 -14.5t73.5 -4.5h45q16 0 16 -17v-66q0 -17 -16 -17h-39q-39 0 -73 -8t-59 -24.5t-39.5 -42t-14.5 -60.5q0 -41 22 -62t54.5 -33.5t70.5 -21.5t70.5 -25t54.5 -45t22 -81q0 -37 -12 -79.5t-33 -77.5
q-4 -7 -8 -9t-12 -2h-86q-20 0 -10 19q19 40 27.5 71t8.5 51q0 40 -23.5 58t-64.5 29q-43 12 -80.5 24t-65.5 31.5t-44 51t-16 83.5q0 133 133 179q-51 14 -78.5 50t-27.5 87q0 49 30.5 89.5t102.5 66.5v3q-22 -3 -48 -5.5t-52 -2.5h-17q-16 0 -16 17v58q0 17 16 17h59
q45 0 88.5 2t79.5 4.5t62.5 4.5t36.5 2q16 0 16 -17v-52q0 -9 -3.5 -12.5t-12.5 -5.5z" />
    <glyph glyph-name="xi.salt" horiz-adv-x="459" 
d="M449 -58q0 -37 -12 -79.5t-33 -77.5q-4 -7 -8 -9t-12 -2h-86q-20 0 -10 19q19 40 27.5 71t8.5 51q0 22 -7 36.5t-21 25t-35.5 17.5t-51.5 13q-32 7 -63.5 18t-57.5 32.5t-42 56t-16 87.5q0 65 31 117.5t94 78.5q-51 22 -74.5 60.5t-23.5 93.5q0 42 14 79t43.5 64
t75.5 42.5t111 15.5q31 0 59.5 -3.5t55.5 -14.5q12 -5 13 -11t-1 -15l-14 -56q-3 -12 -8.5 -14.5t-15.5 -0.5q-23 5 -46.5 8.5t-43.5 3.5q-118 0 -118 -92q0 -31 9.5 -50.5t28.5 -31t48 -16t67 -4.5h33q16 0 16 -17v-66q0 -17 -16 -17h-50q-76 0 -119.5 -35t-43.5 -102
q0 -34 12.5 -54.5t33.5 -33t47 -20t54 -14t54 -16t47 -26t33.5 -43.5t12.5 -69z" />
    <glyph glyph-name="omicron" unicode="&#x3bf;" horiz-adv-x="570" 
d="M276 -10q-114 0 -175 69t-61 194q0 139 66.5 212t187.5 73q114 0 175 -69t61 -194q0 -139 -66.5 -212t-187.5 -73zM279 94q60 0 93.5 43.5t33.5 130.5q0 36 -6 66t-20 52.5t-36 35t-53 12.5q-60 0 -93.5 -43.5t-33.5 -130.5q0 -36 6 -66t20 -52.5t35.5 -35t53.5 -12.5z
" />
    <glyph glyph-name="pi" unicode="&#x3c0;" horiz-adv-x="684" 
d="M121 433h-85q-16 0 -16 17v61q0 17 16 17h592q16 0 16 -17v-61q0 -17 -16 -17h-93v-270q0 -37 8.5 -55t34.5 -18q23 0 52 13q8 4 12 1t8 -12l18 -47q3 -8 1 -13t-10 -11q-23 -16 -52.5 -23.5t-61.5 -7.5q-38 0 -63 11.5t-40 32.5t-21 51.5t-6 68.5v279h-174v-417
q0 -16 -17 -16h-86q-17 0 -17 16v417z" />
    <glyph glyph-name="rho" unicode="&#x3c1;" horiz-adv-x="571" 
d="M407 270q0 76 -31 121t-86 45q-56 0 -83 -41t-27 -129v-128q18 -22 45.5 -34.5t56.5 -12.5q59 0 92 48.5t33 130.5zM60 268q0 132 61.5 201t173.5 69q59 0 103.5 -19.5t74 -55t44 -84.5t14.5 -108q0 -63 -16 -115t-45.5 -88.5t-70.5 -57t-91 -20.5q-37 0 -71 11.5
t-57 34.5v-22q0 -63 5 -116.5t13 -102.5q3 -21 -20 -21h-71q-13 0 -18.5 4.5t-7.5 14.5q-10 41 -15.5 94t-5.5 106v275z" />
    <glyph glyph-name="sigma" unicode="&#x3c3;" horiz-adv-x="606" 
d="M412 258q0 54 -15.5 98t-49.5 72h-41q-39 0 -66.5 -13t-44.5 -35.5t-25 -53.5t-8 -67q0 -73 29 -118.5t94 -45.5t96 44t31 119zM469 428q32 -36 49.5 -80t17.5 -98q0 -52 -16.5 -99t-49 -83t-80 -57t-110.5 -21q-62 0 -107.5 21.5t-75.5 58t-44.5 85t-14.5 102.5
q0 57 17 106.5t50.5 86t84.5 57.5t119 21h264q16 0 16 -17v-66q0 -17 -16 -17h-104z" />
    <glyph glyph-name="sigma1" unicode="&#x3c2;" horiz-adv-x="469" 
d="M298 538q33 0 67.5 -6t58.5 -16q18 -6 11 -25l-18 -61q-6 -21 -28 -13q-25 8 -47 10.5t-41 2.5q-143 0 -143 -156q0 -36 6.5 -61t19.5 -42.5t32.5 -29.5t45.5 -21q32 -12 64.5 -22.5t58.5 -28t42 -45.5t16 -74q0 -15 -3.5 -35t-10 -41.5t-16 -44t-22.5 -42.5
q-5 -7 -10 -10t-16 -3h-73q-24 0 -14 23q7 15 14.5 32.5t14 35t10.5 34t4 28.5q0 22 -8 35t-23.5 22.5t-38.5 17t-53 17.5q-38 13 -68 32t-52 47.5t-33.5 67t-11.5 91.5q0 62 17.5 114t51 89t83 57.5t113.5 20.5z" />
    <glyph glyph-name="tau" unicode="&#x3c4;" horiz-adv-x="474" 
d="M436 528q16 0 16 -17v-66q0 -17 -16 -17h-170v-234q0 -28 2.5 -46.5t9 -29.5t18.5 -15.5t31 -4.5q11 0 24.5 3t25.5 8q20 8 26 -11l18 -52q3 -9 2 -15.5t-10 -11.5q-26 -14 -59.5 -19t-54.5 -5q-40 0 -69 10.5t-47.5 33.5t-27.5 61t-9 92v236h-122q-16 0 -16 17v66
q0 17 16 17h412z" />
    <glyph glyph-name="upsilon" unicode="&#x3c5;" horiz-adv-x="572" 
d="M461 528q8 0 13.5 -2.5t10.5 -10.5q22 -38 34.5 -98t12.5 -123q0 -53 -10.5 -107t-37.5 -97.5t-74.5 -71.5t-121.5 -28q-44 0 -81.5 12t-65 40t-43 72t-15.5 109v156q0 36 -7.5 49t-26.5 13h-13q-16 0 -16 17v59q0 17 16 17h38q75 0 102 -34.5t27 -105.5v-166
q0 -39 8 -63t21 -37.5t29.5 -18.5t34.5 -5q56 0 85 45.5t29 139.5q0 51 -11 109t-28 107q-4 11 -1.5 17t16.5 6h75z" />
    <glyph glyph-name="phi" unicode="&#x3c6;" horiz-adv-x="683" 
d="M153 271q0 -31 6.5 -60t21.5 -53t40 -40.5t62 -23.5v348q-35 -7 -59.5 -23.5t-40.5 -39.5t-23 -50.5t-7 -57.5zM529 268q0 31 -6.5 60t-21.5 52.5t-40 40.5t-62 23v-349q36 7 60.5 23.5t40 39.5t22.5 51t7 59zM282 689q0 16 17 16h84q17 0 17 -16v-144q68 -9 115.5 -33.5
t77 -61.5t43 -84t13.5 -99q0 -51 -15 -96.5t-45.5 -81.5t-77.5 -60.5t-111 -33.5v-221q0 -16 -17 -16h-84q-17 0 -17 16v220q-68 8 -115.5 32t-77 61t-43 83.5t-13.5 99.5q0 51 15 96t45.5 81t77.5 61t111 35v146z" />
    <glyph glyph-name="phi1" unicode="&#x3d5;" horiz-adv-x="699" 
d="M466 538q51 0 88.5 -20.5t61.5 -56t35.5 -81.5t11.5 -97q0 -61 -16 -111.5t-48.5 -88.5t-81 -61.5t-114.5 -29.5v-202q0 -16 -17 -16h-81q-17 0 -17 16v202q-129 14 -190.5 86.5t-61.5 187.5q0 33 5.5 67.5t15.5 67t25 62.5t35 54q10 11 25 11h71q14 0 16 -6.5t-4 -17.5
q-36 -60 -52.5 -118t-16.5 -112q0 -76 31.5 -123.5t100.5 -56.5v223q0 51 9 92t30 69.5t55 44t84 15.5zM404 94q73 9 106 58.5t33 126.5q0 32 -4.5 60t-14 48.5t-24 32.5t-35.5 12q-33 0 -47 -24t-14 -82v-232z" />
    <glyph glyph-name="chi" unicode="&#x3c7;" horiz-adv-x="503" 
d="M479 528q12 0 15.5 -6.5t-2.5 -17.5l-174 -338q25 -98 41 -157.5t29.5 -91.5t29.5 -42.5t43 -10.5h12q16 0 16 -17v-61q0 -17 -16 -17h-35q-39 0 -68.5 10t-51.5 32.5t-37 58.5t-27 87l-21 87q-5 -14 -8.5 -24.5l-6.5 -19.5t-7 -18t-8 -19l-75 -174q-4 -9 -9 -12t-14 -3
h-82q-14 0 -16.5 6.5t2.5 17.5l183 374q-19 79 -32 130t-26 81t-27 42t-34 12h-17q-16 0 -16 17v62q0 17 16 17h37q69 0 108 -35t59 -117q5 -23 10.5 -46t11.5 -46q22 57 45 112t47 112q6 15 23 15h82z" />
    <glyph glyph-name="psi" unicode="&#x3c8;" horiz-adv-x="679" 
d="M575 528q8 0 13.5 -3t9.5 -11q8 -17 15.5 -42.5t13 -55.5t9 -62.5t3.5 -63.5q0 -59 -12.5 -110t-41 -90t-73.5 -65t-111 -33v-202q0 -16 -17 -16h-80q-17 0 -17 16v201q-107 10 -166 67.5t-59 174.5v120q0 15 -1 35.5t-2.5 41.5t-4 41t-5.5 35q-3 22 17 22h76
q18 0 22 -17q8 -31 11.5 -72.5t3.5 -75.5v-123q0 -37 8 -62.5t22.5 -42.5t34 -26.5t43.5 -14.5v542q0 16 17 16h80q17 0 17 -16v-542q57 14 87.5 59t30.5 129q0 64 -9.5 120.5t-21.5 97.5q-8 28 15 28h72z" />
    <glyph glyph-name="omega" unicode="&#x3c9;" horiz-adv-x="756" 
d="M651 528q8 0 13 -2t10 -13q20 -49 31 -108t11 -110q0 -58 -8.5 -113t-30.5 -97.5t-61.5 -68.5t-100.5 -26q-48 0 -81.5 20t-51.5 63q-18 -43 -53 -63t-83 -20q-60 0 -98.5 26t-61 68t-31 95t-8.5 107q0 32 3.5 65.5t10 64t15 56.5t17.5 43q7 13 24 13h66q23 0 16 -22
q-6 -21 -12 -47.5t-10.5 -55t-7 -57.5t-2.5 -54q0 -104 21.5 -152t65.5 -48q17 0 29.5 6.5t21 25t13 51.5t4.5 85v100q0 16 17 16h83q17 0 17 -16v-118q0 -48 6 -77.5t16 -45.5t23.5 -21.5t28.5 -5.5q81 0 81 197q0 57 -7.5 109.5t-24.5 106.5q-7 23 16 23h73z" />
    <glyph glyph-name="alphatonos" unicode="&#x3ac;" horiz-adv-x="626" 
d="M267 97q51 0 77 39.5t37 105.5q-3 42 -9.5 77t-20 59.5t-34 38.5t-51.5 14q-47 0 -75 -36.5t-28 -122.5q0 -82 24.5 -128.5t79.5 -46.5zM561 -4q-55 0 -87.5 28t-44.5 79h-3q-20 -49 -59.5 -81t-108.5 -32q-47 0 -87 15t-69.5 48t-46 84.5t-16.5 123.5q0 73 18 125t49 86
t73 50t90 16q35 0 62.5 -9.5t48 -26.5t35 -39.5t23.5 -47.5h3q5 20 11.5 47.5t14.5 52.5q4 13 19 13h76q18 0 12 -19q-14 -38 -27 -78t-23.5 -77.5t-18 -70.5t-11.5 -56q9 -76 28.5 -104.5t56.5 -28.5h9q16 0 16 -17v-64q0 -17 -16 -17h-27zM363 768q11 0 15.5 -6.5
t-0.5 -16.5l-66 -146q-8 -15 -24 -15h-42q-25 0 -17 23l48 145q4 16 22 16h64z" />
    <glyph glyph-name="epsilontonos" unicode="&#x3ad;" horiz-adv-x="486" 
d="M344 768q11 0 15.5 -6.5t-0.5 -16.5l-66 -146q-8 -15 -24 -15h-42q-25 0 -17 23l48 145q4 16 22 16h64zM358 324q16 0 16 -17v-64q0 -17 -16 -17h-71q-56 0 -85 -16.5t-29 -54.5q0 -37 26.5 -51t83.5 -14q23 0 59.5 5t74.5 16q16 4 20 -10l21 -62q2 -7 1 -11.5t-9 -8.5
q-18 -8 -41.5 -13.5t-47.5 -9t-47 -5t-41 -1.5q-50 0 -92.5 8t-73.5 26.5t-48.5 48.5t-17.5 73q0 51 26 86t75 45v3q-46 14 -64.5 45.5t-18.5 65.5q0 67 50 107t155 40q24 0 49.5 -3t49 -8t42.5 -11.5t29 -12.5q8 -5 9.5 -9t-1.5 -12l-22 -60q-3 -8 -7.5 -10.5t-13.5 1.5
q-27 11 -60 17.5t-59 6.5q-41 0 -64 -11t-23 -41q0 -20 8 -32t22.5 -18.5t35 -8.5t45.5 -2h54z" />
    <glyph glyph-name="etatonos" unicode="&#x3ae;" horiz-adv-x="611" 
d="M214 16q0 -16 -17 -16h-86q-17 0 -17 16v350q0 44 -7 58.5t-30 14.5h-12q-16 0 -16 17v60q0 17 16 17h37q49 0 78 -15.5t40 -51.5q26 32 67 52t87 20q187 0 187 -218v-312q0 -48 4 -105.5t13 -111.5q3 -17 -14 -17h-85q-9 0 -12.5 3t-5.5 11q-7 26 -11 54t-6 55
t-2.5 51.5t-0.5 44.5v303q0 38 -4 63.5t-14.5 41t-30 22t-49.5 6.5q-50 0 -79 -23q-13 -10 -19 -23.5t-8.5 -32.5t-2.5 -43.5v-55.5v-235zM387 768q11 0 15.5 -6.5t-0.5 -16.5l-66 -146q-8 -15 -24 -15h-42q-25 0 -17 23l48 145q4 16 22 16h64z" />
    <glyph glyph-name="iotatonos" unicode="&#x3af;" horiz-adv-x="314" 
d="M217 98q15 0 35 8q9 4 13.5 2t7.5 -10l22 -52q2 -6 2 -11t-8 -10q-47 -31 -102 -31q-57 0 -91 34.5t-34 114.5v369q0 16 17 16h86q17 0 17 -16v-351q0 -38 8 -50.5t27 -12.5zM212 768q11 0 15.5 -6.5t-0.5 -16.5l-66 -146q-8 -15 -24 -15h-42q-25 0 -17 23l48 145
q4 16 22 16h64z" />
    <glyph glyph-name="iotadieresis" unicode="&#x3ca;" horiz-adv-x="314" 
d="M217 98q15 0 35 8q9 4 13.5 2t7.5 -10l22 -52q2 -6 2 -11t-8 -10q-47 -31 -102 -31q-57 0 -91 34.5t-34 114.5v369q0 16 17 16h86q17 0 17 -16v-351q0 -38 8 -50.5t27 -12.5zM-32 612q-17 0 -17 16v86q0 16 17 16h87q18 0 18 -16v-86q0 -16 -18 -16h-87zM189 612
q-17 0 -17 16v86q0 16 17 16h87q18 0 18 -16v-86q0 -16 -18 -16h-87z" />
    <glyph glyph-name="iotadieresistonos" unicode="&#x390;" horiz-adv-x="314" 
d="M217 98q15 0 35 8q9 4 13.5 2t7.5 -10l22 -52q2 -6 2 -11t-8 -10q-47 -31 -102 -31q-57 0 -91 34.5t-34 114.5v369q0 16 17 16h86q17 0 17 -16v-351q0 -38 8 -50.5t27 -12.5zM179 780q21 0 18 -22l-30 -157q-5 -18 -22 -18h-38q-21 0 -19 21l11 157q2 19 21 19h59z
M24 730q18 0 18 -16v-86q0 -16 -18 -16h-87q-17 0 -17 16v86q0 16 17 16h87zM334 730q18 0 18 -16v-86q0 -16 -18 -16h-87q-17 0 -17 16v86q0 16 17 16h87z" />
    <glyph glyph-name="omicrontonos" unicode="&#x3cc;" horiz-adv-x="570" 
d="M276 -10q-114 0 -175 69t-61 194q0 139 66.5 212t187.5 73q114 0 175 -69t61 -194q0 -139 -66.5 -212t-187.5 -73zM279 94q60 0 93.5 43.5t33.5 130.5q0 36 -6 66t-20 52.5t-36 35t-53 12.5q-60 0 -93.5 -43.5t-33.5 -130.5q0 -36 6 -66t20 -52.5t35.5 -35t53.5 -12.5z
M365 768q11 0 15.5 -6.5t-0.5 -16.5l-66 -146q-8 -15 -24 -15h-42q-25 0 -17 23l48 145q4 16 22 16h64z" />
    <glyph glyph-name="upsilontonos" unicode="&#x3cd;" horiz-adv-x="572" 
d="M345 768q11 0 15.5 -6.5t-0.5 -16.5l-66 -146q-8 -15 -24 -15h-42q-25 0 -17 23l48 145q4 16 22 16h64zM461 528q8 0 13.5 -2.5t10.5 -10.5q22 -38 34.5 -98t12.5 -123q0 -53 -10.5 -107t-37.5 -97.5t-74.5 -71.5t-121.5 -28q-44 0 -81.5 12t-65 40t-43 72t-15.5 109v156
q0 36 -7.5 49t-26.5 13h-13q-16 0 -16 17v59q0 17 16 17h38q75 0 102 -34.5t27 -105.5v-166q0 -39 8 -63t21 -37.5t29.5 -18.5t34.5 -5q56 0 85 45.5t29 139.5q0 51 -11 109t-28 107q-4 11 -1.5 17t16.5 6h75z" />
    <glyph glyph-name="upsilondieresistonos" unicode="&#x3b0;" horiz-adv-x="572" 
d="M461 528q8 0 13.5 -2.5t10.5 -10.5q22 -38 34.5 -98t12.5 -123q0 -53 -10.5 -107t-37.5 -97.5t-74.5 -71.5t-121.5 -28q-44 0 -81.5 12t-65 40t-43 72t-15.5 109v156q0 36 -7.5 49t-26.5 13h-13q-16 0 -16 17v59q0 17 16 17h38q75 0 102 -34.5t27 -105.5v-166
q0 -39 8 -63t21 -37.5t29.5 -18.5t34.5 -5q56 0 85 45.5t29 139.5q0 51 -11 109t-28 107q-4 11 -1.5 17t16.5 6h75zM309 780q21 0 18 -22l-30 -157q-5 -18 -22 -18h-38q-21 0 -19 21l11 157q2 19 21 19h59zM154 730q18 0 18 -16v-86q0 -16 -18 -16h-87q-17 0 -17 16v86
q0 16 17 16h87zM464 730q18 0 18 -16v-86q0 -16 -18 -16h-87q-17 0 -17 16v86q0 16 17 16h87z" />
    <glyph glyph-name="upsilondieresis" unicode="&#x3cb;" horiz-adv-x="572" 
d="M461 528q8 0 13.5 -2.5t10.5 -10.5q22 -38 34.5 -98t12.5 -123q0 -53 -10.5 -107t-37.5 -97.5t-74.5 -71.5t-121.5 -28q-44 0 -81.5 12t-65 40t-43 72t-15.5 109v156q0 36 -7.5 49t-26.5 13h-13q-16 0 -16 17v59q0 17 16 17h38q75 0 102 -34.5t27 -105.5v-166
q0 -39 8 -63t21 -37.5t29.5 -18.5t34.5 -5q56 0 85 45.5t29 139.5q0 51 -11 109t-28 107q-4 11 -1.5 17t16.5 6h75zM120 612q-17 0 -17 16v86q0 16 17 16h87q18 0 18 -16v-86q0 -16 -18 -16h-87zM341 612q-17 0 -17 16v86q0 16 17 16h87q18 0 18 -16v-86q0 -16 -18 -16h-87z
" />
    <glyph glyph-name="omegatonos" unicode="&#x3ce;" horiz-adv-x="764" 
d="M651 528q8 0 13 -2t10 -13q20 -49 31 -108t11 -110q0 -58 -8.5 -113t-30.5 -97.5t-61.5 -68.5t-100.5 -26q-48 0 -81.5 20t-51.5 63q-18 -43 -53 -63t-83 -20q-60 0 -98.5 26t-61 68t-31 95t-8.5 107q0 32 3.5 65.5t10 64t15 56.5t17.5 43q7 13 24 13h66q23 0 16 -22
q-6 -21 -12 -47.5t-10.5 -55t-7 -57.5t-2.5 -54q0 -104 21.5 -152t65.5 -48q17 0 29.5 6.5t21 25t13 51.5t4.5 85v100q0 16 17 16h83q17 0 17 -16v-118q0 -48 6 -77.5t16 -45.5t23.5 -21.5t28.5 -5.5q81 0 81 197q0 57 -7.5 109.5t-24.5 106.5q-7 23 16 23h73zM461 768
q11 0 15.5 -6.5t-0.5 -16.5l-66 -146q-8 -15 -24 -15h-42q-25 0 -17 23l48 145q4 16 22 16h64z" />
    <glyph glyph-name="tonos" unicode="&#x384;" horiz-adv-x="293" 
d="M208 768q11 0 15.5 -6.5t-0.5 -16.5l-66 -146q-8 -15 -24 -15h-42q-25 0 -17 23l48 145q4 16 22 16h64z" />
    <glyph glyph-name="dieresistonos" unicode="&#x385;" horiz-adv-x="513" 
d="M299 780q21 0 18 -22l-30 -157q-5 -18 -22 -18h-38q-21 0 -19 21l11 157q2 19 21 19h59zM144 730q18 0 18 -16v-86q0 -16 -18 -16h-87q-17 0 -17 16v86q0 16 17 16h87zM454 730q18 0 18 -16v-86q0 -16 -18 -16h-87q-17 0 -17 16v86q0 16 17 16h87z" />
    <glyph glyph-name="anoteleia" unicode="&#x387;" horiz-adv-x="240" 
d="M67 291q-20 0 -20 19v104q0 19 20 19h105q21 0 21 -19v-104q0 -19 -21 -19h-105z" />
    <glyph glyph-name="uni037E" unicode="&#x37e;" horiz-adv-x="240" 
d="M67 365q-20 0 -20 19v104q0 19 20 19h105q21 0 21 -19v-104q0 -19 -21 -19h-105zM76 -169q-19 0 -16 18l31 152l-25 12q-11 5 -15 11.5t-4 21.5v77q0 19 20 19h105q21 0 21 -19v-53q0 -35 -5 -57.5t-16 -51.5l-41 -112q-5 -11 -9 -14.5t-15 -3.5h-31z" />
    <glyph glyph-name="uni0374" unicode="&#x374;" horiz-adv-x="293" 
d="M208 765q11 0 15.5 -6.5t-0.5 -16.5l-66 -146q-8 -15 -24 -15h-42q-25 0 -17 23l48 145q4 16 22 16h64z" />
    <glyph glyph-name="uni0375" unicode="&#x375;" horiz-adv-x="293" 
d="M85.9951 -183.988q-11 0 -15.499 6.49902q-4.5 6.5 0.5 16.499l65.9951 145.991q8 14.999 23.999 14.999h41.9971q24.999 0 16.999 -22.999l-47.9971 -144.991q-3.99902 -15.998 -21.998 -15.998h-63.9961z" />
    <glyph glyph-name="apple" unicode="&#xf8ff;" horiz-adv-x="536" 
d="M69 676h401v-66h-334v-543h74v-67h-141v676zM201 274h202v69h-202v199h269v-66h-201v-66h201v-202h-269v66z" />
	k="10" />
  </font>
</defs>
</svg>
